<svg width="155" height="113" viewBox="0 0 155 113" fill="none" xmlns="http://www.w3.org/2000/svg">
<path d="M154.883 91.5739C154.794 94.8742 154.972 95.1673 152.246 94.9762C149.506 94.785 5.45215 94.4282 2.90365 94.5047C0.520808 94.5684 0.138533 94.4028 0.164018 91.0133C0.113048 78.4874 -0.116317 38.5524 0.0748205 32.8056C0.164018 30.8815 0.355155 30.6903 2.04991 29.9385C3.74466 29.174 99.2368 1.85406 103.404 0.465133C105.557 -0.248446 105.786 -0.146506 107.112 0.809181C109.087 2.24908 150.334 27.6831 153.609 29.8238C154.705 30.5374 154.73 30.7668 154.871 32.538C155.1 35.6471 154.972 88.2609 154.883 91.5739Z" fill="#5465A3" fill-opacity="0.2"/>
<g style="mix-blend-mode:multiply">
<path d="M101.192 26.5929C100.897 25.4146 55.8271 26.151 54.9434 25.8564V70.4847C54.9434 69.7483 101.928 70.4847 101.928 69.7483C101.928 69.0118 101.486 27.7712 101.192 26.5929Z" fill="#5465A3" fill-opacity="0.5"/>
</g>
<path d="M24.7047 80.5732C24.7047 80.5846 24.6934 80.5959 24.6934 80.6073C22.786 86.5905 20.89 92.5851 19.0054 98.591" stroke="black" stroke-width="0.538266" stroke-miterlimit="10" stroke-linecap="round" stroke-linejoin="round"/>
<path d="M30.8695 80.5732C30.8695 80.5846 30.8808 80.5959 30.8808 80.6073C32.7882 86.5905 34.6842 92.5851 36.5688 98.591" stroke="black" stroke-width="0.538266" stroke-miterlimit="10" stroke-linecap="round" stroke-linejoin="round"/>
<path d="M21.0146 61.6362C21.1168 62.1471 21.2757 62.6693 21.5482 63.1121C21.9569 63.7706 22.6495 64.2588 22.8652 64.9968C23.0468 65.6098 22.8652 66.257 22.7971 66.8928C22.6268 68.5503 23.2512 70.2079 24.2049 71.5817C25.1586 72.9441 26.4074 74.0681 27.6563 75.1693C27.8947 74.4314 28.1218 73.6821 28.258 72.9214C28.4056 72.0699 28.4397 71.1957 28.4056 70.3215C28.2353 65.0535 25.7716 59.9672 21.9456 56.3342C21.9229 56.3115 20.9919 58.4686 20.9578 58.7297C20.8216 59.7061 20.8102 60.6598 21.0146 61.6362Z" fill="#5465A3"/>
<path d="M18.4829 68.6639C18.8575 69.3678 19.4479 70.0036 20.2086 70.2648C21.0374 70.5486 22.0251 70.3896 22.7744 70.8551C22.5928 71.2071 22.4111 71.559 22.3317 71.945C22.2522 72.3311 22.3203 72.7625 22.5701 73.0577C22.7404 73.2507 22.9788 73.3756 23.2059 73.4891C24.6818 74.2384 26.1577 74.9764 27.645 75.7257C27.4747 73.8751 26.7481 72.104 25.7036 70.5599C24.6591 69.0159 23.3421 67.6875 21.9116 66.4954C20.4584 65.2806 18.8803 64.168 17.0864 63.5322C17.1205 63.5436 17.234 64.8152 17.2681 64.9514C17.3703 65.3828 17.5179 65.8029 17.6541 66.223C17.9152 67.0518 18.0742 67.8919 18.4829 68.6639Z" fill="#5465A3"/>
<path d="M29.3934 70.5938C28.5646 72.1265 28.0537 73.8068 27.5996 75.4985C28.9961 74.7037 30.3585 73.8409 31.6755 72.9213C32.175 72.5693 32.7086 72.1606 32.8676 71.5589C32.947 71.2296 32.9016 70.8663 33.0151 70.5484C33.3557 69.572 34.7976 69.5039 35.3993 68.6638C35.5583 68.448 35.6491 68.1756 35.6945 67.9144C35.8308 67.1651 35.6491 66.4045 35.4675 65.6551C35.4221 65.4735 32.2318 67.1765 31.9025 67.4376C30.8694 68.3005 30.0406 69.4017 29.3934 70.5938Z" fill="#5465A3"/>
<path d="M24.1715 79.1918C24.2396 79.6687 24.3305 80.1569 24.5802 80.5656C25.3977 81.928 27.6797 81.928 29.0307 81.5987C29.7914 81.4171 30.5407 80.9743 30.8927 80.259C31.2333 79.5892 31.256 78.7718 31.2673 78.0451C31.2787 77.1369 31.3695 76.2627 31.2219 75.3544C31.2106 75.2636 31.1879 75.1614 31.1198 75.0933C31.0403 75.0138 30.9154 75.0024 30.7905 74.9911C28.6674 74.923 26.147 74.764 24.0693 75.309C23.9672 76.626 23.9899 77.8862 24.1715 79.1918Z" fill="white" stroke="black" stroke-width="0.538266" stroke-miterlimit="10" stroke-linecap="round" stroke-linejoin="round"/>
<path d="M28.417 79.9268C28.803 85.6375 30.1313 92.915 30.8693 98.5916" stroke="black" stroke-width="0.538266" stroke-miterlimit="10" stroke-linecap="round" stroke-linejoin="round"/>
<path d="M78.9038 26.6562C79.0787 30.7223 78.8601 33.5787 79.0058 36.8577C79.545 48.4437 79.3264 59.6944 79.3847 71.2949" stroke="black" stroke-width="0.538266" stroke-miterlimit="10" stroke-linecap="round" stroke-linejoin="round"/>
<path d="M54.799 25.8535C54.6387 42.4819 54.7553 59.1103 55.1342 75.7241" stroke="black" stroke-width="0.538266" stroke-miterlimit="10" stroke-linecap="round" stroke-linejoin="round"/>
<path d="M101.678 25.8545C101.518 42.4829 101.634 58.3079 102.013 74.9217" stroke="black" stroke-width="0.538266" stroke-miterlimit="10" stroke-linecap="round" stroke-linejoin="round"/>
<path d="M55.0322 52.0869C70.8591 52.2909 85.7813 51.3854 101.608 51.3125" stroke="black" stroke-width="0.538266" stroke-miterlimit="10" stroke-linecap="round" stroke-linejoin="round"/>
<path d="M55.0322 25.8555C70.8591 25.6514 85.8357 25.7167 101.663 25.7896" stroke="black" stroke-width="0.538266" stroke-miterlimit="10" stroke-linecap="round" stroke-linejoin="round"/>
<path d="M121.777 81.9923C122.4 87.9856 121.858 94.06 121.326 100.044C121.831 102.445 111.433 102.734 111.379 100.902C111.948 96.8129 108.572 78.5625 114.168 78.2556C116.389 78.0209 118.988 77.8494 120.992 78.9416C121.579 79.8081 121.579 80.9814 121.777 81.9923Z" fill="white" stroke="black" stroke-width="0.538266" stroke-miterlimit="10" stroke-linecap="round" stroke-linejoin="round"/>
<path d="M116.334 73.815C116.515 75.2591 116.461 76.5679 116.425 78.0843C113.997 78.1204 111.794 78.2106 111.497 81.1531C110.82 84.9079 110.883 88.5543 111.099 92.4174C110.82 90.6123 84.6624 91.9752 77.5048 91.9752C69.4176 91.9752 44.0095 90.7928 44.0095 92.255H43.9915C43.7297 87.8684 45.1017 83.2471 43.7839 79.023C42.6376 77.9218 40.679 78.1926 39.1807 78.0572C39.307 74.9071 38.4225 69.7894 43.0438 70.0241C62.594 69.5096 100.286 69.284 110.783 69.636C113.627 69.5818 116.172 70.683 116.334 73.815Z" fill="white" stroke="black" stroke-width="0.538266" stroke-miterlimit="10" stroke-linecap="round" stroke-linejoin="round"/>
<path d="M111.379 100.901C111.379 100.974 111.379 101.037 111.397 101.109C90.4027 100.631 64.2546 101.605 43.2603 101.145C44.551 98.4734 43.8921 95.1789 43.9914 92.2545H44.0094C44.0094 90.7923 69.4174 91.9747 77.5047 91.9747C84.6713 91.9747 110.828 90.6118 111.099 92.417C111.379 96.262 111.28 97.4896 111.379 100.901Z" fill="white" stroke="black" stroke-width="0.538266" stroke-miterlimit="10" stroke-linecap="round" stroke-linejoin="round"/>
<path d="M116.578 67.9206C121.515 67.8935 124.232 68.1553 128.646 67.6498C128.104 63.6604 128.312 58.8315 127.346 54.7969C125.18 54.5893 119.818 54.7337 117.643 54.9052C117.273 56.9721 116.334 67.9206 116.578 67.9206Z" fill="white" stroke="black" stroke-width="0.538266" stroke-miterlimit="10" stroke-linecap="round" stroke-linejoin="round"/>
<path d="M121.435 66.8818C121.399 68.3079 121.435 70.1402 121.399 71.5663" stroke="black" stroke-width="0.538266" stroke-miterlimit="10" stroke-linecap="round" stroke-linejoin="round"/>
<path d="M118.988 78.2914C119.349 76.5404 119.728 74.7984 120.143 73.0564C121.867 72.7856 123.636 72.7314 125.378 72.9029C126.678 82.2989 128.113 91.6859 129.693 101.037" stroke="black" stroke-width="0.538266" stroke-miterlimit="10" stroke-linecap="round" stroke-linejoin="round"/>
<path d="M121.777 81.9925C123.392 82.0015 125.017 81.9293 126.624 81.7939" stroke="black" stroke-width="0.538266" stroke-miterlimit="10" stroke-linecap="round" stroke-linejoin="round"/>
<path d="M111.099 92.4173C110.837 90.6212 84.7163 91.6592 77.3601 91.7043C69.2729 91.7584 44.0003 90.7836 44.0093 92.2549" stroke="black" stroke-width="0.538266" stroke-miterlimit="10" stroke-linecap="round" stroke-linejoin="round"/>
<path d="M33.2145 82.4164C32.9256 87.9493 33.1603 93.058 33.3769 98.5909C33.3137 99.9357 33.9185 101.208 35.3536 101.371C37.1769 101.777 43.7748 102.761 43.7387 99.9177C44.2893 96.7406 43.9102 93.4822 43.9824 90.269C44.0636 86.7849 44.6594 83.2739 44.0636 79.844C43.847 77.759 41.1212 78.0839 39.5868 78.0749C35.4619 78.2103 33.4762 77.5424 33.2145 82.4164Z" fill="white" stroke="black" stroke-width="0.538266" stroke-miterlimit="10" stroke-linecap="round" stroke-linejoin="round"/>
<path d="M111.298 101.118C90.3396 100.594 64.2185 101.614 43.2603 101.136" stroke="black" stroke-width="0.538266" stroke-miterlimit="10" stroke-linecap="round" stroke-linejoin="round"/>
<path d="M111.478 101.335C111.135 97.8239 111.442 96.3707 111.099 92.4173C111.018 89.2131 110.377 80.8912 112.651 78.7611C114.556 77.7953 116.921 78.039 118.988 78.2917C119.953 78.4632 121.244 78.5715 121.37 79.781" stroke="black" stroke-width="0.538266" stroke-miterlimit="10" stroke-linecap="round" stroke-linejoin="round"/>
<path d="M116.425 77.9398C116.686 73.3908 116.425 69.4645 110.783 69.636C100.295 69.284 62.5939 69.5096 43.0438 70.0241C38.4586 69.7894 39.298 74.853 39.1807 77.994" stroke="black" stroke-width="0.538266" stroke-miterlimit="10" stroke-linecap="round" stroke-linejoin="round"/>
<path d="M117.643 54.8965C117.273 56.9634 116.885 65.4388 116.578 67.9209C120.477 68.1917 124.72 67.8758 128.646 67.6501" fill="white"/>
<path d="M117.643 54.8965C117.273 56.9634 116.885 65.4388 116.578 67.9209C120.477 68.1917 124.72 67.8758 128.646 67.6501" stroke="black" stroke-width="0.538266" stroke-miterlimit="10" stroke-linecap="round" stroke-linejoin="round"/>
<path d="M75.1126 79.6453C76.3763 79.5911 77.5316 79.4377 78.8223 79.6092C79.4902 79.889 77.6309 80.0334 77.4413 80.1327C77.9197 80.1237 80.6275 79.6633 80.6907 80.1056C80.0498 80.2771 78.8133 80.1959 78.1544 80.3132C78.9487 80.3493 80.2935 80.3583 81.0788 80.4576C81.6564 80.9089 78.5605 80.7374 78.3168 80.8457C81.3135 81.1616 82.0265 81.5949 78.1724 81.3873C78.6057 81.5137 80.3567 81.6852 80.2484 81.983C80.2123 82.0733 77.9107 82.1545 76.99 81.7664C75.7715 81.2429 74.6433 81.2068 73.3887 81.1978C74.0746 80.0063 73.0637 79.5641 75.1126 79.6453Z" fill="white" stroke="black" stroke-width="0.538266" stroke-miterlimit="10" stroke-linecap="round" stroke-linejoin="round"/>
<path d="M77.8117 64.1836C75.835 64.689 73.5515 66.9455 71.9539 69.9602C70.0223 73.3178 67.4861 78.3633 69.3454 80.7913C70.8708 82.7861 78.7504 73.2095 80.2036 69.9873" fill="white"/>
<path d="M77.8117 64.1836C75.835 64.689 73.5515 66.9455 71.9539 69.9602C70.0223 73.3178 67.4861 78.3633 69.3454 80.7913C70.8708 82.7861 78.7504 73.2095 80.2036 69.9873" stroke="black" stroke-width="0.538266" stroke-miterlimit="10" stroke-linecap="round" stroke-linejoin="round"/>
<path d="M69.4984 65.9264C76.6199 68.2821 71.0689 78.0663 76.6921 81.4149C76.5477 82.0196 76.4755 82.3987 76.2859 82.859C56.6184 79.8624 63.3247 63.8865 69.4984 65.9264Z" fill="white" stroke="black" stroke-width="0.538266" stroke-miterlimit="10" stroke-linecap="round" stroke-linejoin="round"/>
<path d="M69.6608 79.5643C74.7063 80.6294 90.1768 85.8012 82.252 91.0633C76.9267 92.5887 70.6266 91.5598 65.5811 90.0163C63.6856 89.3574 61.6548 88.7346 60.3551 87.2093C58.5318 85.0701 60.5807 80.6384 62.6838 78.4541L69.6608 79.5643Z" fill="white" stroke="black" stroke-width="0.538266" stroke-miterlimit="10" stroke-linecap="round" stroke-linejoin="round"/>
<path d="M62.7288 89.1497C61.5013 88.6352 60.7161 87.1188 58.7033 89.3302C57.6833 90.4494 55.2824 89.8988 54.1993 90.9819C53.5585 91.6228 56.6092 91.704 58.9921 91.6138C61.3749 91.5235 62.5303 91.6228 64.9853 91.5054C64.9673 90.9368 65.0305 90.6841 64.9221 89.962C64.0918 89.7815 63.5412 89.4114 62.7288 89.1497Z" fill="white" stroke="black" stroke-width="0.538266" stroke-miterlimit="10" stroke-linecap="round" stroke-linejoin="round"/>
<path d="M71.8006 69.8429C72.2067 70.7906 71.8367 71.8376 71.5298 72.5778C70.8528 74.1663 69.0476 79.0403 69.9051 80.6199C68.47 80.6379 63.6501 81.5766 61.1951 79.6992C63.5599 73.372 54.9491 67.9835 62.0164 65.718C66.1052 64.6981 65.9247 61.7466 66.6558 59.9775C66.8995 60.14 67.2786 60.2573 67.6667 60.3386C68.1721 60.9162 68.461 61.8188 68.3707 63.0373C68.1992 65.1314 69.183 66.1784 70.212 67.5774" fill="white"/>
<path d="M71.8006 69.8429C72.2067 70.7906 71.8367 71.8376 71.5298 72.5778C70.8528 74.1663 69.0476 79.0403 69.9051 80.6199C68.47 80.6379 63.6501 81.5766 61.1951 79.6992C63.5599 73.372 54.9491 67.9835 62.0164 65.718C66.1052 64.6981 65.9247 61.7466 66.6558 59.9775C66.8995 60.14 67.2786 60.2573 67.6667 60.3386C68.1721 60.9162 68.461 61.8188 68.3707 63.0373C68.1992 65.1314 69.183 66.1784 70.212 67.5774" stroke="black" stroke-width="0.538266" stroke-miterlimit="10" stroke-linecap="round" stroke-linejoin="round"/>
<path d="M71.2767 89.5828C66.8901 88.1567 65.5903 89.9889 62.7652 89.0322C62.5757 89.4925 61.8897 90.8735 61.6641 91.6407C66.2853 92.11 73.9393 91.6407 81.0789 91.758" fill="white"/>
<path d="M71.2767 89.5828C66.8901 88.1567 65.5903 89.9889 62.7652 89.0322C62.5757 89.4925 61.8897 90.8735 61.6641 91.6407C66.2853 92.11 73.9393 91.6407 81.0789 91.758" stroke="black" stroke-width="0.538266" stroke-miterlimit="10" stroke-linecap="round" stroke-linejoin="round"/>
<path d="M67.6572 53.0912C67.1608 50.4827 63.2797 49.9321 63.063 52.9017C62.8825 56.3135 68.271 57.9471 67.6572 53.0912Z" fill="black" stroke="black" stroke-width="0.538266" stroke-miterlimit="10" stroke-linecap="round" stroke-linejoin="round"/>
<path d="M70.7891 58.3168C70.8884 56.7643 69.7602 56.304 68.8666 55.8888C67.2329 55.1397 65.3555 56.2498 64.7237 57.3781C63.6316 59.3277 65.2923 62.8749 67.7745 62.0174C68.7222 61.6022 69.336 60.6996 70.1212 60.0588C70.5364 59.7248 70.7982 59.2194 70.7891 58.3168Z" fill="black" stroke="black" stroke-width="0.538266" stroke-miterlimit="10" stroke-linecap="round" stroke-linejoin="round"/>
<path d="M71.0057 66.5848C69.8684 70.159 64.146 68.9766 62.0068 65.7092C65.9421 64.572 65.9151 61.7378 66.6462 59.9688C66.8899 60.1312 67.269 60.2486 67.6571 60.3298C68.1625 60.9074 68.7041 61.801 68.6048 63.0285C68.4333 65.1226 69.7601 65.8717 71.0057 66.5848Z" fill="white" stroke="black" stroke-width="0.538266" stroke-miterlimit="10" stroke-linecap="round" stroke-linejoin="round"/>
<path d="M67.5759 62.4692C69.8414 64.4097 71.3036 60.8355 70.7259 58.6331C66.2671 58.3624 68.2528 57.4959 67.269 59.5267C65.9241 57.4598 64.9403 60.7362 66.5559 60.8626" fill="white"/>
<path d="M67.5759 62.4692C69.8414 64.4097 71.3036 60.8355 70.7259 58.6331C66.2671 58.3624 68.2528 57.4959 67.269 59.5267C65.9241 57.4598 64.9403 60.7362 66.5559 60.8626" stroke="black" stroke-width="0.538266" stroke-miterlimit="10" stroke-linecap="round" stroke-linejoin="round"/>
<path d="M77.3148 71.7748C77.5134 77.407 77.5585 75.322 76.9628 83.8334C82.4055 87.2182 92.6228 85.9094 94.5093 83.9778C94.3287 78.7518 94.1753 76.6217 94.5995 65.6101C93.1102 63.3084 84.6349 61.9816 83.6691 62.0358C82.7033 62.0899 78.1543 63.3716 76.2769 64.8699" fill="white"/>
<path d="M77.3148 71.7748C77.5134 77.407 77.5585 75.322 76.9628 83.8334C82.4055 87.2182 92.6228 85.9094 94.5093 83.9778C94.3287 78.7518 94.1753 76.6217 94.5995 65.6101C93.1102 63.3084 84.6349 61.9816 83.6691 62.0358C82.7033 62.0899 78.1543 63.3716 76.2769 64.8699" stroke="black" stroke-width="0.538266" stroke-miterlimit="10" stroke-linecap="round" stroke-linejoin="round"/>
<path d="M96.3598 72.8398C96.8833 76.1704 96.775 79.7357 94.8886 80.8007C93.0383 81.8387 91.6393 74.3652 91.4678 73.8146L96.3598 72.8398Z" fill="white" stroke="black" stroke-width="0.538266" stroke-miterlimit="10" stroke-linecap="round" stroke-linejoin="round"/>
<path d="M59.2539 67.8574C58.3152 70.4659 59.1727 73.5799 60.5537 75.5024C63.0538 78.9684 67.7202 81.4505 70.1031 81.1165C71.9985 80.8548 70.1392 75.4392 66.7545 71.0436" fill="white"/>
<path d="M59.2539 67.8574C58.3152 70.4659 59.1727 73.5799 60.5537 75.5024C63.0538 78.9684 67.7202 81.4505 70.1031 81.1165C71.9985 80.8548 70.1392 75.4392 66.7545 71.0436" stroke="black" stroke-width="0.538266" stroke-miterlimit="10" stroke-linecap="round" stroke-linejoin="round"/>
<path d="M78.7324 71.8287C79.635 70.9713 81.6839 70.6554 82.4872 70.7637C82.2706 71.91 81.1514 70.8991 79.8968 72.4154" fill="white"/>
<path d="M78.7324 71.8287C79.635 70.9713 81.6839 70.6554 82.4872 70.7637C82.2706 71.91 81.1514 70.8991 79.8968 72.4154" stroke="black" stroke-width="0.538266" stroke-miterlimit="10" stroke-linecap="round" stroke-linejoin="round"/>
<path d="M79.7069 73.8685L80.0499 74.1393C81.7739 72.5417 80.6366 72.0633 79.2195 71.5488C78.0913 72.0453 77.9559 72.4243 75.3023 73.8324C74.2823 74.3739 72.7569 75.2134 70.7622 75.9806L71.6197 80.313C72.7028 79.7354 74.5892 77.3886 76.241 75.5563C76.5027 75.2675 76.7554 74.9967 76.9991 74.7621C77.9739 73.8053 78.7231 74.7711 79.7159 73.345" fill="white"/>
<path d="M79.7069 73.8685L80.0499 74.1393C81.7739 72.5417 80.6366 72.0633 79.2195 71.5488C78.0913 72.0453 77.9559 72.4243 75.3023 73.8324C74.2823 74.3739 72.7569 75.2134 70.7622 75.9806L71.6197 80.313C72.7028 79.7354 74.5892 77.3886 76.241 75.5563C76.5027 75.2675 76.7554 74.9967 76.9991 74.7621C77.9739 73.8053 78.7231 74.7711 79.7159 73.345" stroke="black" stroke-width="0.538266" stroke-miterlimit="10" stroke-linecap="round" stroke-linejoin="round"/>
<path d="M69.5709 76.4409C71.5747 75.5383 74.6074 74.1753 75.6364 73.6338L76.4577 76.0527C76.214 76.2964 72.6939 79.979 71.6018 80.665C70.7353 81.2246 69.0655 81.1073 68.5059 81.008" fill="white"/>
<path d="M69.5709 76.4409C71.5747 75.5383 74.6074 74.1753 75.6364 73.6338L76.4577 76.0527C76.214 76.2964 72.6939 79.979 71.6018 80.665C70.7353 81.2246 69.0655 81.1073 68.5059 81.008" stroke="black" stroke-width="0.538266" stroke-miterlimit="10" stroke-linecap="round" stroke-linejoin="round"/>
<path d="M79.6167 72.3428C80.3839 72.5504 80.6276 72.776 80.7901 73.1732Z" fill="#FFEDC6"/>
<path d="M79.6167 72.3428C80.3839 72.5504 80.6276 72.776 80.7901 73.1732" stroke="black" stroke-width="0.538266" stroke-miterlimit="10" stroke-linecap="round" stroke-linejoin="round"/>
<path d="M79.6978 73.3271C79.8331 73.3452 80.0137 73.3271 80.0859 73.291Z" fill="#FFEDC6"/>
<path d="M79.6978 73.3271C79.8331 73.3452 80.0137 73.3271 80.0859 73.291" stroke="black" stroke-width="0.538266" stroke-miterlimit="10" stroke-linecap="round" stroke-linejoin="round"/>
<path d="M92.3952 76.1619C89.7375 76.1465 85.9538 76.0613 84.7682 75.7359C83.8044 75.2102 83.2035 73.8367 82.6347 73.1521C82.3509 73.6735 83.1153 75.4877 83.1153 75.4877C82.0689 75.4311 78.5143 73.2929 79.7805 75.7273C80.954 77.9825 83.7081 77.7889 83.7081 77.7889C85.9074 78.4641 93.6509 84.7321 96.1712 79.1578" fill="white"/>
<path d="M92.3952 76.1619C89.7375 76.1465 85.9538 76.0613 84.7682 75.7359C83.8044 75.2102 83.2035 73.8367 82.6347 73.1521C82.3509 73.6735 83.1153 75.4877 83.1153 75.4877C82.0689 75.4311 78.5143 73.2929 79.7805 75.7273C80.954 77.9825 83.7081 77.7889 83.7081 77.7889C85.9074 78.4641 93.6509 84.7321 96.1712 79.1578" stroke="black" stroke-width="0.538266" stroke-miterlimit="10" stroke-linecap="round" stroke-linejoin="round"/>
<path d="M88.3998 82.9974C89.2687 82.9338 89.8156 82.2749 89.8211 81.4037C89.8433 77.9184 89.5078 73.2388 89.3985 70.506C89.3985 70.4366 89.3985 70.3673 89.3569 70.3117C89.2875 70.2007 89.1209 70.1869 88.996 70.2007C83.2091 70.4644 77.4371 70.3923 71.6502 70.6559C71.5669 70.6559 71.4836 70.6698 71.4004 70.6976C71.3032 70.7531 71.2477 70.8502 71.2061 70.9612C71.0257 71.3914 71.0257 71.8771 71.0396 72.3351C71.0673 74.4167 71.1645 79.7458 71.331 81.8135" fill="white" stroke="black" stroke-width="0.538266" stroke-miterlimit="10" stroke-linecap="round" stroke-linejoin="round"/>
<path d="M80.6909 57.8476C78.0102 50.8976 89.2295 51.0601 86.3141 57.631Z" fill="black"/>
<path d="M80.6909 57.8476C78.0102 50.8976 89.2295 51.0601 86.3141 57.631" stroke="black" stroke-width="0.538266" stroke-miterlimit="10" stroke-linecap="round" stroke-linejoin="round"/>
<path d="M81.6203 59.31C81.6564 61.3498 81.4669 62.4329 81.6293 62.6496C82.8027 64.193 85.6549 63.3807 85.8986 62.2705C85.8715 61.0881 85.3119 58.5879 85.3119 58.5879" fill="white"/>
<path d="M81.6203 59.31C81.6564 61.3498 81.4669 62.4329 81.6293 62.6496C82.8027 64.193 85.6549 63.3807 85.8986 62.2705C85.8715 61.0881 85.3119 58.5879 85.3119 58.5879" stroke="black" stroke-width="0.538266" stroke-miterlimit="10" stroke-linecap="round" stroke-linejoin="round"/>
<path d="M86.3143 58.5968C84.6445 67.4242 76.6204 55.9703 83.5162 55.6814C85.2131 55.6002 86.6121 56.1418 86.3143 58.5968Z" fill="white" stroke="black" stroke-width="0.538266" stroke-miterlimit="10" stroke-linecap="round" stroke-linejoin="round"/>
<path d="M90.0957 70.5203C90.5741 71.9374 91.0344 73.0837 91.3684 74.1487L96.6666 73.2461C96.116 69.7441 95.6828 67.1807 94.4552 65.3936" fill="white"/>
<path d="M90.0957 70.5203C90.5741 71.9374 91.0344 73.0837 91.3684 74.1487L96.6666 73.2461C96.116 69.7441 95.6828 67.1807 94.4552 65.3936" stroke="black" stroke-width="0.538266" stroke-miterlimit="10" stroke-linecap="round" stroke-linejoin="round"/>
<path d="M84.8524 83.7029C89.4195 83.1523 94.5011 81.6269 98.5267 80.9771C106.28 79.7315 108.004 89.9579 100.801 91.0681C93.7249 91.5735 88.1378 91.5735 84.4011 91.4742C80.6644 91.3749 80.872 84.1903 84.8524 83.7029Z" fill="white" stroke="black" stroke-width="0.538266" stroke-miterlimit="10" stroke-linecap="round" stroke-linejoin="round"/>
<path d="M84.8431 83.6942C80.1226 83.622 75.9255 81.9071 71.4306 81.2572C62.7567 80.0116 61.827 90.581 69.9233 91.276C77.7668 91.9439 82.8304 91.2489 86.9733 91.6009" fill="white"/>
<path d="M84.8431 83.6942C80.1226 83.622 75.9255 81.9071 71.4306 81.2572C62.7567 80.0116 61.827 90.581 69.9233 91.276C77.7668 91.9439 82.8304 91.2489 86.9733 91.6009" stroke="black" stroke-width="0.538266" stroke-miterlimit="10" stroke-linecap="round" stroke-linejoin="round"/>
<path d="M77.3608 91.5645C78.3356 91.5374 79.8249 91.6006 81.0705 91.5374L80.7185 89.0192C79.8971 88.938 78.805 88.6401 78.2634 88.2881L77.3608 91.5645Z" fill="white" stroke="black" stroke-width="0.538266" stroke-miterlimit="10" stroke-linecap="round" stroke-linejoin="round"/>
<path d="M78.8318 88.5772C77.6765 87.81 76.7378 87.4851 75.763 89.2542C74.6618 91.2489 72.3512 89.2452 71.8818 91.4294C74.391 91.6822 76.0157 91.61 77.8751 91.5558C77.8751 91.5558 77.7036 89.4708 78.8318 88.5772Z" fill="white" stroke="black" stroke-width="0.538266" stroke-miterlimit="10" stroke-linecap="round" stroke-linejoin="round"/>
<path d="M100.079 91.1311C94.8527 91.7539 80.5375 91.5012 80.5375 91.5012L79.8335 88.7302C79.8335 88.7302 85.7906 86.8347 93.3273 83.5312" fill="white"/>
<path d="M100.079 91.1311C94.8527 91.7539 80.5375 91.5012 80.5375 91.5012L79.8335 88.7302C79.8335 88.7302 85.7906 86.8347 93.3273 83.5312" stroke="black" stroke-width="0.538266" stroke-miterlimit="10" stroke-linecap="round" stroke-linejoin="round"/>
<path d="M81.5128 105.221C81.4677 104.4 80.8359 103.389 80.6644 103.127C79.5723 101.475 81.6392 100.446 82.6501 102.017C82.9389 102.459 84.1936 103.587 84.8163 103.957" fill="white"/>
<path d="M81.5128 105.221C81.4677 104.4 80.8359 103.389 80.6644 103.127C79.5723 101.475 81.6392 100.446 82.6501 102.017C82.9389 102.459 84.1936 103.587 84.8163 103.957" stroke="black" stroke-width="0.538266" stroke-miterlimit="10" stroke-linecap="round" stroke-linejoin="round"/>
<path d="M84.1662 103.47C86.0527 104.111 86.847 105.212 84.6356 107.333C82.8394 109.057 83.0561 109.977 81.6751 111.882C79.1749 114.409 81.6661 108.687 81.4855 105.103C81.4855 105.094 83.7601 104.851 84.1662 103.47Z" fill="white" stroke="black" stroke-width="0.538266" stroke-miterlimit="10" stroke-linecap="round" stroke-linejoin="round"/>
<path d="M64.7061 87.6475C66.1773 91.4204 80.7722 103.524 80.7722 103.524C80.7722 103.524 82.1351 102.414 82.7308 101.936C79.0392 94.9766 78.254 89.543 75.4198 86.4922" fill="white"/>
<path d="M64.7061 87.6475C66.1773 91.4204 80.7722 103.524 80.7722 103.524C80.7722 103.524 82.1351 102.414 82.7308 101.936C79.0392 94.9766 78.254 89.543 75.4198 86.4922" stroke="black" stroke-width="0.538266" stroke-miterlimit="10" stroke-linecap="round" stroke-linejoin="round"/>
</svg>
