<svg width="217" height="102" viewBox="0 0 217 102" fill="none" xmlns="http://www.w3.org/2000/svg">
<g style="mix-blend-mode:multiply">
<path d="M30.7097 51.7079C30.1449 49.7643 28.4442 47.2218 27.0568 45.8438C26.1013 44.8855 25.89 43.4071 26.5515 42.2299C27.3233 40.8519 27.7643 39.2822 27.7643 37.6121C27.7643 34.9474 26.6434 32.529 24.8242 30.7585C23.8778 29.8368 23.6114 28.4314 24.1718 27.2359C24.5761 26.369 24.7966 25.4199 24.7966 24.416C24.7966 20.5283 21.4706 17.3799 17.3544 17.3799C13.2474 17.3799 9.91225 20.5283 9.91225 24.416C9.91225 25.4199 10.1327 26.369 10.537 27.2359C11.0975 28.4314 10.831 29.8368 9.88468 30.7585C8.06548 32.529 6.94456 34.9474 6.94456 37.6121C6.94456 39.2822 7.38557 40.8519 8.15735 42.2299C8.81888 43.4071 8.60756 44.8947 7.65202 45.8438C5.37342 48.1161 3.97687 51.1825 3.97687 54.5591C3.97687 56.1379 4.28006 57.6528 4.84052 59.0399C5.24478 60.0529 5.0978 61.2119 4.39952 62.0606C2.26793 64.6706 1 67.9468 1 71.4968C1 80.0387 8.32274 86.9654 17.3544 86.9654C20.6437 86.9654 27.9533 85.21 31.3625 81.3194C34.3817 77.8739 36.3769 68.9475 30.9498 62.5966C30.2487 61.7761 29.4237 60.9987 28.4611 60.2816C29.6826 58.0023 30.4847 55.9531 30.766 54.263C30.9294 53.2819 30.9172 52.4218 30.7097 51.7079Z" fill="white" stroke="black" stroke-width="0.5" stroke-miterlimit="10" stroke-linecap="round" stroke-linejoin="round"/>
<path d="M18.2153 61.2305V94.7227" stroke="black" stroke-width="0.5" stroke-miterlimit="10" stroke-linecap="round" stroke-linejoin="round"/>
<path d="M13.3457 67.8008L18.2153 73.8249" stroke="black" stroke-width="0.5" stroke-miterlimit="10" stroke-linecap="round" stroke-linejoin="round"/>
<path d="M122.35 94.9191C121.873 94.9191 121.444 94.9191 120.967 94.9191C116.578 94.8717 112.189 94.8717 107.753 94.8717C102.983 94.8717 98.2599 94.8243 93.4895 94.8243C92.3923 94.8243 91.2475 94.8243 90.1503 94.8243C86.6679 94.8243 83.2332 94.8243 79.7508 94.8243C76.1731 94.8243 72.5953 94.8243 68.9698 94.8717C68.9698 94.9191 68.9698 94.9665 68.9698 95.0139C68.9698 94.9665 68.9221 94.9191 68.9221 94.8717C66.4892 94.8717 64.104 94.8717 61.6711 94.9191C58.3319 94.9191 54.9449 94.9665 51.6056 94.9665C44.0207 95.0139 36.4358 95.0612 28.8509 95.156C28.6124 95.156 28.4216 95.156 28.1831 95.156C28.1354 91.8392 28.0877 88.5225 28.04 85.2057C27.8969 76.0136 27.8015 66.8688 27.706 57.6766C27.6583 52.3698 27.6106 47.0156 27.5629 41.7088C27.5629 39.3397 27.5152 36.9232 27.8969 34.5541C28.1831 32.6588 28.7555 30.8109 29.328 28.963C31.2838 22.7085 33.4782 16.5015 35.9111 10.4365C61.5757 10.5787 87.2403 10.7208 112.857 10.863C113.43 10.863 114.05 10.863 114.527 11.1946C114.956 11.4789 115.195 11.9528 115.386 12.4266C116.817 15.459 118.105 18.5389 119.297 21.6661C120.204 24.0352 121.062 26.4043 121.539 28.8682C122.255 32.3271 122.255 35.8808 122.255 39.3871C122.303 57.8662 122.35 76.3926 122.35 94.9191Z" fill="white" stroke="black" stroke-width="0.5" stroke-miterlimit="10" stroke-linecap="round" stroke-linejoin="round"/>
<path d="M63.1501 50.0478C70.6873 49.953 78.2722 49.9056 85.8094 49.8109C85.6663 44.9779 85.4755 40.1449 85.1892 35.3119C77.9383 35.2645 70.6396 35.2645 63.3886 35.3119C63.3409 37.1598 63.3886 39.0551 63.2455 40.903C63.1024 42.8457 63.0547 44.7884 63.0547 46.731C63.1024 47.8682 63.1024 48.958 63.1501 50.0478Z" fill="white" stroke="black" stroke-width="0.5" stroke-miterlimit="10" stroke-linecap="round" stroke-linejoin="round"/>
<path d="M70.8306 35.4541C71.0691 37.5389 71.0214 39.6237 71.0214 41.7559C70.9737 44.5041 70.9737 47.2049 70.926 49.9531C70.926 49.8583 70.926 49.8109 70.926 49.7162" fill="white"/>
<path d="M70.8306 35.4541C71.0691 37.5389 71.0214 39.6237 71.0214 41.7559C70.9737 44.5041 70.9737 47.2049 70.926 49.9531C70.926 49.8583 70.926 49.8109 70.926 49.7162" stroke="black" stroke-width="0.5" stroke-miterlimit="10" stroke-linecap="round" stroke-linejoin="round"/>
<path d="M78.6058 35.4541C78.5581 36.2596 78.6535 37.1125 78.7012 37.918C78.7489 39.0078 78.6535 40.0976 78.6535 41.1874C78.6058 42.5141 78.6535 43.8408 78.6535 45.1675C78.7012 46.7311 78.7012 48.2947 78.7489 49.8583" fill="white"/>
<path d="M78.6058 35.4541C78.5581 36.2596 78.6535 37.1125 78.7012 37.918C78.7489 39.0078 78.6535 40.0976 78.6535 41.1874C78.6058 42.5141 78.6535 43.8408 78.6535 45.1675C78.7012 46.7311 78.7012 48.2947 78.7489 49.8583" stroke="black" stroke-width="0.5" stroke-miterlimit="10" stroke-linecap="round" stroke-linejoin="round"/>
<path d="M85.4274 42.7516C83.0422 42.6568 80.6093 42.8463 78.2241 42.7516C73.2629 42.4672 68.254 42.9411 63.2451 42.7516" fill="white"/>
<path d="M85.4274 42.7516C83.0422 42.6568 80.6093 42.8463 78.2241 42.7516C73.2629 42.4672 68.254 42.9411 63.2451 42.7516" stroke="black" stroke-width="0.5" stroke-miterlimit="10" stroke-linecap="round" stroke-linejoin="round"/>
<path d="M93.0129 81.8886C100.55 81.7938 108.135 81.7465 115.672 81.6517C115.529 76.8187 115.338 71.9857 115.052 67.1527C107.801 67.1053 100.502 67.1053 93.2514 67.1527C93.2037 69.0006 93.2514 70.8959 93.1083 72.7438C92.9652 74.6865 92.9175 76.6292 92.9175 78.5719C92.9175 79.6616 92.9652 80.7988 93.0129 81.8886Z" fill="white" stroke="black" stroke-width="0.5" stroke-miterlimit="10" stroke-linecap="round" stroke-linejoin="round"/>
<path d="M100.693 67.248C100.931 69.3329 100.884 71.4177 100.884 73.5499C100.836 76.298 100.836 78.9988 100.788 81.747C100.788 81.6523 100.788 81.6049 100.788 81.5101" fill="white"/>
<path d="M100.693 67.248C100.931 69.3329 100.884 71.4177 100.884 73.5499C100.836 76.298 100.836 78.9988 100.788 81.747C100.788 81.6523 100.788 81.6049 100.788 81.5101" stroke="black" stroke-width="0.5" stroke-miterlimit="10" stroke-linecap="round" stroke-linejoin="round"/>
<path d="M108.421 67.2949C108.373 68.1004 108.469 68.9533 108.517 69.7588C108.564 70.8486 108.469 71.9384 108.469 73.0282C108.421 74.3549 108.469 75.6816 108.469 77.0083C108.517 78.5719 108.517 80.1355 108.564 81.6991" fill="white"/>
<path d="M108.421 67.2949C108.373 68.1004 108.469 68.9533 108.517 69.7588C108.564 70.8486 108.469 71.9384 108.469 73.0282C108.421 74.3549 108.469 75.6816 108.469 77.0083C108.517 78.5719 108.517 80.1355 108.564 81.6991" stroke="black" stroke-width="0.5" stroke-miterlimit="10" stroke-linecap="round" stroke-linejoin="round"/>
<path d="M115.243 74.5436C112.858 74.4488 110.425 74.6384 108.04 74.5436C103.078 74.2592 98.0694 74.7331 93.0605 74.5436" fill="white"/>
<path d="M115.243 74.5436C112.858 74.4488 110.425 74.6384 108.04 74.5436C103.078 74.2592 98.0694 74.7331 93.0605 74.5436" stroke="black" stroke-width="0.5" stroke-miterlimit="10" stroke-linecap="round" stroke-linejoin="round"/>
<path d="M100.979 49.8103C103.221 49.9524 105.511 49.9524 107.753 49.7629C107.801 47.915 107.61 46.0671 107.563 44.2666C107.467 41.4236 107.61 38.6281 107.515 35.7852C105.273 35.9273 103.031 35.9747 100.789 36.0221C100.836 36.0221 100.789 40.5234 100.789 40.8551C100.836 42.7503 100.836 44.6456 100.884 46.5409C100.932 47.6781 100.979 48.7205 100.979 49.8103Z" fill="white" stroke="black" stroke-width="0.5" stroke-miterlimit="10" stroke-linecap="round" stroke-linejoin="round"/>
<path d="M107.467 42.7034C107.085 42.7507 106.656 42.7034 106.274 42.7034C104.509 42.5612 102.744 42.656 100.979 42.7507" fill="white"/>
<path d="M107.467 42.7034C107.085 42.7507 106.656 42.7034 106.274 42.7034C104.509 42.5612 102.744 42.656 100.979 42.7507" stroke="black" stroke-width="0.5" stroke-miterlimit="10" stroke-linecap="round" stroke-linejoin="round"/>
<path d="M41.2064 49.954C43.4485 50.0961 45.7383 50.0961 47.9804 49.954C48.0281 48.2482 47.8373 46.4951 47.7896 44.7893C47.6942 42.1359 47.8373 39.4825 47.7419 36.8291C45.4998 36.9712 43.2577 37.0186 41.0156 37.066C41.0633 37.066 41.0156 41.283 41.0156 41.6147C41.0633 43.4152 41.0633 45.1684 41.111 46.9689C41.2064 47.9639 41.2064 48.959 41.2064 49.954Z" fill="white" stroke="black" stroke-width="0.5" stroke-miterlimit="10" stroke-linecap="round" stroke-linejoin="round"/>
<path d="M47.6943 43.3196C47.3126 43.367 46.8833 43.3196 46.5017 43.3196C44.7366 43.1774 42.9716 43.2722 41.2065 43.367" fill="white"/>
<path d="M47.6943 43.3196C47.3126 43.367 46.8833 43.3196 46.5017 43.3196C44.7366 43.1774 42.9716 43.2722 41.2065 43.367" stroke="black" stroke-width="0.5" stroke-miterlimit="10" stroke-linecap="round" stroke-linejoin="round"/>
<path d="M71.8802 25.6461C72.071 26.2622 72.4527 26.8309 72.9774 27.21C73.1682 27.3522 73.3591 27.447 73.5976 27.5418C73.8361 27.5891 74.0746 27.5891 74.2654 27.5891C74.8856 27.4944 75.458 27.2574 75.9351 26.8783C76.4121 26.4992 76.746 25.9305 76.8891 25.3144C77.0322 24.6983 76.9368 24.0823 76.746 23.5136C76.6029 23.1345 76.4121 22.7553 76.0782 22.471C75.7442 22.1867 75.3149 22.0445 74.8379 21.9971C74.5039 21.9497 74.1223 21.9971 73.7884 22.0919C73.4545 22.1867 73.1682 22.3288 72.882 22.5184C71.8325 23.1819 71.5463 24.4614 71.8802 25.6461Z" fill="white" stroke="black" stroke-width="0.5" stroke-miterlimit="10" stroke-linecap="round" stroke-linejoin="round"/>
<path d="M101.027 14.4639C101.504 14.6534 101.981 14.606 102.506 14.606C103.317 14.5587 104.128 14.5113 104.939 14.4639C105.749 14.4165 106.608 14.3691 107.419 14.3217C107.467 14.3217 107.515 14.3217 107.515 14.2744C107.515 14.227 107.562 14.227 107.562 14.1796C107.992 9.9152 107.181 5.65079 107.467 1.38639C107.467 1.29162 107.467 1.19686 107.419 1.14948C107.371 1.10209 107.276 1.05471 107.181 1.05471C105.082 0.959948 102.983 1.00733 100.836 1.05471C100.788 1.05471 100.693 5.0822 100.693 5.60341C100.741 7.45132 100.836 9.34661 100.884 11.1945C100.931 12.3317 100.979 13.4215 101.027 14.4639Z" fill="white" stroke="black" stroke-width="0.5" stroke-miterlimit="10" stroke-linecap="round" stroke-linejoin="round"/>
<path d="M73.0244 91.0334C77.3177 91.3177 81.6587 91.3651 85.9521 91.0808C85.9521 87.9536 85.8567 84.8264 85.6182 81.6991C85.3796 78.6193 85.4751 75.5394 85.2365 72.4596C85.0934 70.6591 84.998 68.29 84.9026 66.4894C80.7524 66.442 76.793 66.2525 72.6427 66.5842C72.3088 66.6316 72.8336 79.1405 72.8813 80.2303C72.929 81.936 72.8813 83.6892 72.929 85.3949C72.929 87.2902 72.9767 89.1381 73.0244 91.0334Z" fill="white" stroke="black" stroke-width="0.5" stroke-miterlimit="10" stroke-linecap="round" stroke-linejoin="round"/>
<path d="M74.6472 79.0463C74.7426 79.3781 75.0288 79.7098 75.3628 79.7098C75.5536 79.7098 75.7444 79.615 75.9352 79.5202C76.0306 79.4728 76.0783 79.4254 76.126 79.3307C76.2691 79.1411 76.3168 78.8568 76.2691 78.6198C76.126 77.4825 74.4087 77.8616 74.6472 79.0463Z" fill="white" stroke="black" stroke-width="0.5" stroke-miterlimit="10" stroke-linecap="round" stroke-linejoin="round"/>
<path d="M69.0179 94.8711C69.0179 94.9185 69.0179 94.9658 69.0179 95.0132C69.0179 94.9658 68.9702 94.9185 68.9702 94.8711H69.0179Z" fill="white" stroke="black" stroke-width="0.5" stroke-miterlimit="10" stroke-linecap="round" stroke-linejoin="round"/>
<path d="M10.9146 95.1086C15.0648 95.1086 19.6443 95.2033 23.6515 95.156C33.0014 95.0612 42.3036 94.9664 51.6536 94.919C61.0512 94.8716 70.4011 94.8242 79.7988 94.8242C89.1487 94.8242 98.4509 94.8242 107.801 94.8716C117.151 94.919 126.501 94.9664 135.851 95.0138C136.996 95.0138 138.14 95.0138 139.285 95.0612" fill="white"/>
<path d="M10.9146 95.1086C15.0648 95.1086 19.6443 95.2033 23.6515 95.156C33.0014 95.0612 42.3036 94.9664 51.6536 94.919C61.0512 94.8716 70.4011 94.8242 79.7988 94.8242C89.1487 94.8242 98.4509 94.8242 107.801 94.8716C117.151 94.919 126.501 94.9664 135.851 95.0138C136.996 95.0138 138.14 95.0138 139.285 95.0612" stroke="black" stroke-width="0.5" stroke-miterlimit="10" stroke-linecap="round" stroke-linejoin="round"/>
<path d="M69.1128 89.3752C69.1128 91.2705 69.065 93.0711 69.0173 94.8716C69.0173 94.919 69.0173 94.9664 69.0173 95.0137C69.0173 94.9664 68.9696 94.919 68.9696 94.8716C66.5367 94.8716 64.1516 94.8716 61.7187 94.919C58.3794 94.919 54.9924 94.9664 51.6532 94.9664C44.0683 95.0137 36.4834 95.0611 28.8985 95.1559C28.66 95.1559 28.4692 95.1559 28.2306 95.1559C26.7041 95.1559 25.2253 95.2033 23.6988 95.2033C23.1263 95.2033 22.5539 95.2033 21.9814 95.2033C22.0291 90.2281 22.0769 83.9263 22.0769 80.3726C22.0769 76.2977 22.1723 63.5993 22.0292 60.8511C24.1281 59.5718 24.8914 59.0506 26.4179 58.2925C26.8472 58.0556 27.2766 57.866 27.7059 57.6765C29.0416 57.0132 30.425 56.3972 31.8084 55.8286C35.3385 54.3124 39.0117 53.0804 42.7326 52.038C43.4004 51.8485 44.0683 51.659 44.7838 51.7537C45.2609 51.8011 45.6902 51.9433 46.1673 52.0854C53.7044 54.4545 61.0508 57.4396 68.0633 60.9933C68.7788 69.0009 69.1605 79.804 69.1128 89.3752Z" fill="white" stroke="black" stroke-width="0.5" stroke-miterlimit="10" stroke-linecap="round" stroke-linejoin="round"/>
<path d="M61.7194 94.871C58.3801 94.871 54.9931 94.9184 51.6539 94.9184C44.069 94.9657 36.4841 95.0131 28.8992 95.1079C28.8992 95.0131 28.8515 94.9184 28.8515 94.871C28.5652 92.9757 28.8038 90.8909 28.7561 88.9482C28.7561 86.8634 28.7561 84.7312 28.7084 82.6464C28.7084 78.4293 28.6606 74.2123 28.6606 69.9953C28.6606 69.4741 28.6606 68.9529 28.6606 68.3843C39.5848 68.0526 50.4613 67.9578 61.3854 68.1474C61.8148 77.0552 61.7671 85.9631 61.7194 94.871Z" fill="white" stroke="black" stroke-width="0.5" stroke-miterlimit="10" stroke-linecap="round" stroke-linejoin="round"/>
<path d="M90.1982 94.8249C86.7158 94.8249 83.2812 94.8249 79.7988 94.8249C76.221 94.8249 72.6432 94.8249 69.0178 94.8723C69.0178 94.9197 69.0178 94.9671 69.0178 95.0145C69.0178 94.9671 68.97 94.9197 68.97 94.8723C68.4453 93.3084 68.8269 90.7494 68.97 89.4224C69.0178 89.4224 69.0655 89.4224 69.1132 89.4224C75.8871 89.375 82.661 89.3277 89.4827 89.2803C89.7212 91.0811 89.9597 92.9767 90.1982 94.8249Z" fill="white" stroke="black" stroke-width="0.5" stroke-miterlimit="10" stroke-linecap="round" stroke-linejoin="round"/>
<path d="M120.967 94.9185C116.578 94.8711 112.19 94.8711 107.753 94.8711C102.983 94.8711 98.2601 94.8237 93.4897 94.8237C93.6806 94.1603 93.9191 93.5444 94.253 92.9284C95.064 91.5069 96.5428 90.3224 98.1647 90.2276C99.0234 90.1802 99.9298 90.4645 100.788 90.3224C101.933 90.1328 102.792 89.3274 103.698 88.6166C105.32 87.2899 107.276 86.2475 109.375 86.1527C111.474 86.058 113.716 87.2425 114.384 89.2326C114.623 89.9433 114.718 90.7962 115.433 91.0805C115.815 91.2226 116.197 91.1753 116.578 91.1753C118.153 91.1279 119.584 92.2177 120.395 93.5918C120.633 94.0182 120.824 94.4446 120.967 94.9185Z" fill="white" stroke="black" stroke-width="0.5" stroke-miterlimit="10" stroke-linecap="round" stroke-linejoin="round"/>
<path d="M36.0437 10.4932L27.7607 33.276C29.9908 33.276 47.1939 33.276 50.3796 32.6432C53.5654 32.0103 70.1313 14.6067 73.9542 14.6067C75.8657 14.6067 97.5288 32.3267 100.077 32.6432C102.626 32.9596 120.466 32.6432 122.378 31.3775C122.887 30.3649 117.068 17.0327 114.095 10.4932H36.0437Z" fill="white" stroke="black" stroke-width="0.5" stroke-miterlimit="10" stroke-linecap="round" stroke-linejoin="round"/>
<path d="M129.076 52.5586C129.219 66.6311 129.362 80.6563 129.553 94.7288Z" fill="white"/>
<path d="M129.076 52.5586C129.219 66.6311 129.362 80.6563 129.553 94.7288" stroke="black" stroke-width="0.5" stroke-miterlimit="10" stroke-linecap="round" stroke-linejoin="round"/>
<path d="M129.268 63.2677C131.367 61.2773 133.418 59.1921 135.326 57.0596Z" fill="white"/>
<path d="M129.268 63.2677C131.367 61.2773 133.418 59.1921 135.326 57.0596" stroke="black" stroke-width="0.5" stroke-miterlimit="10" stroke-linecap="round" stroke-linejoin="round"/>
</g>
<path d="M167.128 47.2715C169.101 47.3675 170.694 48.9184 170.792 50.8909C170.927 53.6069 170.923 56.1801 170.807 58.8936C170.719 60.9482 169.03 62.5535 166.974 62.6076C144.137 63.2086 121.289 63.6757 98.4527 64.0089C98.3981 64.0089 98.0022 55.0898 97.9612 54.2802C97.8793 52.634 97.7701 51.0013 97.7155 49.3551C97.6472 47.493 98.2752 47.8303 99.6542 47.8303C105.361 47.8033 111.055 47.7359 116.762 47.6684C128.23 47.5335 139.699 47.3311 151.182 47.0612C156.447 46.9397 161.905 47.0172 167.128 47.2715Z" fill="#C0C8E5"/>
<path d="M140.79 47.1963H124.842C122.633 47.1963 120.842 48.9871 120.842 51.1963V59.0106C120.842 61.2197 122.633 63.0106 124.842 63.0106H140.79C142.999 63.0106 144.79 61.2197 144.79 59.0106V51.1963C144.79 48.9872 142.999 47.1963 140.79 47.1963Z" fill="white"/>
<g style="mix-blend-mode:multiply">
<path d="M170.787 55.9535C170.71 54.0561 170.66 52.3874 170.657 50.6602C170.653 48.8507 169.33 47.3322 167.521 47.305V47.305C165.477 47.2743 163.578 48.7954 163.418 50.8325C163.189 53.7701 163.024 56.5097 162.919 59.4708C162.85 61.4206 164.247 63.0621 166.196 62.9895C167.68 62.9342 169.203 62.792 170.295 62.7259C170.936 62.6854 170.896 63.1455 171.046 62.4168C171.238 61.5128 170.964 60.2984 170.924 59.3673C170.883 58.2339 170.842 57.0869 170.787 55.9535Z" fill="#5465A3"/>
</g>
<path d="M120.857 47.5615C120.993 53.2422 120.98 57.6276 121.13 63.3083C121.144 63.1734 121.171 63.0519 121.185 62.917" stroke="black" stroke-width="0.670848" stroke-miterlimit="10" stroke-linecap="round" stroke-linejoin="round"/>
<path d="M144.641 46.8994C144.709 52.6476 144.778 57.5997 144.846 63.3479" stroke="black" stroke-width="0.670848" stroke-miterlimit="10" stroke-linecap="round" stroke-linejoin="round"/>
<path d="M144.887 50.8798C153.707 50.8259 154.403 50.9472 163.223 51.1897" stroke="black" stroke-width="0.670848" stroke-miterlimit="10" stroke-linecap="round" stroke-linejoin="round"/>
<path d="M144.969 56.0199C153.529 55.9795 154.635 56.4106 163.169 55.8447" stroke="black" stroke-width="0.670848" stroke-miterlimit="10" stroke-linecap="round" stroke-linejoin="round"/>
<path d="M145.597 59.8387C153.83 59.8252 154.813 59.6231 163.032 59.2324" stroke="black" stroke-width="0.670848" stroke-miterlimit="10" stroke-linecap="round" stroke-linejoin="round"/>
<path d="M98.0146 52.0525C100.363 52.1065 101.141 51.8366 103.49 51.9041C109.21 52.039 114.849 51.3913 120.665 51" stroke="black" stroke-width="0.670848" stroke-miterlimit="10" stroke-linecap="round" stroke-linejoin="round"/>
<path d="M97.8242 55.63C104.651 55.9403 109.771 55.603 116.666 55.3061C118.086 55.2387 119.478 54.9553 120.898 54.9823" stroke="black" stroke-width="0.670848" stroke-miterlimit="10" stroke-linecap="round" stroke-linejoin="round"/>
<path d="M120.665 59.9482C112.678 60.4063 106.425 60.541 98.438 60.3255" stroke="black" stroke-width="0.670848" stroke-miterlimit="10" stroke-linecap="round" stroke-linejoin="round"/>
<path d="M170.729 62.726C170.62 58.759 170.747 55.6298 170.596 51.6627C170.564 50.8537 170.589 49.9161 170.609 49.0676C170.633 48.0722 170.09 47.3908 169.096 47.327C167.079 47.1975 163.784 47.1299 163.737 47.1289C163.735 47.1289 163.739 47.129 163.737 47.1289C163.67 47.1275 147.675 46.7783 142.471 46.8726C137.869 46.9535 133.268 47.048 128.667 47.129C119.638 47.2923 110.609 47.4656 101.58 47.6317C99.2771 47.674 97.485 49.6481 97.6627 51.9449C97.9007 55.023 98.1154 57.8331 98.3653 61.0458C98.4687 62.3758 99.5628 63.4118 100.897 63.4425V63.4425" stroke="black" stroke-width="0.670848" stroke-miterlimit="10" stroke-linecap="round" stroke-linejoin="round"/>
<path d="M163.736 47.0537C163.341 52.4376 163.113 56.7363 163.14 62.1337" stroke="black" stroke-width="0.670848" stroke-miterlimit="10" stroke-linecap="round" stroke-linejoin="round"/>
<path d="M163.292 51.0273C165.722 51.4187 168.166 51.81 170.583 52.2283" stroke="black" stroke-width="0.670848" stroke-miterlimit="10" stroke-linecap="round" stroke-linejoin="round"/>
<path d="M163.223 55.9268C165.667 56.1157 168.097 56.3855 170.513 56.7364" stroke="black" stroke-width="0.670848" stroke-miterlimit="10" stroke-linecap="round" stroke-linejoin="round"/>
<path d="M163.251 59.3535C165.75 59.8933 168.303 60.2036 170.856 60.2981" stroke="black" stroke-width="0.670848" stroke-miterlimit="10" stroke-linecap="round" stroke-linejoin="round"/>
<path d="M134.156 52.5516C133.528 52.2143 132.777 52.0523 132.094 52.2412C131.411 52.4302 130.797 52.9834 130.688 53.6715C130.66 53.8605 130.66 54.0629 130.742 54.2248C130.906 54.5486 131.302 54.6836 131.671 54.7645C132.367 54.9129 133.077 54.9939 133.746 55.2098C134.033 55.3042 134.32 55.4257 134.511 55.6686C134.675 55.8845 134.743 56.1543 134.743 56.4242C134.743 56.7346 134.647 57.0584 134.456 57.3013C134.183 57.6521 133.732 57.841 133.282 57.8815C132.831 57.922 132.381 57.814 131.958 57.6656C131.452 57.4902 130.961 57.2473 130.524 56.9639" stroke="black" stroke-width="0.670848" stroke-miterlimit="10" stroke-linecap="round" stroke-linejoin="round"/>
<path d="M132.503 50.6768C132.572 51.3379 132.544 52.0126 132.544 52.6873C132.544 54.8057 132.886 56.9242 132.858 59.0427" stroke="black" stroke-width="0.670848" stroke-miterlimit="10" stroke-linecap="round" stroke-linejoin="round"/>
<path d="M212.781 100.075C166.469 98.5636 97.1286 100.625 51.813 99.3538" stroke="black" stroke-width="0.670848" stroke-miterlimit="10" stroke-linecap="round" stroke-linejoin="round"/>
<path d="M140.517 63.4153C142.19 63.6704 143.39 65.1074 143.486 66.7969C143.653 69.7399 143.658 72.4936 143.533 75.4094C143.446 77.464 141.756 79.0692 139.7 79.1234C116.863 79.7244 94.0148 80.1915 71.1788 80.5247C71.1242 80.5247 70.7283 71.6055 70.6873 70.7959C70.6054 69.1497 70.4961 67.517 70.4415 65.8708C70.3733 64.0087 71.0013 64.3461 72.3803 64.3461C78.0874 64.3191 83.7808 64.2516 89.4878 64.1842C100.957 64.0492 112.425 63.8468 123.908 63.577C129.445 63.4491 134.851 62.5509 140.517 63.4153Z" fill="#C0C8E5"/>
<path d="M113.518 63.7129H97.5698C95.3607 63.7129 93.5698 65.5038 93.5698 67.7129V75.5272C93.5698 77.7363 95.3607 79.5272 97.5698 79.5272H113.518C115.727 79.5272 117.518 77.7363 117.518 75.5272V67.7129C117.518 65.5038 115.727 63.7129 113.518 63.7129Z" fill="white"/>
<path d="M143.514 72.4702C143.438 70.5999 143.388 68.9517 143.383 67.2508C143.379 65.3994 142.039 63.783 140.249 63.3073V63.3073C138.229 62.7701 136.307 64.1722 136.155 66.2572C135.918 69.4989 135.748 72.7416 135.642 75.9879C135.578 77.9378 136.969 79.632 138.919 79.5709C139.816 79.5428 140.713 79.4731 141.602 79.4193C142.244 79.3788 143.623 79.6622 143.773 78.9335C143.964 78.0295 143.691 76.8151 143.65 75.884C143.609 74.7506 143.568 73.6036 143.514 72.4702Z" fill="white"/>
<path d="M93.5845 64.0771C93.721 69.7579 93.7074 74.1432 93.8575 79.824C93.8712 79.689 93.8985 79.5676 93.9121 79.4327" stroke="black" stroke-width="0.670848" stroke-miterlimit="10" stroke-linecap="round" stroke-linejoin="round"/>
<path d="M117.368 63.416C117.436 69.1642 117.505 74.1163 117.573 79.8645" stroke="black" stroke-width="0.670848" stroke-miterlimit="10" stroke-linecap="round" stroke-linejoin="round"/>
<path d="M117.613 67.3964C126.433 67.3425 127.13 67.4638 135.95 67.7063" stroke="black" stroke-width="0.670848" stroke-miterlimit="10" stroke-linecap="round" stroke-linejoin="round"/>
<path d="M117.695 72.5365C126.255 72.4961 127.361 72.9272 135.895 72.3613" stroke="black" stroke-width="0.670848" stroke-miterlimit="10" stroke-linecap="round" stroke-linejoin="round"/>
<path d="M118.323 76.3543C126.556 76.3409 127.539 76.1388 135.758 75.748" stroke="black" stroke-width="0.670848" stroke-miterlimit="10" stroke-linecap="round" stroke-linejoin="round"/>
<path d="M70.7417 68.571C73.0901 68.625 73.8683 68.3551 76.2167 68.4226C81.9374 68.5575 87.5762 67.9099 93.3924 67.5186" stroke="black" stroke-width="0.670848" stroke-miterlimit="10" stroke-linecap="round" stroke-linejoin="round"/>
<path d="M70.5508 72.1456C77.3774 72.4559 82.4974 72.1186 89.3923 71.8217C90.8122 71.7543 92.2048 71.4709 93.6248 71.4979" stroke="black" stroke-width="0.670848" stroke-miterlimit="10" stroke-linecap="round" stroke-linejoin="round"/>
<path d="M93.392 76.4639C85.4049 76.9219 79.1517 77.0567 71.1646 76.8411" stroke="black" stroke-width="0.670848" stroke-miterlimit="10" stroke-linecap="round" stroke-linejoin="round"/>
<path d="M143.651 80.0931C143.541 76.1261 143.473 72.1455 143.323 68.1784C143.29 67.3693 143.316 66.4318 143.336 65.5833C143.36 64.5879 142.831 63.8543 141.853 63.6665C140.237 63.3562 137.777 62.9669 136.859 62.8237C136.615 62.7858 136.377 62.7715 136.131 62.7795C133.712 62.8581 119.947 63.3023 115.197 63.3883C110.596 63.4692 105.995 63.5637 101.394 63.6446C92.3648 63.808 83.3359 63.9813 74.307 64.1474C72.0037 64.1897 70.2116 66.1638 70.3892 68.4606C70.6273 71.5387 70.842 74.3488 71.0918 77.5615C71.1952 78.8915 72.2894 79.9275 73.6231 79.9582V79.9582" stroke="black" stroke-width="0.670848" stroke-miterlimit="10" stroke-linecap="round" stroke-linejoin="round"/>
<path d="M136.428 62.458C136.032 67.8419 135.841 73.2527 135.868 78.6501" stroke="black" stroke-width="0.670848" stroke-miterlimit="10" stroke-linecap="round" stroke-linejoin="round"/>
<path d="M136.018 67.5449C138.448 67.9362 140.892 68.3275 143.309 68.7458" stroke="black" stroke-width="0.670848" stroke-miterlimit="10" stroke-linecap="round" stroke-linejoin="round"/>
<path d="M135.95 72.4434C138.394 72.6323 140.824 72.9021 143.241 73.253" stroke="black" stroke-width="0.670848" stroke-miterlimit="10" stroke-linecap="round" stroke-linejoin="round"/>
<path d="M135.978 75.8701C138.476 76.4099 141.029 76.7202 143.582 76.8147" stroke="black" stroke-width="0.670848" stroke-miterlimit="10" stroke-linecap="round" stroke-linejoin="round"/>
<path d="M106.882 69.0682C106.254 68.7309 105.503 68.5689 104.821 68.7578C104.138 68.9468 103.524 69.5 103.414 70.1881C103.387 70.3771 103.387 70.5795 103.469 70.7414C103.633 71.0652 104.029 71.2002 104.397 71.2811C105.094 71.4295 105.804 71.5105 106.473 71.7264C106.759 71.8208 107.046 71.9423 107.237 72.1852C107.401 72.4011 107.469 72.6709 107.469 72.9408C107.469 73.2511 107.374 73.575 107.183 73.8179C106.91 74.1687 106.459 74.3576 106.008 74.3981C105.558 74.4386 105.107 74.3306 104.684 74.1822C104.179 74.0068 103.687 73.7639 103.25 73.4805" stroke="black" stroke-width="0.670848" stroke-miterlimit="10" stroke-linecap="round" stroke-linejoin="round"/>
<path d="M105.23 67.1934C105.299 67.8545 105.271 68.5292 105.271 69.2039C105.271 71.3223 105.613 73.4408 105.585 75.5593" stroke="black" stroke-width="0.670848" stroke-miterlimit="10" stroke-linecap="round" stroke-linejoin="round"/>
<path d="M191.506 63.4153C193.179 63.6704 194.379 65.1074 194.474 66.7969C194.641 69.7399 194.646 72.4936 194.522 75.4094C194.434 77.464 192.745 79.0692 190.689 79.1234C167.852 79.7244 145.004 80.1915 122.168 80.5247C122.113 80.5247 121.717 71.6055 121.676 70.7959C121.594 69.1497 121.485 67.517 121.43 65.8708C121.362 64.0087 121.99 64.3461 123.369 64.3461C129.076 64.3191 134.77 64.2516 140.477 64.1842C151.945 64.0492 163.414 63.8468 174.896 63.577C180.434 63.4491 185.84 62.5509 191.506 63.4153Z" fill="#C0C8E5"/>
<path d="M164.506 63.7129H148.559C146.349 63.7129 144.559 65.5038 144.559 67.7129V75.5272C144.559 77.7363 146.349 79.5272 148.559 79.5272H164.506C166.716 79.5272 168.506 77.7363 168.506 75.5272V67.7129C168.506 65.5038 166.716 63.7129 164.506 63.7129Z" fill="white"/>
<g style="mix-blend-mode:multiply">
<path d="M194.502 72.4702C194.426 70.5999 194.376 68.9517 194.372 67.2508C194.367 65.3994 193.027 63.783 191.238 63.3073V63.3073C189.217 62.7701 187.295 64.1722 187.143 66.2572C186.907 69.4989 186.736 72.7416 186.63 75.9879C186.566 77.9378 187.957 79.632 189.907 79.5709C190.804 79.5428 191.701 79.4731 192.59 79.4193C193.232 79.3788 194.611 79.6622 194.761 78.9335C194.952 78.0295 194.679 76.8151 194.638 75.884C194.597 74.7506 194.556 73.6036 194.502 72.4702Z" fill="#5465A3"/>
</g>
<path d="M144.573 64.0771C144.71 69.7579 144.696 74.1432 144.846 79.824C144.86 79.689 144.887 79.5676 144.901 79.4327" stroke="black" stroke-width="0.670848" stroke-miterlimit="10" stroke-linecap="round" stroke-linejoin="round"/>
<path d="M168.356 63.416C168.425 69.1642 168.493 74.1163 168.561 79.8645" stroke="black" stroke-width="0.670848" stroke-miterlimit="10" stroke-linecap="round" stroke-linejoin="round"/>
<path d="M168.603 67.3964C177.423 67.3425 178.119 67.4638 186.939 67.7063" stroke="black" stroke-width="0.670848" stroke-miterlimit="10" stroke-linecap="round" stroke-linejoin="round"/>
<path d="M168.684 72.5365C177.244 72.4961 178.35 72.9272 186.883 72.3613" stroke="black" stroke-width="0.670848" stroke-miterlimit="10" stroke-linecap="round" stroke-linejoin="round"/>
<path d="M169.312 76.3543C177.544 76.3409 178.527 76.1388 186.747 75.748" stroke="black" stroke-width="0.670848" stroke-miterlimit="10" stroke-linecap="round" stroke-linejoin="round"/>
<path d="M121.73 68.571C124.079 68.625 124.857 68.3551 127.205 68.4226C132.926 68.5575 138.565 67.9099 144.381 67.5186" stroke="black" stroke-width="0.670848" stroke-miterlimit="10" stroke-linecap="round" stroke-linejoin="round"/>
<path d="M121.54 72.1456C128.366 72.4559 133.486 72.1186 140.381 71.8217C141.801 71.7543 143.194 71.4709 144.614 71.4979" stroke="black" stroke-width="0.670848" stroke-miterlimit="10" stroke-linecap="round" stroke-linejoin="round"/>
<path d="M144.381 76.4639C136.394 76.9219 130.14 77.0567 122.153 76.8411" stroke="black" stroke-width="0.670848" stroke-miterlimit="10" stroke-linecap="round" stroke-linejoin="round"/>
<path d="M194.639 80.0931C194.53 76.1261 194.462 72.1455 194.312 68.1784C194.279 67.3693 194.305 66.4318 194.325 65.5833C194.348 64.5879 193.82 63.8543 192.842 63.6665C191.226 63.3562 188.766 62.9669 187.848 62.8237C187.604 62.7858 187.366 62.7715 187.12 62.7795C184.701 62.8581 170.936 63.3023 166.186 63.3883C161.585 63.4692 156.984 63.5637 152.383 63.6446C143.354 63.808 134.325 63.9813 125.296 64.1474C122.992 64.1897 121.2 66.1638 121.378 68.4606C121.616 71.5387 121.831 74.3488 122.081 77.5615C122.184 78.8915 123.278 79.9275 124.612 79.9582V79.9582" stroke="black" stroke-width="0.670848" stroke-miterlimit="10" stroke-linecap="round" stroke-linejoin="round"/>
<path d="M187.417 62.458C187.021 67.8419 186.83 73.2527 186.857 78.6501" stroke="black" stroke-width="0.670848" stroke-miterlimit="10" stroke-linecap="round" stroke-linejoin="round"/>
<path d="M187.007 67.5449C189.437 67.9362 191.881 68.3275 194.298 68.7458" stroke="black" stroke-width="0.670848" stroke-miterlimit="10" stroke-linecap="round" stroke-linejoin="round"/>
<path d="M186.939 72.4434C189.383 72.6323 191.814 72.9021 194.23 73.253" stroke="black" stroke-width="0.670848" stroke-miterlimit="10" stroke-linecap="round" stroke-linejoin="round"/>
<path d="M186.967 75.8701C189.465 76.4099 192.019 76.7202 194.572 76.8147" stroke="black" stroke-width="0.670848" stroke-miterlimit="10" stroke-linecap="round" stroke-linejoin="round"/>
<path d="M157.871 69.0682C157.243 68.7309 156.492 68.5689 155.809 68.7578C155.127 68.9468 154.512 69.5 154.403 70.1881C154.376 70.3771 154.376 70.5795 154.458 70.7414C154.622 71.0652 155.017 71.2002 155.386 71.2811C156.082 71.4295 156.792 71.5105 157.461 71.7264C157.748 71.8208 158.035 71.9423 158.226 72.1852C158.39 72.4011 158.458 72.6709 158.458 72.9408C158.458 73.2511 158.363 73.575 158.171 73.8179C157.898 74.1687 157.448 74.3576 156.997 74.3981C156.547 74.4386 156.096 74.3306 155.673 74.1822C155.168 74.0068 154.676 73.7639 154.239 73.4805" stroke="black" stroke-width="0.670848" stroke-miterlimit="10" stroke-linecap="round" stroke-linejoin="round"/>
<path d="M156.219 67.1934C156.287 67.8545 156.26 68.5292 156.26 69.2039C156.26 71.3223 156.601 73.4408 156.574 75.5593" stroke="black" stroke-width="0.670848" stroke-miterlimit="10" stroke-linecap="round" stroke-linejoin="round"/>
<path d="M141.169 80.2309C143.051 80.3855 144.506 81.9191 144.566 83.8068C144.688 87.6 144.53 91.4008 144.305 95.1995C144.183 97.2581 142.502 98.8782 140.44 98.9241C116.879 99.4487 92.7717 98.2959 69.2696 98.6809C69.2149 98.6809 69.8293 89.3165 69.7884 88.3854C69.7065 86.5098 69.5972 84.6208 69.5426 82.7452C69.4744 80.6132 70.1297 81.0045 71.536 80.991C77.3932 80.964 83.2505 80.8831 89.1077 80.8156C100.89 80.6537 112.687 80.4243 124.47 80.114C130.013 79.9668 135.584 79.7722 141.169 80.2309Z" fill="#C0C8E5"/>
<path d="M115.304 94.8895C115.253 97.07 113.465 98.8078 111.284 98.7959L96.8217 98.7173C94.6338 98.7054 92.8614 96.9379 92.8436 94.75L92.7583 84.2951C92.7402 82.0843 94.5191 80.2782 96.7299 80.2625L111.526 80.158C113.783 80.1421 115.606 81.9952 115.553 84.2514L115.304 94.8895Z" fill="white"/>
<path d="M144.39 90.9496C144.305 88.5475 144.213 86.1454 144.196 83.7478C144.184 81.931 142.869 80.3705 141.076 80.0776V80.0776C138.978 79.7349 137.004 81.235 136.861 83.3564C136.589 87.4215 136.396 91.495 136.284 95.5704C136.232 97.486 137.58 99.1616 139.496 99.1069C140.474 99.0789 141.453 98.9948 142.424 98.9377C143.079 98.8972 144.499 99.2211 144.663 98.3845C144.854 97.359 144.567 95.9422 144.54 94.8897C144.499 93.5673 144.444 92.2585 144.39 90.9496Z" fill="white"/>
<path d="M92.7805 80.7627C92.8761 85.6878 92.8624 90.6129 92.8351 95.538C92.8351 96.6579 92.8215 97.7779 92.8215 98.9113C92.8215 99.0058 92.7396 99.1002 92.7805 99.1812C92.8215 99.2622 92.8624 99.0732 92.8215 99.1407" stroke="black" stroke-width="0.670848" stroke-miterlimit="10" stroke-linecap="round" stroke-linejoin="round"/>
<path d="M115.636 80.8438C115.144 87.0102 114.939 93.1902 115.049 99.3702" stroke="black" stroke-width="0.670848" stroke-miterlimit="10" stroke-linecap="round" stroke-linejoin="round"/>
<path d="M92.5624 85.2823C90.4461 85.215 76.2468 84.8647 69.2153 85.1207" stroke="black" stroke-width="0.670848" stroke-miterlimit="10" stroke-linecap="round" stroke-linejoin="round"/>
<path d="M69.6377 90.126C75.0853 91.3924 80.1507 90.0047 85.6666 90.2472C89.3939 90.4089 88.9024 90.1529 92.5615 90.4089" stroke="black" stroke-width="0.670848" stroke-miterlimit="10" stroke-linecap="round" stroke-linejoin="round"/>
<path d="M92.7397 95.5638C86.3363 96.224 83.8924 95.227 77.4754 95.3482C74.499 95.4021 72.451 95.6581 69.4609 95.5503" stroke="black" stroke-width="0.670848" stroke-miterlimit="10" stroke-linecap="round" stroke-linejoin="round"/>
<path d="M115.349 94.594C127.064 94.4323 124.688 94.7691 136.402 94.6075" stroke="black" stroke-width="0.670848" stroke-miterlimit="10" stroke-linecap="round" stroke-linejoin="round"/>
<path d="M116.114 89.4258C127.405 89.6952 125.057 89.9378 136.348 89.7087" stroke="black" stroke-width="0.670848" stroke-miterlimit="10" stroke-linecap="round" stroke-linejoin="round"/>
<path d="M116.114 85.5525C126.941 85.7141 125.835 85.8623 136.621 85.3369" stroke="black" stroke-width="0.670848" stroke-miterlimit="10" stroke-linecap="round" stroke-linejoin="round"/>
<path d="M143.912 99.033C144.136 93.8234 144.305 89.1216 144.366 84.095C144.39 82.1469 142.987 80.4722 141.054 80.235C139.825 80.0842 138.573 79.9575 137.318 79.8454C116.113 79.6424 94.8836 80.9779 73.6757 80.5107C71.4468 80.4615 69.5876 82.221 69.5419 84.45C69.4467 89.0912 69.3515 93.7342 69.2563 98.3853" stroke="black" stroke-width="0.670848" stroke-miterlimit="10" stroke-linecap="round" stroke-linejoin="round"/>
<path d="M136.784 80.1289C136.456 86.3224 136.361 92.5159 136.47 98.7093C136.47 98.5339 136.456 98.372 136.456 98.1966" stroke="black" stroke-width="0.670848" stroke-miterlimit="10" stroke-linecap="round" stroke-linejoin="round"/>
<path d="M136.689 85.1348C139.174 85.4991 141.659 85.8769 144.144 86.2412" stroke="black" stroke-width="0.670848" stroke-miterlimit="10" stroke-linecap="round" stroke-linejoin="round"/>
<path d="M136.621 89.6812C139.01 89.5195 141.427 89.6812 143.761 90.1393" stroke="black" stroke-width="0.670848" stroke-miterlimit="10" stroke-linecap="round" stroke-linejoin="round"/>
<path d="M136.553 94.5938C138.874 94.5938 141.195 94.7554 143.503 95.0518" stroke="black" stroke-width="0.670848" stroke-miterlimit="10" stroke-linecap="round" stroke-linejoin="round"/>
<path d="M105.477 86.9276C104.849 86.5902 104.098 86.4283 103.415 86.6172C102.733 86.8061 102.118 87.3594 102.009 88.0475C101.982 88.2364 101.982 88.4388 102.064 88.6008C102.228 88.9246 102.623 89.0595 102.992 89.1405C103.688 89.2889 104.398 89.3699 105.067 89.5858C105.354 89.6802 105.641 89.8017 105.832 90.0445C105.996 90.2604 106.064 90.5303 106.064 90.8002C106.064 91.1105 105.968 91.4344 105.777 91.6773C105.504 92.0281 105.054 92.217 104.603 92.2575C104.153 92.2979 103.702 92.19 103.279 92.0416C102.774 91.8662 102.282 91.6233 101.845 91.3399" stroke="black" stroke-width="0.670848" stroke-miterlimit="10" stroke-linecap="round" stroke-linejoin="round"/>
<path d="M103.825 85.0527C103.893 85.7139 103.866 86.3886 103.866 87.0632C103.866 89.1817 104.207 91.3002 104.18 93.4186" stroke="black" stroke-width="0.670848" stroke-miterlimit="10" stroke-linecap="round" stroke-linejoin="round"/>
<path d="M193.002 80.3432C194.884 80.4978 196.339 82.0314 196.399 83.9191C196.521 87.7123 196.363 91.5131 196.138 95.3118C196.016 97.3704 194.335 98.9905 192.273 99.0364C168.712 99.5609 144.605 98.4082 121.103 98.7932C121.048 98.7932 121.662 89.4288 121.621 88.4977C121.539 86.6221 121.43 84.7331 121.376 82.8575C121.307 80.7255 121.963 81.1168 123.369 81.1033C129.226 81.0763 135.083 80.9954 140.941 80.9279C152.723 80.766 164.52 80.5366 176.303 80.2263C181.846 80.0791 187.417 79.8845 193.002 80.3432Z" fill="#C0C8E5"/>
<path d="M167.137 95.0008C167.086 97.1814 165.298 98.9191 163.117 98.9073L148.655 98.8286C146.467 98.8167 144.694 97.0492 144.677 94.8613L144.591 84.4064C144.573 82.1956 146.352 80.3895 148.563 80.3739L163.359 80.2694C165.616 80.2534 167.439 82.1065 167.386 84.3627L167.137 95.0008Z" fill="white"/>
<g style="mix-blend-mode:multiply">
<path d="M196.222 91.0619C196.137 88.6598 196.045 86.2577 196.029 83.8601C196.016 82.0433 194.702 80.4828 192.908 80.1899V80.1899C190.81 79.8472 188.836 81.3473 188.694 83.4687C188.421 87.5338 188.229 91.6073 188.117 95.6827C188.064 97.5983 189.413 99.2739 191.328 99.2192C192.307 99.1912 193.286 99.1071 194.256 99.05C194.912 99.0095 196.331 99.3334 196.495 98.4968C196.686 97.4713 196.4 96.0545 196.372 95.002C196.331 93.6796 196.277 92.3708 196.222 91.0619Z" fill="#5465A3"/>
</g>
<path d="M144.614 80.874C144.709 85.7991 144.695 90.7242 144.668 95.6493C144.668 96.7692 144.654 97.8892 144.654 99.0226C144.654 99.1171 144.573 99.2116 144.614 99.2925C144.654 99.3735 144.695 99.1846 144.654 99.252" stroke="black" stroke-width="0.670848" stroke-miterlimit="10" stroke-linecap="round" stroke-linejoin="round"/>
<path d="M167.468 80.9551C166.977 87.1216 166.772 93.3015 166.881 99.4815" stroke="black" stroke-width="0.670848" stroke-miterlimit="10" stroke-linecap="round" stroke-linejoin="round"/>
<path d="M144.395 85.3946C142.279 85.3273 128.08 84.977 121.048 85.233" stroke="black" stroke-width="0.670848" stroke-miterlimit="10" stroke-linecap="round" stroke-linejoin="round"/>
<path d="M121.471 90.2383C126.918 91.5047 131.984 90.117 137.5 90.3595C141.227 90.5212 140.735 90.2652 144.395 90.5212" stroke="black" stroke-width="0.670848" stroke-miterlimit="10" stroke-linecap="round" stroke-linejoin="round"/>
<path d="M144.573 95.6761C138.169 96.3363 135.725 95.3393 129.308 95.4606C126.332 95.5144 124.284 95.7704 121.294 95.6626" stroke="black" stroke-width="0.670848" stroke-miterlimit="10" stroke-linecap="round" stroke-linejoin="round"/>
<path d="M167.183 94.7044C178.897 94.5427 176.521 94.8795 188.236 94.7178" stroke="black" stroke-width="0.670848" stroke-miterlimit="10" stroke-linecap="round" stroke-linejoin="round"/>
<path d="M167.946 89.5371C179.238 89.8066 176.889 90.0491 188.18 89.82" stroke="black" stroke-width="0.670848" stroke-miterlimit="10" stroke-linecap="round" stroke-linejoin="round"/>
<path d="M167.946 85.6638C178.773 85.8255 177.667 85.9737 188.453 85.4482" stroke="black" stroke-width="0.670848" stroke-miterlimit="10" stroke-linecap="round" stroke-linejoin="round"/>
<path d="M195.745 99.1443C195.969 93.9347 196.138 89.2329 196.199 84.2064C196.223 82.2583 194.82 80.5835 192.887 80.3463C191.658 80.1956 190.406 80.0689 189.151 79.9567C167.946 79.7537 146.717 81.0893 125.509 80.622C123.28 80.5729 121.421 82.3324 121.375 84.5614C121.28 89.2025 121.185 93.8455 121.089 98.4967" stroke="black" stroke-width="0.670848" stroke-miterlimit="10" stroke-linecap="round" stroke-linejoin="round"/>
<path d="M188.617 80.2402C188.289 86.4337 188.194 92.6272 188.303 98.8207C188.303 98.6453 188.289 98.4833 188.289 98.3079" stroke="black" stroke-width="0.670848" stroke-miterlimit="10" stroke-linecap="round" stroke-linejoin="round"/>
<path d="M188.522 85.2451C191.007 85.6094 193.492 85.9873 195.977 86.3516" stroke="black" stroke-width="0.670848" stroke-miterlimit="10" stroke-linecap="round" stroke-linejoin="round"/>
<path d="M188.453 89.7925C190.842 89.6308 193.259 89.7925 195.594 90.2506" stroke="black" stroke-width="0.670848" stroke-miterlimit="10" stroke-linecap="round" stroke-linejoin="round"/>
<path d="M188.386 94.7051C190.707 94.7051 193.028 94.8668 195.335 95.1632" stroke="black" stroke-width="0.670848" stroke-miterlimit="10" stroke-linecap="round" stroke-linejoin="round"/>
<path d="M157.31 87.0399C156.682 86.7025 155.931 86.5406 155.249 86.7295C154.566 86.9184 153.952 87.4717 153.843 88.1598C153.815 88.3487 153.815 88.5511 153.897 88.7131C154.061 89.0369 154.457 89.1718 154.826 89.2528C155.522 89.4012 156.232 89.4822 156.901 89.6981C157.188 89.7925 157.474 89.914 157.665 90.1568C157.829 90.3727 157.898 90.6426 157.898 90.9125C157.898 91.2228 157.802 91.5467 157.611 91.7895C157.338 92.1404 156.887 92.3293 156.437 92.3698C155.986 92.4102 155.536 92.3023 155.112 92.1539C154.607 91.9785 154.116 91.7356 153.679 91.4522" stroke="black" stroke-width="0.670848" stroke-miterlimit="10" stroke-linecap="round" stroke-linejoin="round"/>
<path d="M155.658 85.165C155.726 85.8262 155.699 86.5009 155.699 87.1756C155.699 89.294 156.041 91.4125 156.013 93.531" stroke="black" stroke-width="0.670848" stroke-miterlimit="10" stroke-linecap="round" stroke-linejoin="round"/>
</svg>
