<svg width="115" height="105" viewBox="0 0 115 105" fill="none" xmlns="http://www.w3.org/2000/svg">
<g style="mix-blend-mode:multiply">
<path d="M113.924 79.6692C114.127 65.3694 113.924 51.0695 113.316 36.7896C88.8294 37.8865 64.2963 38.4051 39.81 37.1486C27.1769 36.4904 14.4347 35.3736 1.92642 37.8666C0.897063 49.9726 0.725505 62.1983 1.41174 74.3442C1.50532 76.0394 1.1778 79.4698 2.69065 80.3274C3.51726 80.7861 4.65579 80.5467 5.52919 80.5467C6.7613 80.5667 7.99341 80.5667 9.22552 80.5866C14.0292 80.6265 18.8173 80.6664 23.621 80.6863C33.2751 80.7262 42.9293 80.7262 52.5834 80.6664C62.2376 80.6066 71.8918 80.5069 81.5459 80.3473C91.2001 80.1877 100.854 79.9883 110.508 79.749C110.805 79.749 113.924 79.6891 113.924 79.6692Z" fill="#C0C8E5"/>
</g>
<g style="mix-blend-mode:multiply">
<path d="M1 59.8291C38.6719 60.9469 76.3438 60.7416 114 59.1904" stroke="black" stroke-width="0.3" stroke-miterlimit="10" stroke-linecap="round" stroke-linejoin="round"/>
</g>
<path d="M1 95.5117C29.8446 95.5117 89.9271 95.5117 99.5011 95.5117C109.075 95.5117 113.156 95.5117 114 95.5117" stroke="black" stroke-width="0.3" stroke-miterlimit="10" stroke-linecap="round" stroke-linejoin="round"/>
<path d="M90.7766 38.2734C90.0322 51.9666 89.6012 66.267 90.2281 79.9602" stroke="black" stroke-width="0.3" stroke-miterlimit="10" stroke-linecap="round" stroke-linejoin="round"/>
<path d="M59.2363 38.6455C59.8828 49.7528 58.394 60.8602 58.5115 71.9871C58.5311 74.808 58.6682 77.6289 58.5703 80.4694" stroke="black" stroke-width="0.3" stroke-miterlimit="10" stroke-linecap="round" stroke-linejoin="round"/>
<path d="M27.7773 37.6064C28.3259 44.933 27.9145 52.2987 27.8753 59.6448C27.8361 66.6187 28.1104 73.5926 28.4042 80.547C28.3258 80.3902 28.2475 80.2335 28.1887 80.0964" stroke="black" stroke-width="0.3" stroke-miterlimit="10" stroke-linecap="round" stroke-linejoin="round"/>
<g clip-path="url(#clip0)">
<path d="M49.4033 9.51054C49.4033 9.92017 49.4033 10.3298 49.3881 10.7394C50.0253 10.7394 50.6322 11.1946 50.8294 11.7862C50.9053 12.0138 50.9205 12.2717 50.9356 12.5145C51.0267 13.9558 50.9811 15.397 50.8143 16.8383C50.7536 17.3997 50.6625 17.9762 50.4653 18.5072C50.3743 18.7499 50.2681 18.9775 50.086 19.1595C49.8888 19.3568 49.6309 19.4933 49.373 19.5843C48.933 19.7512 48.4627 19.8574 48.0076 19.7816C47.7496 19.736 47.5069 19.6298 47.3097 19.463C47.1276 19.2961 46.9911 19.0837 46.8697 18.8713C46.4601 18.0672 46.369 17.1417 46.3387 16.2466C46.2932 14.9571 46.3539 13.6675 46.5359 12.3779C46.5814 12.1048 46.627 11.8166 46.7635 11.5738C47.0062 11.1642 47.4766 10.967 47.9165 10.7849C47.9469 10.7698 47.7952 9.70777 47.9772 9.52571C48.1138 9.38917 48.3868 9.44986 48.5537 9.46503C48.842 9.4802 49.1151 9.49537 49.4033 9.51054Z" fill="white"/>
<path d="M47.8715 12.1036C47.7046 13.4842 47.735 14.8951 47.9626 16.2605C47.9929 16.4123 48.0232 16.564 48.1294 16.6853C48.2053 16.7612 48.3115 16.8219 48.4329 16.8219C48.7666 16.8674 49.0852 16.6247 49.237 16.3212C49.3887 16.0178 49.4038 15.6689 49.419 15.3351C49.4494 14.2427 49.4342 13.1504 49.3432 12.0732" stroke="black" stroke-width="0.4" stroke-miterlimit="10" stroke-linecap="round" stroke-linejoin="round"/>
<path d="M50.8577 12.1655C50.9184 11.5738 50.5088 10.9518 49.9171 10.8001C49.7957 10.7697 49.644 10.7546 49.553 10.6635C49.4771 10.5877 49.4468 10.4967 49.4316 10.3905C49.3709 10.1325 49.3254 9.87463 49.3102 9.60155C49.3102 9.51052 49.2951 9.40432 49.2192 9.35881C49.1737 9.32846 49.1282 9.32846 49.0827 9.32846C48.7186 9.31329 48.3544 9.37398 48.0207 9.49535C47.9752 9.51052 47.9296 9.52569 47.8993 9.55603C47.8386 9.61672 47.8386 9.69258 47.8386 9.76843C47.8234 9.996 47.8234 10.2387 47.8386 10.4663C47.8386 10.527 47.8386 10.5877 47.8234 10.6484C47.7779 10.7394 47.6717 10.7849 47.5807 10.8304C47.2773 10.967 47.0194 11.1794 46.8221 11.4525C46.7159 11.6193 46.3973 12.12 46.6704 12.1959C46.8221 12.2414 47.0801 12.1807 47.2469 12.1807C47.4745 12.1807 47.7021 12.1807 47.9296 12.1807C48.3848 12.1807 48.8551 12.1655 49.3102 12.1655C49.8261 12.1655 50.3419 12.1655 50.8577 12.1655Z" fill="black"/>
<path d="M48.6624 9.41901C48.5714 3.63872 48.4804 -2.15675 48.9052 -7.92188" stroke="black" stroke-width="0.4" stroke-miterlimit="10" stroke-linecap="round" stroke-linejoin="round"/>
<path d="M62.4365 7.15214C62.4365 7.56177 62.4365 7.9714 62.4213 8.38102C63.0585 8.38102 63.6654 8.83616 63.8626 9.42785C63.9385 9.65542 63.9537 9.91333 63.9688 10.1561C64.0599 11.5974 64.0143 13.0386 63.8475 14.4799C63.7868 15.0413 63.6958 15.6178 63.4985 16.1488C63.4075 16.3915 63.3013 16.6191 63.1192 16.8011C62.922 16.9984 62.6641 17.1349 62.4062 17.2259C61.9662 17.3928 61.4959 17.499 61.0408 17.4232C60.7828 17.3776 60.5401 17.2715 60.3429 17.1046C60.1608 16.9377 60.0243 16.7253 59.9029 16.5129C59.4933 15.7088 59.4022 14.7833 59.3719 13.8882C59.3264 12.5987 59.3871 11.3091 59.5691 10.0195C59.6147 9.74645 59.6602 9.45819 59.7967 9.21545C60.0395 8.80582 60.5098 8.6086 60.9497 8.42654C60.9801 8.41137 60.8284 7.34937 61.0104 7.16731C61.147 7.03077 61.42 7.09146 61.5869 7.10663C61.8752 7.1218 62.1634 7.13697 62.4365 7.15214Z" fill="white"/>
<path d="M60.9067 9.76179C60.7398 11.1424 60.7702 12.5533 60.9977 13.9187C61.0281 14.0705 61.0584 14.2222 61.1646 14.3435C61.2405 14.4194 61.3467 14.4801 61.468 14.4801C61.8018 14.5256 62.1204 14.2829 62.2721 13.9794C62.4238 13.676 62.439 13.3271 62.4542 12.9933C62.4845 11.901 62.4693 10.8086 62.3783 9.73145" stroke="black" stroke-width="0.4" stroke-miterlimit="10" stroke-linecap="round" stroke-linejoin="round"/>
<path d="M63.8948 9.80809C63.9555 9.2164 63.5459 8.59438 62.9542 8.44266C62.8328 8.41232 62.6811 8.39715 62.5901 8.30612C62.5142 8.23027 62.4839 8.13924 62.4687 8.03304C62.408 7.77512 62.3625 7.51721 62.3473 7.24413C62.3473 7.1531 62.3322 7.0469 62.2563 7.00138C62.2108 6.97104 62.1653 6.97104 62.1198 6.97104C61.7557 6.95587 61.3915 7.01656 61.0578 7.13793C61.0123 7.1531 60.9668 7.16827 60.9364 7.19861C60.8757 7.2593 60.8757 7.33515 60.8757 7.41101C60.8606 7.63858 60.8606 7.88132 60.8757 8.10889C60.8757 8.16958 60.8757 8.23026 60.8606 8.29095C60.815 8.38198 60.7088 8.42749 60.6178 8.47301C60.3144 8.60955 60.0565 8.82195 59.8592 9.09503C59.753 9.26192 59.4345 9.76257 59.7075 9.83843C59.8592 9.88394 60.1172 9.82326 60.284 9.82326C60.5116 9.82326 60.7392 9.82326 60.9667 9.82326C61.4219 9.82326 61.8922 9.80809 62.3473 9.80809C62.8632 9.82326 63.379 9.82326 63.8948 9.80809Z" fill="black"/>
<path d="M61.6956 7.07721C61.6046 1.29692 61.5136 -4.49855 61.9384 -10.2637" stroke="black" stroke-width="0.4" stroke-miterlimit="10" stroke-linecap="round" stroke-linejoin="round"/>
<path d="M57.415 16.1893C57.415 16.5989 57.415 17.0085 57.3999 17.4181C58.0371 17.4181 58.6439 17.8733 58.8411 18.465C58.917 18.6925 58.9322 18.9504 58.9474 19.1932C59.0384 20.6345 58.9929 22.0757 58.826 23.517C58.7653 24.0784 58.6743 24.6549 58.477 25.1859C58.386 25.4286 58.2798 25.6562 58.0977 25.8382C57.9005 26.0355 57.6426 26.172 57.3847 26.263C56.9447 26.4299 56.4744 26.5361 56.0193 26.4603C55.7614 26.4148 55.5186 26.3086 55.3214 26.1417C55.1393 25.9748 55.0028 25.7624 54.8814 25.55C54.4718 24.7459 54.3808 23.8205 54.3504 22.9253C54.3049 21.6358 54.3656 20.3462 54.5476 19.0566C54.5932 18.7836 54.6387 18.4953 54.7752 18.2526C55.018 17.8429 55.4883 17.6457 55.9282 17.4636C55.9586 17.4485 55.8069 16.3865 55.9889 16.2044C56.1255 16.0679 56.3986 16.1286 56.5654 16.1437C56.8537 16.1589 57.1268 16.1741 57.415 16.1893Z" fill="white"/>
<path d="M55.8833 18.7833C55.7164 20.1639 55.7467 21.5748 55.9743 22.9402C56.0046 23.0919 56.035 23.2437 56.1412 23.365C56.217 23.4409 56.3232 23.5016 56.4446 23.5016C56.7784 23.5471 57.097 23.3043 57.2487 23.0009C57.4004 22.6975 57.4156 22.3485 57.4307 22.0148C57.4611 20.9224 57.4459 19.8301 57.3549 18.7529" stroke="black" stroke-width="0.4" stroke-miterlimit="10" stroke-linecap="round" stroke-linejoin="round"/>
<path d="M58.8734 18.8442C58.934 18.2525 58.5244 17.6305 57.9327 17.4788C57.8113 17.4485 57.6596 17.4333 57.5686 17.3423C57.4927 17.2664 57.4624 17.1754 57.4472 17.0692C57.3866 16.8113 57.341 16.5533 57.3259 16.2803C57.3259 16.1892 57.3107 16.083 57.2348 16.0375C57.1893 16.0072 57.1438 16.0072 57.0983 16.0072C56.7342 15.992 56.3701 16.0527 56.0363 16.1741C55.9908 16.1892 55.9453 16.2044 55.9149 16.2347C55.8543 16.2954 55.8542 16.3713 55.8542 16.4471C55.8391 16.6747 55.8391 16.9175 55.8542 17.145C55.8542 17.2057 55.8543 17.2664 55.8391 17.3271C55.7936 17.4181 55.6874 17.4636 55.5963 17.5091C55.2929 17.6457 55.035 17.8581 54.8378 18.1312C54.7316 18.2981 54.413 18.7987 54.6861 18.8746C54.8378 18.9201 55.0957 18.8594 55.2626 18.8594C55.4901 18.8594 55.7177 18.8594 55.9453 18.8594C56.4004 18.8594 56.8707 18.8442 57.3259 18.8442C57.8417 18.8442 58.3575 18.8442 58.8734 18.8442Z" fill="black"/>
<path d="M56.6741 16.0977C56.5831 10.3174 56.4921 4.52196 56.9169 -1.24316" stroke="black" stroke-width="0.4" stroke-miterlimit="10" stroke-linecap="round" stroke-linejoin="round"/>
</g>
<path d="M50.3332 71.1453C50.8832 70.871 54.9667 69.4862 56.9397 68.8281C56.6425 69.4886 59.2335 72.112 59.9639 72.5016C60.5482 72.8132 62.5448 72.3717 63.47 72.112C64.5737 72.4529 66.8592 73.3781 67.1708 74.352C67.5604 75.5694 70.5795 78.5885 71.7482 81.8024C72.6832 84.3735 70.8068 88.847 69.7517 90.7624L68.2421 98.2615L59.9639 99.4302C56.3604 99.2192 48.9587 98.9238 48.1796 99.4302C47.2057 100.063 44.8691 99.8198 42.6771 98.2615C40.485 96.7033 40.1932 90.9572 40.3392 84.2372C40.4853 77.5172 43.5057 75.5694 44.8691 74.0111C46.2326 72.4529 49.6458 71.4881 50.3332 71.1453Z" fill="white"/>
<path d="M68.9015 75.7529C69.6755 77.3887 70.4495 78.9996 71.2235 80.6353C71.3643 80.9575 71.5284 81.2549 71.5519 81.6019C71.5754 81.8993 71.5284 82.1719 71.4581 82.4693C70.8952 85.1459 70.3322 87.8474 69.7459 90.524C69.4409 91.8871 69.1595 93.2502 68.8546 94.5885C68.7138 95.2577 68.5497 95.9516 68.3855 96.6208C68.3151 96.9678 68.2213 98.083 67.9398 98.2813C67.6584 98.4548 66.5326 98.1574 66.2042 98.1326C65.5474 98.083 64.8907 98.0335 64.2574 97.9839C62.8501 97.86 61.4194 97.7608 60.0121 97.6121C57.3852 97.3395 52.932 99.0744 50.4224 98.2813" stroke="black" stroke-width="0.3" stroke-miterlimit="10" stroke-linecap="round" stroke-linejoin="round"/>
<path d="M75.5311 76.4192C78.2802 80.5108 79.3457 85.5615 79.3244 90.4842C79.3031 94.1284 78.6638 97.9004 76.5966 100.905C76.2983 101.331 75.936 101.758 75.4458 101.843C74.8705 101.949 74.3164 101.587 73.8475 101.246C72.9312 100.543 72.0148 99.797 71.4181 98.8167C70.3952 97.0906 70.5231 94.9382 70.587 92.935C70.6722 89.44 70.4591 85.945 69.9051 82.4927C69.7772 81.6616 69.628 80.8092 69.2657 80.042C68.7756 78.9764 67.9445 78.1027 67.156 77.229C65.8986 75.8438 64.7479 74.3733 63.6823 72.839C63.1069 72.0078 62.3611 70.6439 63.2348 69.7489C63.9807 68.9817 65.3019 69.3866 66.197 69.5997C68.6264 70.2177 70.8853 71.5177 72.7394 73.2012C73.8049 74.1602 74.7426 75.2258 75.5311 76.4192Z" fill="white"/>
<path d="M68.6343 79.7852C69.4408 81.3982 70.2473 85.4308 70.2473 87.8503C70.2473 90.2698 70.785 93.2271 71.0538 94.3024" stroke="black" stroke-width="0.3" stroke-miterlimit="10" stroke-linecap="round" stroke-linejoin="round"/>
<path d="M64.107 69.4297C68.1774 70.1756 72.2477 71.923 74.8689 75.141C76.5312 77.1655 77.5115 79.6801 78.1934 82.2161C79.8983 88.5028 79.8343 95.4501 76.8508 101.247" stroke="black" stroke-width="0.3" stroke-miterlimit="10" stroke-linecap="round" stroke-linejoin="round"/>
<path d="M61.6513 69.3004C63.7855 68.9889 65.9197 68.5577 68.0037 67.9826C68.9579 67.7191 69.9622 67.3836 70.6151 66.6648C71.1423 66.0419 71.3432 65.2272 71.7701 64.5563C72.448 63.4781 73.6783 62.7114 74.0801 61.5134C74.4316 60.4592 74.0298 59.2852 74.2558 58.207C74.3814 57.608 74.6576 57.0569 74.758 56.4579C74.9589 55.0682 74.0549 53.7983 73.6532 52.4566C73.1008 50.7075 73.3017 48.6469 72.0965 47.2333C71.2428 46.227 69.8618 45.7957 68.8072 44.9811C68.0791 44.43 67.5267 43.6872 66.7985 43.1362C65.8946 42.4653 64.7647 42.1059 63.6348 42.1538C62.5803 42.1778 61.5257 42.5372 60.4711 42.4653C59.2659 42.3694 58.0858 41.7225 56.9057 41.9142C55.4243 42.1778 54.4953 43.6633 53.0641 44.0466C51.884 44.3821 50.4779 43.9508 49.4735 44.6217C48.4441 45.3165 48.419 46.802 47.5904 47.7125C47.0882 48.2636 46.3098 48.5751 45.8579 49.1741C45.2804 49.9647 45.4059 51.019 45.2302 51.9534C44.9791 53.3191 44.0249 54.5411 44.1505 55.9308C44.2007 56.6735 44.5773 57.3684 44.7531 58.0872C45.0293 59.3091 44.7029 60.6269 45.2302 61.753C45.7323 62.8552 46.9376 63.5261 47.5653 64.5803C48.1428 65.5387 48.2432 66.8565 49.1973 67.4555C50.051 68.0066 51.206 67.743 52.1853 68.0066C52.813 68.1743 53.3654 68.5577 53.9429 68.8212C54.5455 69.0608 55.2987 69.1566 55.826 68.7733" fill="black"/>
<path d="M56.0224 72.5278C54.5364 73.7882 51.4279 77.659 50.2578 79.1996C48.8073 81.0561 46.3042 85.13 45.5629 87.6009" stroke="black" stroke-width="0.3" stroke-miterlimit="10" stroke-linecap="round" stroke-linejoin="round"/>
<path d="M58.0655 66.0742C57.7218 67.9227 57.3782 69.3971 57.0591 71.0916C57.0345 71.2016 57.0345 71.3116 57.0836 71.4216C57.1327 71.5537 57.2309 71.6417 57.3536 71.7077C58.1636 72.2799 59.6364 72.5659 60.6673 72.5219C62.0664 72.4559 63.4409 71.9498 63.49 71.8397C63.5391 71.7297 63.22 67.6146 62.9746 66.1622" fill="white"/>
<path d="M58.0655 66.0742C57.7218 67.9227 57.3782 69.3971 57.0591 71.0916C57.0345 71.2016 57.0345 71.3116 57.0836 71.4216C57.1327 71.5537 57.2309 71.6417 57.3536 71.7077C58.1636 72.2799 59.6364 72.5659 60.6673 72.5219C62.0664 72.4559 63.4409 71.9498 63.49 71.8397C63.5391 71.7297 63.22 67.6146 62.9746 66.1622" stroke="black" stroke-width="0.3" stroke-miterlimit="10" stroke-linecap="round" stroke-linejoin="round"/>
<path d="M65.9528 59.8162C66.487 59.5039 67.2661 59.582 67.7558 59.9528C68.2456 60.3237 68.4236 60.9678 68.2901 61.5143C68.1342 62.1194 67.6223 62.6464 66.9322 62.8025C66.2644 62.9587 65.4631 62.7049 65.1069 62.1779" fill="white"/>
<path d="M65.9528 59.8162C66.487 59.5039 67.2661 59.582 67.7558 59.9528C68.2456 60.3237 68.4236 60.9678 68.2901 61.5143C68.1342 62.1194 67.6223 62.6464 66.9322 62.8025C66.2644 62.9587 65.4631 62.7049 65.1069 62.1779" stroke="black" stroke-width="0.3" stroke-miterlimit="10" stroke-linecap="round" stroke-linejoin="round"/>
<path d="M54.5838 59.8162C54.0496 59.5039 53.2705 59.582 52.7808 59.9528C52.2911 60.3237 52.113 60.9678 52.2465 61.5143C52.4024 62.1194 52.9143 62.6464 53.6044 62.8025C54.2722 62.9587 55.0735 62.7049 55.4297 62.1779" fill="white"/>
<path d="M54.5838 59.8162C54.0496 59.5039 53.2705 59.582 52.7808 59.9528C52.2911 60.3237 52.113 60.9678 52.2465 61.5143C52.4024 62.1194 52.9143 62.6464 53.6044 62.8025C54.2722 62.9587 55.0735 62.7049 55.4297 62.1779" stroke="black" stroke-width="0.3" stroke-miterlimit="10" stroke-linecap="round" stroke-linejoin="round"/>
<path d="M55.9992 69.3008C54.3075 69.7241 51.1658 70.4438 48.6282 71.7139C46.0907 72.9839 43.6351 74.5968 41.758 78.6794C39.8809 82.762 39.612 92.0279 41.1369 95.901C42.6617 99.7741 43.6973 100.264 45.8723 100.518C48.0474 100.772 48.6673 100.491 52.6549 94.1403C56.6425 87.7901 58.0937 78.6991 58.6576 74.5079" stroke="black" stroke-width="0.3" stroke-miterlimit="10" stroke-linecap="round" stroke-linejoin="round"/>
<path d="M55.1757 62.3602C55.9754 64.0815 57.175 65.5645 58.5494 66.7827C58.8743 67.074 59.1992 67.3388 59.574 67.4977C60.2987 67.8155 61.1234 67.7095 61.8231 67.3653C62.5229 67.021 63.1227 66.4649 63.6474 65.8823C65.5217 63.7638 66.7462 60.9567 66.7212 58.0437C66.7212 56.7726 66.4713 55.475 65.8716 54.3363C65.3468 53.3299 64.5721 52.4825 63.7474 51.741C62.9977 51.079 62.173 50.4964 61.2484 50.1786C59.674 49.649 57.8747 50.0462 56.5252 51.079C55.2757 52.0323 54.4011 53.4624 53.9762 55.0248C53.8013 55.6868 53.7513 56.2429 53.9262 56.905C54.1262 57.6994 54.0762 58.4939 54.2011 59.3148C54.426 60.4006 54.7509 61.4069 55.1757 62.3602Z" fill="white" stroke="black" stroke-width="0.3" stroke-miterlimit="10" stroke-linecap="round" stroke-linejoin="round"/>
<path d="M67.0346 58.0102C66.5814 57.7776 66.1282 57.5966 65.6512 57.4674C65.031 57.3122 64.3393 57.2088 63.8861 56.7177C63.5283 56.3041 63.3852 55.7095 63.099 55.2442C62.5742 54.4429 61.6439 54.1068 60.7614 53.8742C59.8788 53.6415 58.9247 53.4606 58.2569 52.8143C58.1137 52.6592 57.9706 52.5041 57.756 52.4782C57.5413 52.4524 57.3505 52.6075 57.1835 52.7626C56.2771 53.6932 55.8716 55.0633 55.0606 56.0973C54.7982 56.4333 54.4643 56.7177 54.0588 56.7177C53.701 56.7177 53.3909 56.4333 53.224 56.0973C53.057 55.7612 53.0093 55.3735 53.0093 54.9857C53.0331 53.7191 53.5102 52.4782 54.2735 51.4959C55.0368 50.5136 56.0147 49.7898 57.0881 49.247C59.0917 48.2647 61.477 47.9544 63.4806 48.9109C64.9833 49.6089 66.1759 50.9789 66.8438 52.6075C67.5117 54.2102 67.6787 56.0456 67.3924 57.8034" fill="black"/>
<path d="M57.6111 66.0896C58.0168 65.6888 59.1006 67.0567 60.0619 67.1068C61.0233 67.1569 61.8415 65.4734 62.6527 65.0725C63.464 64.6716 64.5601 65.2741 65.086 65.5245C65.1942 65.9254 64.8971 66.8248 64.7619 67.2257C64.5727 67.7769 64.3293 68.3281 64.0318 68.8793C63.8696 69.205 63.6803 69.5056 63.4369 69.8063C63.2206 70.0568 62.9232 70.2823 62.6527 70.5078C61.5981 71.4348 60.8951 72.6374 59.6782 73.4141C59.543 73.4893 59.4078 73.5644 59.2726 73.6146C59.0292 73.6897 58.7318 73.6647 58.4614 73.6146C57.8394 73.5394 57.1904 73.364 56.8389 72.9631C56.3251 72.3618 56.2738 72.1363 56.5564 71.3847C56.8389 70.6331 57.0823 69.8815 57.2324 69.2551C57.3825 68.6287 57.2596 66.4404 57.6111 66.0896Z" fill="white" stroke="black" stroke-width="0.3" stroke-miterlimit="10" stroke-linecap="round" stroke-linejoin="round"/>
<path d="M52.4721 98.0778C50.5702 97.7918 48.6519 97.6193 46.7464 97.5527C46.3552 97.5483 45.9747 97.5255 45.6069 97.6084C45.1333 97.7041 44.7094 97.9269 44.2855 98.1497C43.5172 98.5428 42.7382 98.9543 41.9884 99.358C41.9195 99.3921 41.84 99.4446 41.7973 99.5184C41.7519 99.6398 41.8491 99.7698 41.9385 99.8706C42.8782 100.758 44.2192 101.163 45.5142 101.221C46.8091 101.28 48.1027 101.043 49.3779 100.795C50.0155 100.67 50.6346 100.536 51.2226 100.285C51.3312 100.224 52.7843 100.516 52.8823 100.474" fill="white"/>
<path d="M52.4721 98.0778C50.5702 97.7918 48.6519 97.6193 46.7464 97.5527C46.3552 97.5483 45.9747 97.5255 45.6069 97.6084C45.1333 97.7041 44.7094 97.9269 44.2855 98.1497C43.5172 98.5428 42.7382 98.9543 41.9884 99.358C41.9195 99.3921 41.84 99.4446 41.7973 99.5184C41.7519 99.6398 41.8491 99.7698 41.9385 99.8706C42.8782 100.758 44.2192 101.163 45.5142 101.221C46.8091 101.28 48.1027 101.043 49.3779 100.795C50.0155 100.67 50.6346 100.536 51.2226 100.285C51.3312 100.224 52.7843 100.516 52.8823 100.474" stroke="black" stroke-width="0.3" stroke-miterlimit="10" stroke-linecap="round" stroke-linejoin="round"/>
<path d="M76.8182 101.294C70.0593 103.072 60.1011 103.894 53.0532 100.726C52.4971 100.474 52.9975 100.644 52.6747 100.115C52.3501 99.5655 52.4253 98.4326 52.4775 97.7865C59.8793 96.8525 64.9994 95.3722 71.1057 94.4915" fill="white"/>
<path d="M76.8182 101.294C70.0593 103.072 60.1011 103.894 53.0532 100.726C52.4971 100.474 52.9975 100.644 52.6747 100.115C52.3501 99.5655 52.4253 98.4326 52.4775 97.7865C59.8793 96.8525 64.9994 95.3722 71.1057 94.4915" stroke="black" stroke-width="0.3" stroke-miterlimit="10" stroke-linecap="round" stroke-linejoin="round"/>
<defs>
<clipPath id="clip0">
<rect width="24.2143" height="33.631" fill="white" transform="translate(46.3242)"/>
</clipPath>
</defs>
</svg>
