<svg width="115" height="114" viewBox="0 0 115 114" fill="none" xmlns="http://www.w3.org/2000/svg">
<g style="mix-blend-mode:multiply">
<path d="M86.3438 104.486C85.0685 93.2587 86.5989 7.40266 86.3438 1.1285C91.6998 -0.852657 103.687 1.12875 109.553 1.1286C109.553 10.705 110.75 102.835 109.73 104.486C106.737 104.486 90.9346 106.137 86.3438 104.486Z" fill="#C0C8E5"/>
</g>
<path d="M1 104.853C4.65329 104.853 8.6845 104.901 12.2118 104.877C20.4422 104.829 28.6306 104.78 36.861 104.756C45.1334 104.732 53.3638 104.708 61.6362 104.708C69.8666 104.708 78.055 104.708 86.2854 104.732C94.5158 104.756 102.746 104.78 110.977 104.804C111.984 104.804 112.992 104.804 114 104.829" fill="white"/>
<path d="M1 104.853C4.65329 104.853 8.6845 104.901 12.2118 104.877C20.4422 104.829 28.6306 104.78 36.861 104.756C45.1334 104.732 53.3638 104.708 61.6362 104.708C69.8666 104.708 78.055 104.708 86.2854 104.732C94.5158 104.756 102.746 104.78 110.977 104.804C111.984 104.804 112.992 104.804 114 104.829" stroke="black" stroke-width="0.3" stroke-miterlimit="10" stroke-linecap="round" stroke-linejoin="round"/>
<path d="M72.4836 73.8987L63.4637 73.4868C62.4795 73.4425 61.4061 73.3628 60.6851 72.707C59.9125 72.0043 59.7917 70.8642 59.8061 69.8339C59.8173 68.9982 59.8838 68.1641 60.0053 67.3368C60.0757 66.8613 60.1778 66.3594 60.5086 66.0034C60.9672 65.5097 61.7192 65.4323 62.4032 65.3957C69.6914 64.9739 77.1136 64.8655 84.4212 65.1493C85.7065 65.199 86.8694 65.2996 88.1409 65.4895C88.475 65.538 88.8198 65.6028 89.091 65.7985C89.5314 66.1156 89.6629 66.6934 89.7435 67.2202C89.9269 68.4845 89.9571 69.7655 89.8335 71.0367C89.7731 71.69 89.6452 72.3751 89.188 72.8533C88.5732 73.4945 87.5666 73.552 86.6663 73.5657C81.642 73.6442 76.617 74.088 72.4836 73.8987Z" fill="#C0C8E5" stroke="black" stroke-width="0.3" stroke-linecap="round" stroke-linejoin="round"/>
<path d="M90.1201 69.6204C90.9253 69.5915 91.7311 69.6556 92.5208 69.8112C92.7238 69.8336 92.916 69.912 93.0749 70.0371C93.2603 70.2096 93.3052 70.4783 93.3359 70.7263C93.5894 72.824 93.5479 74.9458 93.2128 77.0326C93.1779 77.2515 93.1319 77.4844 92.9755 77.6444C92.8283 77.7696 92.6509 77.8564 92.4599 77.8964C87.1761 79.4408 81.6424 79.9646 76.2549 81.1293C75.9714 81.1906 75.6639 81.2682 75.4901 81.4964C75.3546 81.6753 75.3309 81.9089 75.3119 82.1316L75.0259 85.5156" stroke="black" stroke-width="0.3" stroke-linecap="round" stroke-linejoin="round"/>
<path d="M73.0159 85.6691C74.4244 85.554 75.8393 85.5354 77.2505 85.6135C77.6091 90.2993 77.759 94.9945 77.6999 99.699C77.6729 101.851 77.5983 104.012 77.2196 106.128C77.0546 107.041 76.7939 108.304 76.3343 109.116C75.8747 109.929 75.2404 110.579 74.3248 110.815C73.4093 111.05 72.2989 110.705 71.6558 110.022C71.0128 109.34 70.9188 108.37 70.88 107.461C70.7141 103.586 71.1667 99.714 71.6209 95.8652L72.7583 86.1598C72.7752 85.9577 72.8811 85.6803 73.0159 85.6691Z" fill="white" stroke="black" stroke-width="0.3" stroke-linecap="round" stroke-linejoin="round"/>
<path d="M17.0977 109.645V78.6468C28.0847 78.5307 50.0626 78.3454 50.0776 78.5338C50.0963 78.7692 49.9685 108.719 49.7909 109.645C49.6132 110.57 41.2622 112.999 33.6219 112.999C25.9817 112.999 17.0977 111.495 17.0977 109.645Z" fill="white" stroke="black" stroke-width="0.3" stroke-linejoin="round"/>
<path d="M50.042 78.3999C50.042 79.9468 42.6706 81.2007 33.5776 81.2007C22.6445 81.2007 17.1133 79.9468 17.1133 78.3999C17.1133 76.8531 23.5989 75.6905 33.5776 75.5991C43.5564 75.5078 50.042 76.8531 50.042 78.3999Z" fill="white" stroke="black" stroke-width="0.3"/>
<path d="M50.042 78.3999C50.042 79.9468 42.6706 81.2007 33.5776 81.2007C22.6445 81.2007 17.1133 79.9468 17.1133 78.3999C17.1133 76.8531 23.5989 75.6905 33.5776 75.5991C43.5564 75.5078 50.042 76.8531 50.042 78.3999Z" fill="white" stroke="black" stroke-width="0.3"/>
<path d="M47.7558 78.3982C47.7558 79.0507 41.4086 79.5796 33.5789 79.5796C24.1646 79.5796 19.4019 79.0507 19.4019 78.3982C19.4019 77.7457 24.9864 77.2552 33.5789 77.2167C42.1713 77.1782 47.7558 77.7457 47.7558 78.3982Z" fill="white" stroke="black" stroke-width="0.3"/>
<path d="M24.9995 91.0029C24.9995 91.0029 29.1991 91.9174 33.698 91.9174C38.1968 91.9174 42.1777 91.0029 42.1777 91.0029V97.7701C42.1777 97.7701 37.3187 98.7302 33.698 98.7302C30.0773 98.7302 24.9995 97.7701 24.9995 97.7701V91.0029Z" fill="#5465A3" stroke="black" stroke-width="0.3" stroke-linejoin="round"/>
<g style="mix-blend-mode:multiply">
<path d="M48.7586 79.0594C48.9516 80.1058 48.2859 81.2563 47.3717 81.4658C46.4333 81.6793 45.3296 81.0547 44.568 81.7149C44.2883 81.9574 44.123 82.329 43.9046 82.6374C42.7939 84.232 40.6536 84.0159 38.9004 83.6337C37.1471 83.2515 35.0229 82.9853 33.8661 84.5364C33.0571 85.6276 33.0571 87.2169 32.5728 88.5387C32.5079 88.7518 32.3951 88.9417 32.2458 89.0896C31.7118 89.5456 30.9537 88.8089 30.8589 88.0564C30.7641 87.3039 30.9976 86.5303 30.8762 85.7818C30.7549 85.0332 29.9355 84.3532 29.4466 84.8698C29.2698 85.0557 29.2028 85.3377 29.1554 85.6052C28.6665 88.3911 29.561 91.3708 28.8087 94.0777C28.6804 94.5389 28.4851 95.0094 28.1222 95.2637C27.4218 95.75 26.458 95.1135 26.1575 94.2437C25.857 93.3739 26.0257 92.3987 26.1945 91.4762L26.7527 88.4715C26.9214 87.5635 27.0797 86.562 26.6845 85.7502C26.2892 84.9384 25.0838 84.655 24.7001 85.4734C24.4366 86.0361 24.7001 86.7148 24.7475 87.3514C24.7949 87.9879 24.2725 88.7918 23.8021 88.4465C23.6781 88.3404 23.5834 88.1958 23.5294 88.0301C23.2553 87.346 23.1679 86.5838 23.2786 85.8424C23.3711 85.2309 23.5976 84.6208 23.4912 84.0119C23.3849 83.4031 22.7042 81.84 22.2974 82.2525C22.1622 82.3842 22.0905 82.5977 21.9437 82.719C21.6872 82.9311 21.3301 82.7901 21.04 82.6439C20.1917 82.2156 19.443 80.2077 18.5034 80.0219C18.5034 79.8501 18.2468 79.9192 18.3726 79.4785C23.1176 78.5197 29.8839 78.0373 35.7792 78.0887C38.0271 78.1084 42.6472 78.1391 43.9046 78.2465C45.162 78.3539 47.065 78.5904 48.7586 79.0594Z" fill="#5465A3"/>
</g>
<path d="M24.9995 79.6712L21.7389 70.5017C21.1308 68.7963 20.5228 67.0898 19.7895 65.444C19.6093 65.0386 19.4118 64.6248 19.089 64.343C18.7662 64.0612 18.2825 63.946 17.9327 64.189C17.3459 64.5986 17.5405 65.5676 17.8055 66.2695C19.4821 70.7112 21.0903 75.0333 22.7631 79.4751C22.7804 79.5285 24.8361 79.6712 24.9995 79.6712Z" fill="white" stroke="black" stroke-width="0.3" stroke-linecap="round" stroke-linejoin="round"/>
<g style="mix-blend-mode:multiply">
<path d="M63.2979 73.5047C62.0226 65.5875 63.553 5.04515 63.2979 0.620865C68.6539 -0.776174 80.6411 0.621039 86.5072 0.620935C86.5072 7.37384 87.704 72.3403 86.6838 73.5046C83.6907 73.5046 67.8887 74.669 63.2979 73.5047Z" fill="#C0C8E5"/>
</g>
</svg>
