<svg width="115" height="115" viewBox="0 0 115 115" fill="none" xmlns="http://www.w3.org/2000/svg">
<path d="M1 97.1136C4.65329 97.1136 8.6845 97.1668 12.2118 97.1402C20.4422 97.087 28.6306 97.0339 36.861 97.0073C45.1334 96.9807 53.3638 96.9541 61.6362 96.9541C69.8666 96.9541 78.055 96.9541 86.2854 96.9807C94.5158 97.0073 102.746 97.0339 110.977 97.0604C111.984 97.0604 112.992 97.0604 114 97.087" fill="white"/>
<path d="M1 97.1136C4.65329 97.1136 8.6845 97.1668 12.2118 97.1402C20.4422 97.087 28.6306 97.0339 36.861 97.0073C45.1334 96.9807 53.3638 96.9541 61.6362 96.9541C69.8666 96.9541 78.055 96.9541 86.2854 96.9807C94.5158 97.0073 102.746 97.0339 110.977 97.0604C111.984 97.0604 112.992 97.0604 114 97.087" stroke="black" stroke-width="0.3" stroke-miterlimit="10" stroke-linecap="round" stroke-linejoin="round"/>
<path d="M92.2139 63.604C92.2139 64.8755 92.2139 66.5083 92.2139 67.349C92.2139 68.1896 92.2139 72.2645 92.2139 73.4434C92.2139 74.6224 92.584 76.1338 91.0402 76.6791C89.4963 77.2244 82.3201 77.0053 72.5965 77.0311C60.1344 77.0641 47.9525 77.3215 46.6236 76.6791C45.2947 76.0367 45.6509 72.6222 45.6743 71.2573C45.6978 69.8925 45.5015 67.8428 45.6746 63.8171C45.6809 63.6005 45.6935 63.384 45.6999 63.1675C45.7442 62.1446 45.7884 61.1218 46.0099 60.101C46.1427 59.4947 46.4085 58.8863 49.1986 58.4285C50.0211 58.2945 52.7164 58.3646 53.6338 58.3646C58.0879 58.3604 59.7708 58.3584 64.2249 58.3543C69.2295 58.3501 74.2277 58.346 79.2322 58.3439C81.6618 58.3419 84.1039 58.3275 86.5271 58.3522C88.4378 58.3728 90.0069 58.5564 90.9623 59.1462C91.8037 59.6617 91.8807 60.4055 91.9682 60.8516C92.0558 61.2977 92.2139 62.3326 92.2139 63.604Z" fill="white"/>
<path d="M92.2139 28.8335C92.2139 27.562 92.2139 25.9291 92.2139 25.0885C92.2139 24.2479 92.2139 20.173 92.2139 18.9941C92.2139 17.8151 92.584 16.3037 91.0402 15.7584C89.4963 15.213 82.3201 15.4322 72.5965 15.4064C60.1344 15.3734 47.9525 15.116 46.6236 15.7584C45.2947 16.4008 45.6509 19.8153 45.6743 21.1802C45.6978 22.545 45.5015 24.5947 45.6746 28.6204C45.6809 28.837 45.6935 29.0535 45.6999 29.27C45.7442 30.2929 45.7884 31.3157 46.0099 32.3365C46.1427 32.9428 46.4085 33.5512 49.1986 34.009C50.0211 34.143 52.7164 34.0729 53.6338 34.0729C58.0879 34.0771 59.7708 34.0791 64.2249 34.0832C69.2295 34.0874 74.2277 34.0915 79.2322 34.0936C81.6618 34.0956 84.1039 34.11 86.5271 34.0853C88.4378 34.0647 90.0069 33.8811 90.9623 33.2913C91.8037 32.7758 91.8807 32.032 91.9682 31.5859C92.0558 31.1398 92.2139 30.1049 92.2139 28.8335Z" fill="white"/>
<path d="M45.6372 85.1069C45.6372 86.3784 45.6372 88.0113 45.6372 88.8519C45.6372 89.6925 45.6372 93.7674 45.6372 94.9464C45.6372 96.1253 45.2671 97.6367 46.8109 98.182C48.3548 98.7274 55.531 98.5082 65.2546 98.534C77.7167 98.567 89.8986 98.8245 91.2275 98.182C92.5564 97.5396 92.2002 94.1251 92.1768 92.7602C92.1533 91.3954 92.3496 89.3457 92.1765 85.32C92.1702 85.1035 92.1575 84.8869 92.1512 84.6704C92.1069 83.6475 92.0626 82.6247 91.8412 81.6039C91.7083 80.9976 91.4426 80.3892 88.6524 79.9314C87.83 79.7974 85.1347 79.8675 84.2173 79.8675C79.7632 79.8634 78.0802 79.8613 73.6261 79.8572C68.6216 79.8531 63.6234 79.8489 58.6188 79.8469C56.1893 79.8448 53.7472 79.8304 51.324 79.8551C49.4132 79.8757 47.8442 80.0593 46.8888 80.6491C46.0474 81.1646 45.9704 81.9084 45.8829 82.3545C45.7953 82.8007 45.6372 83.8355 45.6372 85.1069Z" fill="white"/>
<path fill-rule="evenodd" clip-rule="evenodd" d="M42.5424 6.55387C51.2521 6.77731 59.964 6.93566 68.678 7.02894C75.6452 7.10344 82.6139 7.13639 89.584 7.1278C90.1078 7.1278 90.6332 7.13158 91.1591 7.13536L91.1595 7.13537L91.1596 7.13537C92.3772 7.14413 93.5983 7.15292 94.813 7.1149C95.0212 7.10813 95.2256 7.09013 95.4275 7.0649C95.1614 5.86353 94.7105 4.73078 93.9181 3.79044C92.4679 2.0597 90.1204 1.32185 87.8656 1.1141C86.7309 1.00811 85.5918 1.01401 84.4525 1.01991C83.8669 1.02294 83.2812 1.02597 82.696 1.01381C81.3032 0.984472 79.9047 1.00754 78.5042 1.03064C77.6477 1.04477 76.7903 1.05892 75.9329 1.06109L68.7097 1.07828C67.041 1.08187 65.3723 1.094 63.7034 1.10614C60.0369 1.13281 56.3699 1.15947 52.703 1.09548C49.574 1.0396 45.6866 1.00665 43.6446 3.81766C43.0492 4.63649 42.7363 5.57897 42.5424 6.55387ZM42.6719 103.564C51.6955 104.093 60.7311 104.567 69.7703 104.475C72.8196 104.444 75.874 104.349 78.9286 104.254C84.6079 104.077 90.2884 103.901 95.9394 104.136C95.8354 104.597 95.7166 105.056 95.581 105.511C95.1598 106.911 94.3855 108.279 93.1206 109.029C92.3232 109.501 91.3897 109.696 90.4707 109.839C87.6615 110.279 84.8119 110.327 81.9738 110.315C80.6667 110.31 79.3596 110.316 78.0525 110.321C76.5765 110.326 75.1005 110.332 73.6246 110.324C71.3676 110.312 69.1103 110.263 66.853 110.214C64.5956 110.165 62.3382 110.117 60.0811 110.105C59.2621 110.1 58.4401 110.074 57.6162 110.047C56.4411 110.009 55.2622 109.97 54.0822 109.997C53.6949 110.005 53.307 110.016 52.919 110.027C51.0509 110.079 49.1773 110.131 47.3235 109.854C46.2294 109.689 45.0745 109.365 44.3103 108.609C43.5462 107.852 43.2234 106.765 43.0078 105.712C42.8623 105 42.7533 104.284 42.6719 103.564Z" fill="white"/>
<path d="M42.1917 95.8019C42.1917 95.9567 42.1917 96.1114 42.1917 96.2647C42.1628 99.4282 42.1049 102.62 42.7388 105.721C42.9544 106.774 43.2772 107.861 44.0413 108.618C44.8055 109.374 45.9604 109.698 47.0545 109.863C49.2934 110.198 51.5613 110.052 53.8132 110.006C55.8206 109.96 57.825 110.103 59.8121 110.113C64.3261 110.138 68.8416 110.308 73.3556 110.333C76.1387 110.348 78.9217 110.314 81.7048 110.324C84.5429 110.334 87.3926 110.287 90.2017 109.847C91.1207 109.704 92.0542 109.51 92.8531 109.037C94.1165 108.288 94.8908 106.92 95.3134 105.52C96.833 100.417 96.2483 94.8864 96.2006 89.6498L96.1036 79.1135C96.0399 72.0903 95.9758 65.0671 95.9111 58.0438C95.8465 51.0206 95.7823 43.9974 95.7187 36.9741C95.6665 31.1802 95.5609 25.3848 95.5609 19.5909C95.5464 18.0865 95.6608 16.5821 95.6608 15.0706C95.6608 13.5261 95.6226 11.9821 95.5464 10.4386C95.4321 8.09753 95.1658 5.59742 93.6505 3.79935C92.196 2.08008 89.8486 1.33793 87.5879 1.12875C85.87 0.968283 84.142 1.06428 82.4183 1.02846C80.1736 0.981178 77.9144 1.07001 75.6553 1.07574L68.432 1.0915C63.0974 1.10439 57.7613 1.20325 52.4253 1.11012C49.2963 1.05425 45.409 1.02129 43.3669 3.83231C42.3335 5.25214 42.1512 7.04734 41.9645 8.73653C41.7561 10.632 41.6548 12.496 41.6287 14.4044L41.5043 23.2099C41.4522 26.9006 41.6649 30.5942 41.649 34.2863L41.5694 55.2042C41.5694 62.6543 41.5477 70.1174 41.6562 77.5733C41.7083 80.7855 41.772 83.9972 41.8473 87.2084C41.8849 88.8131 41.9259 90.4187 41.9703 92.0253C42.0094 93.2703 42.1671 94.544 42.1917 95.8019Z" fill="white" stroke="#1A150F" stroke-width="0.3" stroke-linecap="round" stroke-linejoin="round"/>
<g clip-path="url(#clip0)">
<rect width="49.2243" height="2.42142" transform="translate(44.6348 9.18066)" fill="white"/>
<path d="M85.0682 9.55636C84.9657 9.68964 84.8952 9.84427 84.862 10.0085C84.8288 10.1728 84.8338 10.3424 84.8767 10.5045C84.9103 10.656 84.989 10.794 85.1027 10.9008C85.1954 10.9747 85.3032 11.0278 85.4187 11.0562C85.6423 11.1235 85.8819 11.1171 86.1016 11.0382C86.3212 10.9592 86.5091 10.8118 86.6369 10.6182C86.7036 10.4963 86.7419 10.3613 86.7492 10.2228C86.7565 10.0844 86.7326 9.94614 86.6791 9.81804C86.3937 9.12024 85.5586 8.9401 85.0682 9.55636Z" fill="#1C1712"/>
<path d="M88.6244 9.55636C88.5215 9.68944 88.4507 9.84407 88.4175 10.0084C88.3843 10.1727 88.3896 10.3424 88.4329 10.5045C88.4665 10.656 88.5452 10.794 88.6589 10.9008C88.7511 10.9743 88.8582 11.0274 88.973 11.0562C89.1969 11.1236 89.4368 11.1174 89.6568 11.0384C89.8767 10.9594 90.0649 10.812 90.1931 10.6182C90.2598 10.4963 90.2981 10.3613 90.3054 10.2228C90.3127 10.0844 90.2887 9.94614 90.2353 9.81804C89.9499 9.12024 89.1147 8.9401 88.6244 9.55636Z" fill="#1C1712"/>
<path d="M92.1796 9.55636C92.0767 9.68944 92.0059 9.84407 91.9727 10.0084C91.9395 10.1727 91.9448 10.3424 91.988 10.5045C92.0217 10.656 92.1004 10.794 92.2141 10.9008C92.3063 10.9743 92.4134 11.0274 92.5282 11.0562C92.7521 11.1236 92.992 11.1174 93.2119 11.0384C93.4319 10.9594 93.6201 10.812 93.7483 10.6182C93.8149 10.4963 93.8533 10.3613 93.8606 10.2228C93.8679 10.0844 93.8439 9.94614 93.7905 9.81804C93.5031 9.12024 92.6795 8.9401 92.1796 9.55636Z" fill="#1C1712"/>
<path d="M45.0166 10.5701L54.383 10.1416" stroke="#1C1712" stroke-width="0.542419" stroke-linecap="round" stroke-linejoin="round"/>
</g>
<path d="M93.8146 50.8839C93.8146 49.4438 93.8146 47.5942 93.8146 46.6421C93.8146 45.69 93.8146 41.0745 93.8146 39.7391C93.8146 38.4037 94.2102 36.6918 92.56 36.0741C90.9098 35.4565 83.2392 35.7047 72.8456 35.6755C59.5248 35.6381 46.5036 35.3465 45.0831 36.0742C43.6626 36.8018 44.0433 40.6693 44.0684 42.2152C44.0935 43.7611 43.8837 46.0827 44.0687 50.6426C44.0754 50.8878 44.089 51.1331 44.0957 51.3783C44.1431 52.5369 44.1904 53.6954 44.4271 54.8517C44.5691 55.5384 44.8532 56.2275 47.8356 56.746C48.7147 56.8978 51.5957 56.8184 52.5763 56.8184C57.3373 56.8231 59.1362 56.8254 63.8972 56.8301C69.2466 56.8348 74.5891 56.8394 79.9385 56.8418C82.5354 56.8441 85.1459 56.8605 87.736 56.8324C89.7784 56.8091 91.4556 56.6012 92.4767 55.9331C93.3762 55.3492 93.4585 54.5068 93.552 54.0014C93.6456 53.4961 93.8146 52.324 93.8146 50.8839Z" fill="white"/>
<path d="M92.2139 63.604C92.2139 64.8755 92.2139 66.5083 92.2139 67.349C92.2139 68.1896 92.2139 72.2645 92.2139 73.4434C92.2139 74.6224 92.584 76.1338 91.0402 76.6791C89.4963 77.2244 82.3201 77.0053 72.5965 77.0311C60.1344 77.0641 47.9525 77.3215 46.6236 76.6791C45.2947 76.0367 45.6509 72.6222 45.6743 71.2573C45.6978 69.8925 45.5015 67.8428 45.6746 63.8171C45.6809 63.6005 45.6935 63.384 45.6999 63.1675C45.7442 62.1446 45.7884 61.1218 46.0099 60.101C46.1427 59.4947 46.4085 58.8863 49.1986 58.4285C50.0211 58.2945 52.7164 58.3646 53.6338 58.3646C58.0879 58.3604 59.7708 58.3584 64.2249 58.3543C69.2295 58.3501 74.2277 58.346 79.2322 58.3439C81.6618 58.3419 84.1039 58.3275 86.5271 58.3522C88.4378 58.3728 90.0069 58.5564 90.9623 59.1462C91.8037 59.6617 91.8807 60.4055 91.9682 60.8516C92.0558 61.2977 92.2139 62.3326 92.2139 63.604Z" fill="#C0C8E5"/>
<path d="M92.2139 28.8335C92.2139 27.562 92.2139 25.9291 92.2139 25.0885C92.2139 24.2479 92.2139 20.173 92.2139 18.9941C92.2139 17.8151 92.584 16.3037 91.0402 15.7584C89.4963 15.213 82.3201 15.4322 72.5965 15.4064C60.1344 15.3734 47.9525 15.116 46.6236 15.7584C45.2947 16.4008 45.6509 19.8153 45.6743 21.1802C45.6978 22.545 45.5015 24.5947 45.6746 28.6204C45.6809 28.837 45.6935 29.0535 45.6999 29.27C45.7442 30.2929 45.7884 31.3157 46.0099 32.3365C46.1427 32.9428 46.4085 33.5512 49.1986 34.009C50.0211 34.143 52.7164 34.0729 53.6338 34.0729C58.0879 34.0771 59.7708 34.0791 64.2249 34.0832C69.2295 34.0874 74.2277 34.0915 79.2322 34.0936C81.6618 34.0956 84.1039 34.11 86.5271 34.0853C88.4378 34.0647 90.0069 33.8811 90.9623 33.2913C91.8037 32.7758 91.8807 32.032 91.9682 31.5859C92.0558 31.1398 92.2139 30.1049 92.2139 28.8335Z" fill="#C0C8E5"/>
<path d="M45.6372 85.1069C45.6372 86.3784 45.6372 88.0113 45.6372 88.8519C45.6372 89.6925 45.6372 93.7674 45.6372 94.9464C45.6372 96.1253 45.2671 97.6367 46.8109 98.182C48.3548 98.7274 55.531 98.5082 65.2546 98.534C77.7167 98.567 89.8986 98.8245 91.2275 98.182C92.5564 97.5396 92.2002 94.1251 92.1768 92.7602C92.1533 91.3954 92.3496 89.3457 92.1765 85.32C92.1702 85.1035 92.1575 84.8869 92.1512 84.6704C92.1069 83.6475 92.0626 82.6247 91.8412 81.6039C91.7083 80.9976 91.4426 80.3892 88.6524 79.9314C87.83 79.7974 85.1347 79.8675 84.2173 79.8675C79.7632 79.8634 78.0802 79.8613 73.6261 79.8572C68.6216 79.8531 63.6234 79.8489 58.6188 79.8469C56.1893 79.8448 53.7472 79.8304 51.324 79.8551C49.4132 79.8757 47.8442 80.0593 46.8888 80.6491C46.0474 81.1646 45.9704 81.9084 45.8829 82.3545C45.7953 82.8007 45.6372 83.8355 45.6372 85.1069Z" fill="#C0C8E5"/>
<path fill-rule="evenodd" clip-rule="evenodd" d="M42.5424 6.55387C51.2521 6.77731 59.964 6.93566 68.678 7.02894C75.6452 7.10344 82.6139 7.13639 89.584 7.1278C90.1078 7.1278 90.6332 7.13158 91.1591 7.13536L91.1595 7.13537L91.1596 7.13537C92.3772 7.14413 93.5983 7.15292 94.813 7.1149C95.0212 7.10813 95.2256 7.09013 95.4275 7.0649C95.1614 5.86353 94.7105 4.73078 93.9181 3.79044C92.4679 2.0597 90.1204 1.32185 87.8656 1.1141C86.7309 1.00811 85.5918 1.01401 84.4525 1.01991C83.8669 1.02294 83.2812 1.02597 82.696 1.01381C81.3032 0.984472 79.9047 1.00754 78.5042 1.03064C77.6477 1.04477 76.7903 1.05892 75.9329 1.06109L68.7097 1.07828C67.041 1.08187 65.3723 1.094 63.7034 1.10614C60.0369 1.13281 56.3699 1.15947 52.703 1.09548C49.574 1.0396 45.6866 1.00665 43.6446 3.81766C43.0492 4.63649 42.7363 5.57897 42.5424 6.55387ZM42.6719 103.564C51.6955 104.093 60.7311 104.567 69.7703 104.475C72.8196 104.444 75.874 104.349 78.9286 104.254C84.6079 104.077 90.2884 103.901 95.9394 104.136C95.8354 104.597 95.7166 105.056 95.581 105.511C95.1598 106.911 94.3855 108.279 93.1206 109.029C92.3232 109.501 91.3897 109.696 90.4707 109.839C87.6615 110.279 84.8119 110.327 81.9738 110.315C80.6667 110.31 79.3596 110.316 78.0525 110.321C76.5765 110.326 75.1005 110.332 73.6246 110.324C71.3676 110.312 69.1103 110.263 66.853 110.214C64.5956 110.165 62.3382 110.117 60.0811 110.105C59.2621 110.1 58.4401 110.074 57.6162 110.047C56.4411 110.009 55.2622 109.97 54.0822 109.997C53.6949 110.005 53.307 110.016 52.919 110.027C51.0509 110.079 49.1773 110.131 47.3235 109.854C46.2294 109.689 45.0745 109.365 44.3103 108.609C43.5462 107.852 43.2234 106.765 43.0078 105.712C42.8623 105 42.7533 104.284 42.6719 103.564Z" fill="#1A150F"/>
<path d="M42.1917 95.8019C42.1917 95.9567 42.1917 96.1114 42.1917 96.2647C42.1628 99.4282 42.1049 102.62 42.7388 105.721C42.9544 106.774 43.2772 107.861 44.0413 108.618C44.8055 109.374 45.9604 109.698 47.0545 109.863C49.2934 110.198 51.5613 110.052 53.8132 110.006C55.8206 109.96 57.825 110.103 59.8121 110.113C64.3261 110.138 68.8416 110.308 73.3556 110.333C76.1387 110.348 78.9217 110.314 81.7048 110.324C84.5429 110.334 87.3926 110.287 90.2017 109.847C91.1207 109.704 92.0542 109.51 92.8531 109.037C94.1165 108.288 94.8908 106.92 95.3134 105.52C96.833 100.417 96.2483 94.8864 96.2006 89.6498L96.1036 79.1135C96.0399 72.0903 95.9758 65.0671 95.9111 58.0438C95.8465 51.0206 95.7823 43.9974 95.7187 36.9741C95.6665 31.1802 95.5609 25.3848 95.5609 19.5909C95.5464 18.0865 95.6608 16.5821 95.6608 15.0706C95.6608 13.5261 95.6226 11.9821 95.5464 10.4386C95.4321 8.09753 95.1658 5.59742 93.6505 3.79935C92.196 2.08008 89.8486 1.33793 87.5879 1.12875C85.87 0.968283 84.142 1.06428 82.4183 1.02846C80.1736 0.981178 77.9144 1.07001 75.6553 1.07574L68.432 1.0915C63.0974 1.10439 57.7613 1.20325 52.4253 1.11012C49.2963 1.05425 45.409 1.02129 43.3669 3.83231C42.3335 5.25214 42.1512 7.04734 41.9645 8.73653C41.7561 10.632 41.6548 12.496 41.6287 14.4044L41.5043 23.2099C41.4522 26.9006 41.6649 30.5942 41.649 34.2863L41.5694 55.2042C41.5694 62.6543 41.5477 70.1174 41.6562 77.5733C41.7083 80.7855 41.772 83.9972 41.8473 87.2084C41.8849 88.8131 41.9259 90.4187 41.9703 92.0253C42.0094 93.2703 42.1671 94.544 42.1917 95.8019Z" stroke="#1A150F" stroke-width="0.3" stroke-linecap="round" stroke-linejoin="round"/>
<g clip-path="url(#clip1)">
<path d="M85.0682 9.55636C84.9657 9.68964 84.8952 9.84427 84.862 10.0085C84.8288 10.1728 84.8338 10.3424 84.8767 10.5045C84.9103 10.656 84.989 10.794 85.1027 10.9008C85.1954 10.9747 85.3032 11.0278 85.4187 11.0562C85.6423 11.1235 85.8819 11.1171 86.1016 11.0382C86.3212 10.9592 86.5091 10.8118 86.6369 10.6182C86.7036 10.4963 86.7419 10.3613 86.7492 10.2228C86.7565 10.0844 86.7326 9.94614 86.6791 9.81804C86.3937 9.12024 85.5586 8.9401 85.0682 9.55636Z" fill="#1C1712"/>
<path d="M88.6244 9.55636C88.5215 9.68944 88.4507 9.84407 88.4175 10.0084C88.3843 10.1727 88.3896 10.3424 88.4329 10.5045C88.4665 10.656 88.5452 10.794 88.6589 10.9008C88.7511 10.9743 88.8582 11.0274 88.973 11.0562C89.1969 11.1236 89.4368 11.1174 89.6568 11.0384C89.8767 10.9594 90.0649 10.812 90.1931 10.6182C90.2598 10.4963 90.2981 10.3613 90.3054 10.2228C90.3127 10.0844 90.2887 9.94614 90.2353 9.81804C89.9499 9.12024 89.1147 8.9401 88.6244 9.55636Z" fill="#1C1712"/>
<path d="M92.1796 9.55636C92.0767 9.68944 92.0059 9.84407 91.9727 10.0084C91.9395 10.1727 91.9448 10.3424 91.988 10.5045C92.0217 10.656 92.1004 10.794 92.2141 10.9008C92.3063 10.9743 92.4134 11.0274 92.5282 11.0562C92.7521 11.1236 92.992 11.1174 93.2119 11.0384C93.4319 10.9594 93.6201 10.812 93.7483 10.6182C93.8149 10.4963 93.8533 10.3613 93.8606 10.2228C93.8679 10.0844 93.8439 9.94614 93.7905 9.81804C93.5031 9.12024 92.6795 8.9401 92.1796 9.55636Z" fill="#1C1712"/>
<path d="M45.0166 10.5701L54.383 10.1416" stroke="#1C1712" stroke-width="0.542419" stroke-linecap="round" stroke-linejoin="round"/>
</g>
<path d="M93.8146 50.8839C93.8146 49.4438 93.8146 47.5942 93.8146 46.6421C93.8146 45.69 93.8146 41.0745 93.8146 39.7391C93.8146 38.4037 94.2102 36.6918 92.56 36.0741C90.9098 35.4565 83.2392 35.7047 72.8456 35.6755C59.5248 35.6381 46.5036 35.3465 45.0831 36.0742C43.6626 36.8018 44.0433 40.6693 44.0684 42.2152C44.0935 43.7611 43.8837 46.0827 44.0687 50.6426C44.0754 50.8878 44.089 51.1331 44.0957 51.3783C44.1431 52.5369 44.1904 53.6954 44.4271 54.8517C44.5691 55.5384 44.8532 56.2275 47.8356 56.746C48.7147 56.8978 51.5957 56.8184 52.5763 56.8184C57.3373 56.8231 59.1362 56.8254 63.8972 56.8301C69.2466 56.8348 74.5891 56.8394 79.9385 56.8418C82.5354 56.8441 85.1459 56.8605 87.736 56.8324C89.7784 56.8091 91.4556 56.6012 92.4767 55.9331C93.3762 55.3492 93.4585 54.5068 93.552 54.0014C93.6456 53.4961 93.8146 52.324 93.8146 50.8839Z" fill="#5465A3"/>
<path d="M23.3481 59.1814C23.3481 59.1814 25.9231 83.0775 26.1322 85.046C26.3413 87.0145 25.9342 92.4324 28.3434 106.089L31.5605 106.25C31.7251 100.35 32.0085 90.0021 32.0468 87.6037C32.1013 84.1983 32.7459 66.1574 32.7459 66.1574C32.7459 66.1574 25.3156 54.4568 23.3481 59.1814Z" fill="white" stroke="black" stroke-width="0.3" stroke-linecap="round" stroke-linejoin="round"/>
<path d="M32.0701 112.211L28.8925 111.703L28.1167 104.33L31.3301 104.491L32.0701 112.211Z" fill="white" stroke="black" stroke-width="0.3" stroke-linecap="round" stroke-linejoin="round"/>
<path d="M24.3723 20.7899C24.7955 20.6698 25.228 20.5841 25.6654 20.5339C26.1925 20.458 26.555 20.3845 27.05 20.627C27.6105 20.9014 28.0399 21.4465 28.3678 21.961C28.7398 22.5696 29.0534 23.2114 29.3045 23.878C29.6534 24.7355 29.985 25.6285 29.9937 26.5545C30.0023 27.4806 29.6843 28.3821 29.2141 29.1734C28.9914 29.547 28.8281 29.8569 28.3839 29.977C28.025 30.0725 27.6117 30.0297 27.3395 29.7602C27.0228 30.7058 27.3012 31.8426 27.3568 32.836C27.3568 32.9156 27.5932 33.8539 26.7641 33.8539C25.1556 33.8674 22.8293 33.4717 21.2195 33.3958C21.1131 32.0067 22.687 29.4098 22.7761 28.9431C22.7873 28.8831 22.5979 28.6565 22.5682 28.6051C22.3938 28.3074 22.2329 28.0012 22.0844 27.6888C21.665 26.8019 21.3309 25.8514 21.2406 24.8714C21.1502 23.8915 21.347 22.8674 22.0275 22.108C22.4474 21.6601 22.9662 21.3143 23.5433 21.0974C23.8192 20.981 24.0952 20.8781 24.3723 20.7899Z" fill="white" stroke="black" stroke-width="0.3" stroke-linecap="round" stroke-linejoin="round"/>
<path d="M27.9117 21.2227L25.1524 25.2368C24.6575 24.3304 23.9237 24.5692 23.5352 25.303C23.0576 26.2058 24.1365 26.9762 24.0301 27.2813C23.794 27.8755 23.4192 28.4061 22.9363 28.8296C22.7161 29.0084 22.6418 28.859 22.4414 28.7132C22.2373 28.5696 22.0222 28.4423 21.7979 28.3323C21.3624 28.1093 20.9058 27.9182 20.5049 27.6328C19.5818 26.9726 19.0584 25.8407 19.0287 24.7138C18.999 23.5452 19.4556 22.4844 20.1423 21.5596C20.6051 20.9299 20.9998 20.4155 21.7249 20.0504C22.6706 19.5932 23.7371 19.4403 24.775 19.6131C25.3473 19.7029 25.9018 19.8811 26.4182 20.1411C26.568 20.2146 28.0033 21.0892 27.9117 21.2227Z" fill="black" stroke="black" stroke-width="0.3" stroke-linecap="round" stroke-linejoin="round"/>
<path d="M23.1999 17.446C23.5364 18.8804 22.8423 19.9828 21.5245 20.2866C20.2067 20.5904 19.3863 19.7966 19.0497 18.3585C18.7132 16.9205 19.1537 15.6894 20.4715 15.3856C21.7893 15.0818 22.8621 16.0128 23.1999 17.446Z" fill="black" stroke="black" stroke-width="0.3" stroke-linecap="round" stroke-linejoin="round"/>
<path d="M15.1863 64.7772C15.1863 64.7772 15.0291 68.6272 15.4338 78.9203C15.7889 87.9445 15.1863 92.0823 16.8345 104.775H19.9687C20.1073 96.4333 20.3102 96.4578 23.734 62.6127C23.734 62.6127 17.103 60.0318 15.1863 64.7772Z" fill="white" stroke="black" stroke-width="0.3" stroke-linecap="round" stroke-linejoin="round"/>
<path d="M16.8301 110.516L19.9656 110.886V104.773H16.8301V110.516Z" fill="white" stroke="black" stroke-width="0.3" stroke-linecap="round" stroke-linejoin="round"/>
<path d="M15.5337 35.2207C15.5337 35.2207 6.45018 49.0956 8.56484 53.4551C10.6795 57.8147 18.9414 59.559 18.9414 59.559L18.0888 37.5763L15.5337 35.2207Z" fill="white" stroke="black" stroke-width="0.3" stroke-linecap="round" stroke-linejoin="round"/>
<path d="M16.4097 33.7051C15.3517 40.9126 13.5439 68.7224 13.5439 68.7224C17.0209 72.4291 33.9728 68.8767 33.9728 68.8767C33.9728 68.8767 33.9949 46.6168 32.3084 35.7589" fill="white"/>
<path d="M16.4097 33.7051C15.3517 40.9126 13.5439 68.7224 13.5439 68.7224C17.0209 72.4291 33.9728 68.8767 33.9728 68.8767C33.9728 68.8767 33.9949 46.6168 32.3084 35.7589" stroke="black" stroke-width="0.3" stroke-linecap="round" stroke-linejoin="round"/>
<path d="M28.3484 109.929H28.331C28.2862 109.929 28.2428 109.944 28.2073 109.971C28.1756 110.005 28.1557 110.048 28.1504 110.094C27.9787 110.796 27.8596 111.51 27.794 112.229C27.773 112.463 27.5837 113.48 27.8608 113.636C28.2184 113.837 38.2102 113.989 38.7893 113.426C39.0937 113.13 38.913 112.133 38.5418 111.868C37.4504 111.086 36.0027 110.931 34.7926 110.349C34.1937 110.061 33.6035 109.751 33.033 109.41C32.5789 109.138 32.2411 108.614 31.7177 109.103C31.4591 109.348 31.2475 109.633 30.9753 109.865C30.7991 110.016 30.5906 110.126 30.3654 110.187C30.1402 110.247 29.9042 110.257 29.6748 110.214C29.2244 110.145 28.8099 109.895 28.3484 109.929Z" fill="white" stroke="black" stroke-width="0.3" stroke-linecap="round" stroke-linejoin="round"/>
<path d="M16.3225 110.658C16.3417 110.462 16.3752 110.267 16.4228 110.075C16.5214 109.741 16.6421 109.414 16.7841 109.095C16.795 109.058 16.8186 109.025 16.8509 109.003C16.8744 108.994 16.8997 108.989 16.9251 108.99L19.2464 108.908C19.394 108.894 19.543 108.907 19.6857 108.947C19.8016 108.995 19.9093 109.06 20.0049 109.141C20.0686 109.18 20.1227 109.233 20.1631 109.295C20.2036 109.358 20.2295 109.428 20.2388 109.502C20.3557 109.881 20.4515 110.265 20.5259 110.655C20.563 110.918 20.8154 113.945 20.2252 113.994C19.9406 114.017 19.1648 113.968 18.41 113.984H18.379C17.6255 113.968 16.8484 114.017 16.5651 113.994C16.2817 113.97 16.2446 113.4 16.2136 113.194C16.1601 112.799 16.146 112.401 16.1716 112.003C16.1914 111.666 16.231 111.332 16.2792 110.998C16.2966 110.886 16.3102 110.771 16.3225 110.658Z" fill="white" stroke="black" stroke-width="0.3" stroke-linecap="round" stroke-linejoin="round"/>
<path d="M24.6757 36.2777C23.7103 36.6209 22.7268 36.9121 21.7295 37.1499C19.4429 37.6864 16.6501 38.0294 14.5528 36.7101C12.3144 35.3125 11.6957 32.1767 12.3354 29.777C12.4332 29.4095 12.5829 29.0261 12.9244 28.8534C13.0462 28.7972 13.176 28.76 13.3092 28.7431C14.8955 28.4822 16.4435 29.0714 17.9481 29.4781C18.6981 29.6698 19.4623 29.8021 20.2335 29.8738C20.997 29.9558 21.758 30.2265 22.5091 30.4225C23.4989 30.6798 24.4542 31.035 25.4243 31.3057C26.3313 31.5605 27.1925 31.7185 28.05 32.1411C29.7179 32.9643 31.1434 34.2468 32.2471 35.7228" fill="white"/>
<path d="M24.6757 36.2777C23.7103 36.6209 22.7268 36.9121 21.7295 37.1499C19.4429 37.6864 16.6501 38.0294 14.5528 36.7101C12.3144 35.3125 11.6957 32.1767 12.3354 29.777C12.4332 29.4095 12.5829 29.0261 12.9244 28.8534C13.0462 28.7972 13.176 28.76 13.3092 28.7431C14.8955 28.4822 16.4435 29.0714 17.9481 29.4781C18.6981 29.6698 19.4623 29.8021 20.2335 29.8738C20.997 29.9558 21.758 30.2265 22.5091 30.4225C23.4989 30.6798 24.4542 31.035 25.4243 31.3057C26.3313 31.5605 27.1925 31.7185 28.05 32.1411C29.7179 32.9643 31.1434 34.2468 32.2471 35.7228" stroke="black" stroke-width="0.3" stroke-linecap="round" stroke-linejoin="round"/>
<path d="M45.5976 47.0245C45.5691 46.9498 45.5419 46.8751 45.5146 46.8004C46.2769 46.5554 46.8634 45.8902 47.4944 45.4297C48.2715 44.8564 49.0016 44.239 49.8108 43.7074C50.3936 43.3228 50.9925 42.9627 51.5852 42.5927C52.1779 42.2228 52.7334 41.8222 53.3447 41.5025C53.5786 41.38 53.946 41.135 54.222 41.2441C54.2798 41.2726 54.3263 41.3195 54.3541 41.3772C54.3819 41.4349 54.3894 41.5001 54.3754 41.5625C54.3453 41.6874 54.2821 41.8019 54.1923 41.8945C53.8211 42.3257 53.3645 42.6601 52.9116 42.9969C52.5243 43.286 51.9811 43.6094 51.8153 44.0835C51.7491 44.3254 51.7364 44.5786 51.7782 44.8258C51.8537 45.5607 51.9601 46.3116 51.8549 47.0478C51.8042 47.3994 51.6668 47.6431 51.3303 47.7828C50.7598 48.0167 50.1201 48.0192 49.5039 48.0706C48.9632 48.116 48.2591 48.1539 47.8459 48.5459C47.5192 48.857 47.2272 49.1988 46.8881 49.4989C46.3608 48.7275 45.9275 47.8969 45.5976 47.0245Z" fill="white" stroke="black" stroke-width="0.3" stroke-linecap="round" stroke-linejoin="round"/>
<path d="M32.2221 35.6592L38.769 47.8228L46.4407 46.1287L47.8376 49.3136C47.8376 49.3136 40.213 54.0296 37.2322 53.3191C34.2514 52.6086 27.4941 46.1275 27.4941 46.1275" fill="white"/>
<path d="M32.2221 35.6592L38.769 47.8228L46.4407 46.1287L47.8376 49.3136C47.8376 49.3136 40.213 54.0296 37.2322 53.3191C34.2514 52.6086 27.4941 46.1275 27.4941 46.1275" stroke="black" stroke-width="0.3" stroke-linecap="round" stroke-linejoin="round"/>
<defs>
<clipPath id="clip0">
<rect width="49.2243" height="2.42142" fill="white" transform="translate(44.6348 9.18066)"/>
</clipPath>
<clipPath id="clip1">
<rect width="49.2243" height="2.42142" fill="white" transform="translate(44.6348 9.18066)"/>
</clipPath>
</defs>
</svg>
