<svg width="114" height="113" viewBox="0 0 114 113" fill="none" xmlns="http://www.w3.org/2000/svg">
<path d="M52.2621 17.3438L52.2618 17.342C51.6937 14.5788 52.2321 11.7476 53.7676 9.41821C55.2971 7.09785 58.2814 5.4605 61.1129 4.81064L61.113 4.81062C63.0397 4.36714 65.0699 4.4086 67.0098 4.93159C68.9496 5.45457 70.7337 6.44145 72.1918 7.79773C73.6499 9.15398 74.7331 10.834 75.3388 12.677C75.9444 14.5195 76.0527 16.4636 75.6543 18.3242C75.2045 20.2208 74.2597 21.9624 72.9066 23.3879L72.9065 23.388C69.1439 27.3604 64.8478 30.6716 59.5429 32.707C58.9152 32.9479 58.2137 32.6139 57.9584 31.9763C57.311 30.36 56.5952 28.7985 55.8909 27.262C55.4886 26.3842 55.0899 25.5145 54.7099 24.6475C53.6622 22.2568 52.7496 19.8728 52.2621 17.3438Z" fill="#5465A3" stroke="black" stroke-width="0.3"/>
<path d="M61.6494 24.3828C62.0464 24.4764 62.347 24.2972 62.4484 23.8656L62.6612 22.96C64.8395 23.2506 66.4514 22.3088 66.883 20.4722C67.2548 18.8896 66.5524 17.7055 64.6381 16.709L62.8595 15.7803C61.8524 15.2479 61.4232 14.4946 61.624 13.6398C61.8845 12.5311 62.9867 12.0139 64.4141 12.3507C65.5206 12.6117 66.158 13.1998 66.6607 14.3992C66.8718 14.9046 67.0278 15.0754 67.315 15.1431C67.6866 15.2308 67.9808 15.0411 68.0723 14.6518C68.1797 14.1948 68.0153 13.5665 67.6283 12.9749C67.1638 12.258 66.4002 11.6758 65.4756 11.3237L65.6744 10.4774C65.7759 10.0457 65.5782 9.74899 65.1896 9.65732C64.7926 9.56367 64.492 9.74286 64.3906 10.1745L64.1997 10.987C62.1223 10.6845 60.5501 11.6088 60.1364 13.3692C59.7825 14.8757 60.4908 16.1862 62.1274 17.0368L63.9379 17.982C65.1675 18.6294 65.5913 19.2921 65.3725 20.2231C65.0862 21.4418 63.986 21.9505 62.4065 21.5779C61.1733 21.287 60.4217 20.6541 59.8936 19.4487C59.6418 18.889 59.5479 18.7954 59.2945 18.7356C58.9144 18.646 58.5994 18.8486 58.5 19.2717C58.3846 19.7626 58.5808 20.4074 59.0353 21.0148C59.5649 21.7204 60.3936 22.2911 61.3813 22.6402L61.1646 23.5627C61.0632 23.9944 61.244 24.2871 61.6494 24.3828Z" fill="white"/>
<path d="M20.4861 26.7035L20.4861 26.7035L20.4846 26.7023C18.8716 25.4453 17.8374 23.6295 17.5894 21.6209C17.3426 19.6231 18.2186 17.3117 19.4782 15.6153L19.4783 15.6152C20.3335 14.462 21.4741 13.5277 22.7915 12.9018C24.109 12.2759 25.5587 11.9797 27.0021 12.0411C28.4454 12.1025 29.8338 12.5194 31.0351 13.2512C32.2359 13.9826 33.2099 15.0043 33.865 16.2185C34.5087 17.477 34.8062 18.8832 34.73 20.3075L34.73 20.3077C34.5208 24.2892 33.7039 28.1544 31.7268 31.7894C31.504 32.1991 30.9822 32.3411 30.5571 32.1179C29.4331 31.5276 28.296 30.9996 27.1781 30.4805C26.5402 30.1842 25.9085 29.8909 25.2892 29.5906C23.5786 28.7612 21.9486 27.8726 20.4861 26.7035Z" fill="#C0C8E5" stroke="black" stroke-width="0.3"/>
<path d="M26.5101 22.9085C26.6549 23.2579 26.9676 23.3983 27.2966 23.2615C27.6322 23.1219 27.7213 22.853 27.6183 22.4553C27.4011 21.7263 27.4662 21.4365 27.9946 20.4592C28.6033 19.3404 28.7342 18.6136 28.3873 17.7763C27.8274 16.4248 26.3741 15.9704 24.8082 16.6217C24.0252 16.9474 23.4782 17.4145 23.1815 18.0016C22.8875 18.5954 22.8286 19.2537 23.028 19.735C23.1481 20.025 23.4011 20.1517 23.6841 20.034C23.9275 19.9327 24.0127 19.7659 24.0274 19.3733C24.0462 18.469 24.4135 17.922 25.2162 17.5881C26.0913 17.2241 26.9288 17.5327 27.2293 18.258C27.4887 18.8843 27.3665 19.3525 26.8858 20.2403C26.2062 21.5046 26.1414 22.0184 26.5101 22.9085ZM27.4113 25.5866C27.5834 26.0019 28.0555 26.192 28.4766 26.0168C28.8912 25.8444 29.0967 25.3724 28.9247 24.9571C28.7499 24.5352 28.2712 24.3478 27.8566 24.5202C27.4355 24.6954 27.2365 25.1646 27.4113 25.5866Z" fill="black"/>
<path d="M87.9085 107.084C87.5475 107.084 87.2225 107.084 86.8615 107.084C83.5399 107.048 80.2183 107.048 76.8605 107.048C73.2501 107.048 69.6757 107.012 66.0653 107.012C65.2349 107.012 64.3684 107.012 63.538 107.012C60.9024 107.012 58.3028 107.012 55.6672 107.012C52.9594 107.012 50.2515 107.012 47.5076 107.048C47.5076 107.084 47.5076 107.12 47.5076 107.156C47.5076 107.12 47.4715 107.084 47.4715 107.048C45.6302 107.048 43.825 107.048 41.9836 107.084C39.4563 107.084 36.8929 107.12 34.3656 107.12C28.625 107.156 22.8844 107.191 17.1437 107.263C16.9632 107.263 16.8188 107.263 16.6383 107.263C16.6022 104.756 16.5661 102.249 16.53 99.7419C16.4217 92.7939 16.3494 85.8817 16.2772 78.9337C16.2411 74.9225 16.205 70.8754 16.1689 66.8642C16.1689 65.0734 16.1328 63.2469 16.4217 61.4562C16.6383 60.0236 17.0715 58.6268 17.5048 57.2301C18.9851 52.5025 20.6459 47.8108 22.4872 43.2266C41.9114 43.334 61.3356 43.4415 80.7237 43.5489C81.157 43.5489 81.6263 43.5489 81.9874 43.7996C82.3123 44.0145 82.4928 44.3726 82.6373 44.7308C83.7204 47.0229 84.6952 49.3509 85.5978 51.7146C86.2838 53.5053 86.9337 55.2961 87.2947 57.1584C87.8363 59.7729 87.8363 62.459 87.8363 65.1093C87.8724 79.0769 87.9085 93.0804 87.9085 107.084Z" fill="white" stroke="black" stroke-width="0.3" stroke-miterlimit="10" stroke-linecap="round" stroke-linejoin="round"/>
<path d="M42.975 73.1671C48.8331 73.0955 54.7282 73.0597 60.5863 72.9881C60.475 69.335 60.3267 65.6819 60.1043 62.0288C54.4687 61.993 48.796 61.993 43.1604 62.0288C43.1233 63.4256 43.1604 64.8582 43.0492 66.2549C42.938 67.7233 42.9009 69.1917 42.9009 70.6601C42.938 71.5197 42.938 72.3434 42.975 73.1671Z" fill="white" stroke="black" stroke-width="0.3" stroke-miterlimit="10" stroke-linecap="round" stroke-linejoin="round"/>
<path d="M48.9429 62.1357C49.1299 63.7116 49.0925 65.2874 49.0925 66.8991C49.0551 68.9763 49.0551 71.0177 49.0177 73.095C49.0177 73.0234 49.0177 72.9875 49.0177 72.9159" fill="white"/>
<path d="M48.9429 62.1357C49.1299 63.7116 49.0925 65.2874 49.0925 66.8991C49.0551 68.9763 49.0551 71.0177 49.0177 73.095C49.0177 73.0234 49.0177 72.9875 49.0177 72.9159" stroke="black" stroke-width="0.3" stroke-miterlimit="10" stroke-linecap="round" stroke-linejoin="round"/>
<path d="M54.9853 62.1357C54.9479 62.7446 55.0227 63.3893 55.0601 63.9981C55.0975 64.8218 55.0227 65.6456 55.0227 66.4693C54.9853 67.4721 55.0227 68.4749 55.0227 69.4777C55.0601 70.6596 55.0601 71.8415 55.0975 73.0234" fill="white"/>
<path d="M54.9853 62.1357C54.9479 62.7446 55.0227 63.3893 55.0601 63.9981C55.0975 64.8218 55.0227 65.6456 55.0227 66.4693C54.9853 67.4721 55.0227 68.4749 55.0227 69.4777C55.0601 70.6596 55.0601 71.8415 55.0975 73.0234" stroke="black" stroke-width="0.3" stroke-miterlimit="10" stroke-linecap="round" stroke-linejoin="round"/>
<path d="M60.2903 67.6506C58.4365 67.579 56.5456 67.7223 54.6917 67.6506C50.8358 67.4357 46.9428 67.7939 43.0498 67.6506" fill="white"/>
<path d="M60.2903 67.6506C58.4365 67.579 56.5456 67.7223 54.6917 67.6506C50.8358 67.4357 46.9428 67.7939 43.0498 67.6506" stroke="black" stroke-width="0.3" stroke-miterlimit="10" stroke-linecap="round" stroke-linejoin="round"/>
<path d="M66.183 97.2345C72.0411 97.1629 77.9362 97.1271 83.7942 97.0554C83.683 93.4024 83.5347 89.7493 83.3123 86.0962C77.6767 86.0604 72.004 86.0604 66.3684 86.0962C66.3313 87.493 66.3684 88.9256 66.2572 90.3223C66.146 91.7907 66.1089 93.2591 66.1089 94.7275C66.1089 95.5512 66.146 96.4108 66.183 97.2345Z" fill="white" stroke="black" stroke-width="0.3" stroke-miterlimit="10" stroke-linecap="round" stroke-linejoin="round"/>
<path d="M72.1577 86.1699C72.3447 87.7458 72.3073 89.3216 72.3073 90.9333C72.2699 93.0105 72.2699 95.0519 72.2325 97.1292C72.2325 97.0576 72.2325 97.0217 72.2325 96.9501" fill="white"/>
<path d="M72.1577 86.1699C72.3447 87.7458 72.3073 89.3216 72.3073 90.9333C72.2699 93.0105 72.2699 95.0519 72.2325 97.1292C72.2325 97.0576 72.2325 97.0217 72.2325 96.9501" stroke="black" stroke-width="0.3" stroke-miterlimit="10" stroke-linecap="round" stroke-linejoin="round"/>
<path d="M78.1581 86.2031C78.1207 86.812 78.1955 87.4566 78.2329 88.0655C78.2703 88.8892 78.1955 89.7129 78.1955 90.5367C78.1581 91.5395 78.1955 92.5423 78.1955 93.5451C78.2329 94.727 78.2329 95.9089 78.2703 97.0907" fill="white"/>
<path d="M78.1581 86.2031C78.1207 86.812 78.1955 87.4566 78.2329 88.0655C78.2703 88.8892 78.1955 89.7129 78.1955 90.5367C78.1581 91.5395 78.1955 92.5423 78.1955 93.5451C78.2329 94.727 78.2329 95.9089 78.2703 97.0907" stroke="black" stroke-width="0.3" stroke-miterlimit="10" stroke-linecap="round" stroke-linejoin="round"/>
<path d="M83.466 91.6819C81.6122 91.6103 79.7213 91.7535 77.8675 91.6819C74.0116 91.467 70.1186 91.8252 66.2256 91.6819" fill="white"/>
<path d="M83.466 91.6819C81.6122 91.6103 79.7213 91.7535 77.8675 91.6819C74.0116 91.467 70.1186 91.8252 66.2256 91.6819" stroke="black" stroke-width="0.3" stroke-miterlimit="10" stroke-linecap="round" stroke-linejoin="round"/>
<path d="M72.3768 72.9888C74.1194 73.0962 75.8991 73.0962 77.6416 72.953C77.6787 71.5562 77.5304 70.1595 77.4933 68.7985C77.4192 66.6496 77.5304 64.5366 77.4563 62.3877C75.7137 62.4951 73.9711 62.531 72.2285 62.5668C72.2656 62.5668 72.2285 65.9691 72.2285 66.2198C72.2656 67.6524 72.2656 69.085 72.3027 70.5176C72.3397 71.3771 72.3768 72.1651 72.3768 72.9888Z" fill="white" stroke="black" stroke-width="0.3" stroke-miterlimit="10" stroke-linecap="round" stroke-linejoin="round"/>
<path d="M77.4164 67.6163C77.1198 67.6521 76.7861 67.6163 76.4895 67.6163C75.1177 67.5089 73.7458 67.5805 72.374 67.6521" fill="white"/>
<path d="M77.4164 67.6163C77.1198 67.6521 76.7861 67.6163 76.4895 67.6163C75.1177 67.5089 73.7458 67.5805 72.374 67.6521" stroke="black" stroke-width="0.3" stroke-miterlimit="10" stroke-linecap="round" stroke-linejoin="round"/>
<path d="M25.9188 73.0954C27.6614 73.2029 29.4411 73.2029 31.1836 73.0954C31.2207 71.8061 31.0724 70.481 31.0353 69.1916C30.9612 67.186 31.0724 65.1804 30.9983 63.1748C29.2557 63.2822 27.5131 63.3181 25.7705 63.3539C25.8076 63.3539 25.7705 66.5414 25.7705 66.7921C25.8076 68.153 25.8076 69.4782 25.8447 70.8391C25.9188 71.5912 25.9188 72.3433 25.9188 73.0954Z" fill="white" stroke="black" stroke-width="0.3" stroke-miterlimit="10" stroke-linecap="round" stroke-linejoin="round"/>
<path d="M30.9618 68.0812C30.6652 68.117 30.3315 68.0812 30.0349 68.0812C28.6631 67.9737 27.2913 68.0453 25.9194 68.117" fill="white"/>
<path d="M30.9618 68.0812C30.6652 68.117 30.3315 68.0812 30.0349 68.0812C28.6631 67.9737 27.2913 68.0453 25.9194 68.117" stroke="black" stroke-width="0.3" stroke-miterlimit="10" stroke-linecap="round" stroke-linejoin="round"/>
<path d="M49.7605 54.7214C49.9088 55.1871 50.2054 55.617 50.6132 55.9035C50.7615 56.011 50.9098 56.0826 51.0952 56.1543C51.2806 56.1901 51.466 56.1901 51.6143 56.1901C52.0963 56.1184 52.5412 55.9393 52.9119 55.6528C53.2827 55.3662 53.5422 54.9364 53.6535 54.4707C53.7647 54.005 53.6905 53.5394 53.5422 53.1095C53.431 52.823 53.2827 52.5364 53.0232 52.3215C52.7636 52.1066 52.4299 51.9991 52.0592 51.9633C51.7997 51.9275 51.503 51.9633 51.2435 52.0349C50.984 52.1066 50.7615 52.214 50.5391 52.3573C49.7234 52.8588 49.5009 53.8259 49.7605 54.7214Z" fill="white" stroke="black" stroke-width="0.3" stroke-miterlimit="10" stroke-linecap="round" stroke-linejoin="round"/>
<path d="M72.4173 46.2696C72.788 46.4129 73.1588 46.3771 73.5666 46.3771C74.1969 46.3413 74.8272 46.3055 75.4575 46.2696C76.0878 46.2338 76.7552 46.198 77.3855 46.1622C77.4225 46.1622 77.4596 46.1622 77.4596 46.1264C77.4596 46.0906 77.4967 46.0906 77.4967 46.0548C77.8304 42.8315 77.2001 39.6081 77.4225 36.3848C77.4225 36.3132 77.4225 36.2416 77.3855 36.2058C77.3484 36.1699 77.2742 36.1341 77.2001 36.1341C75.5687 36.0625 73.9374 36.0983 72.269 36.1341C72.2319 36.1341 72.1577 39.1784 72.1577 39.5723C72.1948 40.9691 72.2689 42.4017 72.306 43.7984C72.3431 44.658 72.3802 45.4817 72.4173 46.2696Z" fill="white" stroke="black" stroke-width="0.3" stroke-miterlimit="10" stroke-linecap="round" stroke-linejoin="round"/>
<path d="M50.6486 104.149C53.9855 104.363 57.3594 104.399 60.6963 104.184C60.6963 101.821 60.6221 99.4569 60.4367 97.0931C60.2514 94.7652 60.3255 92.4372 60.1401 90.1093C60.0289 88.7483 59.9548 86.9576 59.8806 85.5966C56.655 85.5608 53.5776 85.4176 50.352 85.6683C50.0925 85.7041 50.5003 95.1591 50.5374 95.9829C50.5745 97.2722 50.5374 98.5973 50.5745 99.8866C50.5745 101.319 50.6115 102.716 50.6486 104.149Z" fill="white" stroke="black" stroke-width="0.3" stroke-miterlimit="10" stroke-linecap="round" stroke-linejoin="round"/>
<path d="M51.9107 95.084C51.9849 95.3347 52.2073 95.5855 52.4668 95.5855C52.6151 95.5855 52.7635 95.5138 52.9118 95.4422C52.9859 95.4064 53.023 95.3705 53.0601 95.2989C53.1713 95.1556 53.2084 94.9407 53.1713 94.7616C53.0601 93.9019 51.7253 94.1885 51.9107 95.084Z" fill="white" stroke="black" stroke-width="0.3" stroke-miterlimit="10" stroke-linecap="round" stroke-linejoin="round"/>
<path d="M47.5378 107.048C47.5378 107.083 47.5378 107.118 47.5378 107.154C47.5378 107.118 47.501 107.083 47.501 107.048H47.5378Z" fill="white" stroke="black" stroke-width="0.3" stroke-miterlimit="10" stroke-linecap="round" stroke-linejoin="round"/>
<path d="M0.226562 107.226C3.87252 107.226 7.89565 107.297 11.4159 107.261C19.6298 107.19 27.8018 107.118 36.0157 107.082C44.2715 107.047 52.4854 107.011 60.7412 107.011C68.9551 107.011 77.127 107.011 85.3409 107.047C93.5548 107.082 101.769 107.118 109.983 107.154C110.988 107.154 111.994 107.154 113 107.19" fill="white"/>
<path d="M0.226562 107.226C3.87252 107.226 7.89565 107.297 11.4159 107.261C19.6298 107.19 27.8018 107.118 36.0157 107.082C44.2715 107.047 52.4854 107.011 60.7412 107.011C68.9551 107.011 77.127 107.011 85.3409 107.047C93.5548 107.082 101.769 107.118 109.983 107.154C110.988 107.154 111.994 107.154 113 107.19" stroke="black" stroke-width="0.3" stroke-miterlimit="10" stroke-linecap="round" stroke-linejoin="round"/>
<path d="M47.6069 102.891C47.6069 104.324 47.5698 105.685 47.5328 107.046C47.5328 107.082 47.5328 107.117 47.5328 107.153C47.5328 107.117 47.4957 107.082 47.4957 107.046C45.6048 107.046 43.751 107.046 41.8601 107.082C39.2648 107.082 36.6323 107.117 34.037 107.117C28.1419 107.153 22.2468 107.189 16.3516 107.261C16.1663 107.261 16.018 107.261 15.8326 107.261C14.6461 107.261 13.4968 107.297 12.3103 107.297C11.8654 107.297 11.4205 107.297 10.9756 107.297C11.0127 103.536 11.0497 98.7727 11.0497 96.0866C11.0497 93.0065 11.1239 83.4082 11.0127 81.331C12.644 80.364 13.2372 79.97 14.4237 79.397C14.7574 79.2179 15.091 79.0747 15.4247 78.9314C16.4629 78.43 17.5381 77.9644 18.6133 77.5347C21.3569 76.3886 24.2118 75.4574 27.1037 74.6695C27.6228 74.5262 28.1419 74.383 28.698 74.4546C29.0688 74.4904 29.4025 74.5979 29.7732 74.7053C35.6313 76.496 41.341 78.7523 46.7912 81.4384C47.3474 87.4911 47.644 95.6568 47.6069 102.891Z" fill="white" stroke="black" stroke-width="0.3" stroke-miterlimit="10" stroke-linecap="round" stroke-linejoin="round"/>
<path d="M41.8613 107.048C39.266 107.048 36.6336 107.084 34.0382 107.084C28.1431 107.119 22.248 107.155 16.3529 107.227C16.3529 107.155 16.3158 107.084 16.3158 107.048C16.0933 105.615 16.2787 104.039 16.2416 102.571C16.2416 100.995 16.2416 99.3835 16.2046 97.8077C16.2046 94.6202 16.1675 91.4327 16.1675 88.2452C16.1675 87.8512 16.1675 87.4573 16.1675 87.0275C24.6579 86.7768 33.1113 86.7051 41.6018 86.8484C41.9355 93.5815 41.8984 100.315 41.8613 107.048Z" fill="white" stroke="black" stroke-width="0.3" stroke-miterlimit="10" stroke-linecap="round" stroke-linejoin="round"/>
<path d="M63.9946 107.012C61.2881 107.012 58.6186 107.012 55.912 107.012C53.1313 107.012 50.3506 107.012 47.5328 107.048C47.5328 107.084 47.5328 107.12 47.5328 107.156C47.5328 107.12 47.4957 107.084 47.4957 107.048C47.0879 105.866 47.3845 103.932 47.4957 102.929C47.5328 102.929 47.5699 102.929 47.6069 102.929C52.8718 102.893 58.1366 102.857 63.4385 102.821C63.6239 104.182 63.8093 105.615 63.9946 107.012Z" fill="white" stroke="black" stroke-width="0.3" stroke-miterlimit="10" stroke-linecap="round" stroke-linejoin="round"/>
<path d="M21.9064 43.2686L15.4688 60.4893C17.202 60.4893 30.5725 60.4893 33.0486 60.011C35.5246 59.5326 48.3999 46.3779 51.3712 46.3779C52.8568 46.3779 69.6938 59.7718 71.6746 60.011C73.6554 60.2501 87.5212 60.011 89.0068 59.0543C89.403 58.2889 84.8801 48.2116 82.5691 43.2686H21.9064Z" fill="white" stroke="black" stroke-width="0.3" stroke-miterlimit="10" stroke-linecap="round" stroke-linejoin="round"/>
<path d="M84.3041 77.1467C84.2551 78.7011 84.4512 80.2651 85.0199 81.7147C86.3339 85.0429 89.7464 87.4843 93.404 87.7036C97.0617 87.9325 100.759 85.9203 102.494 82.7828C103.259 81.4 103.651 79.855 103.936 78.3101C104.171 77.0513 104.328 75.7543 103.994 74.5146C103.641 73.2462 102.798 72.159 101.925 71.1577C101.798 71.0147 101.67 70.8621 101.621 70.6713C101.572 70.4806 101.621 70.2803 101.67 70.0801C102.779 65.636 102.347 60.8392 100.455 56.6526C99.5916 54.7358 98.2776 52.8189 96.238 52.1323C94.2376 51.4647 91.9528 52.1895 90.3838 53.5628C88.8149 54.936 87.8833 56.872 87.2655 58.8365C86.4418 61.4495 86.1378 64.2151 86.3339 66.9425C86.383 67.6101 86.4614 68.2777 86.5791 68.9357C86.6772 69.4983 86.9517 70.1659 86.8635 70.7381C86.7948 71.1386 86.5006 71.3961 86.2359 71.6917C85.824 72.1495 85.4808 72.6359 85.2161 73.1795C84.5885 74.4001 84.3433 75.7925 84.3041 77.1467Z" fill="white" stroke="black" stroke-width="0.3" stroke-miterlimit="10" stroke-linecap="round" stroke-linejoin="round"/>
<path d="M93.9429 78.5859C94.3949 83.0204 94.3261 87.4931 94.2671 91.9466C94.1984 96.8961 94.1197 101.855 94.051 106.805" stroke="black" stroke-width="0.3" stroke-miterlimit="10" stroke-linecap="round" stroke-linejoin="round"/>
<path d="M94.353 84.6236C95.5003 83.422 96.6574 82.2204 97.8047 81.0283" stroke="black" stroke-width="0.3" stroke-miterlimit="10" stroke-linecap="round" stroke-linejoin="round"/>
</svg>
