<?xml version="1.0" encoding="UTF-8"?><svg id="a" xmlns="http://www.w3.org/2000/svg" width="306.7927" height="106.0325" viewBox="0 0 306.7927 106.0325"><defs><style>.b{fill:#3889eb;}</style></defs><g><path d="M104.5318,90.5627c0,2.6484-.6089,4.7754-1.8257,6.3818-1.2173,1.6064-2.8506,2.4102-4.9004,2.4102-2.1885,0-3.8809-.7744-5.0762-2.3223l-.144,2.002h-2.7227v-24.5967h2.9629v9.1758c1.1953-1.4844,2.8447-2.2266,4.9482-2.2266s3.7549,.7959,4.9561,2.3867,1.8018,3.7686,1.8018,6.5332v.2559Zm-2.9629-.3359c0-2.0176-.3896-3.5762-1.1689-4.6758s-1.9004-1.6494-3.3628-1.6494c-1.9536,0-3.3574,.9072-4.2114,2.7227v7.4941c.9072,1.8145,2.3218,2.7217,4.2437,2.7217,1.4194,0,2.5244-.5488,3.3145-1.6494,.79-1.0986,1.1851-2.7539,1.1851-4.9639Z"/><path d="M112.9737,94.6946l4.0356-12.9873h3.1704l-6.9658,20.001c-1.0781,2.8828-2.792,4.3242-5.1401,4.3242l-.5605-.0479-1.105-.208v-2.4023l.8008,.0635c1.0034,0,1.7852-.2021,2.3457-.6084,.5605-.4053,1.0225-1.1475,1.3853-2.2256l.6567-1.7617-6.1812-17.1348h3.2344l4.3237,12.9873Z"/><path d="M138.8223,90.4993h-3.8276v8.5352h-4.8042v-23.3154h8.6636c2.7544,0,4.8789,.6133,6.3735,1.8408,1.4946,1.2285,2.2417,2.9629,2.2417,5.2051,0,1.5908-.3442,2.917-1.0327,3.9795-.6885,1.0615-1.7324,1.9082-3.1309,2.5381l5.0444,9.5273v.2246h-5.1562l-4.3716-8.5352Zm-3.8276-3.8916h3.8755c1.2061,0,2.1401-.3066,2.8022-.9209,.6621-.6133,.9932-1.46,.9932-2.5381,0-1.0996-.3125-1.9639-.937-2.5938s-1.583-.9453-2.8745-.9453h-3.8594v6.998Z"/><path d="M157.9092,99.3547c-2.541,0-4.6094-.7793-6.2056-2.3379s-2.394-3.6348-2.394-6.2295v-.4482c0-1.7402,.3364-3.2959,1.0088-4.668,.6729-1.3721,1.6255-2.4287,2.8589-3.1709,1.2329-.7422,2.6392-1.1133,4.2192-1.1133,2.3701,0,4.2358,.748,5.5972,2.2422,1.3608,1.4951,2.0415,3.6143,2.0415,6.3574v1.8896h-11.0332c.1489,1.1318,.6001,2.0391,1.353,2.7227,.7524,.6826,1.7056,1.0244,2.8584,1.0244,1.7827,0,3.1758-.6455,4.1797-1.9375l2.2739,2.5459c-.6943,.9824-1.6338,1.749-2.8184,2.2979-1.1851,.5498-2.4985,.8252-3.9395,.8252Zm-.5283-14.2363c-.9185,0-1.6631,.3115-2.2344,.9336-.5708,.6221-.9365,1.5117-1.0967,2.6699h6.4375v-.3701c-.0215-1.0293-.2988-1.8262-.8325-2.3887-.5342-.5635-1.292-.8447-2.2739-.8447Z"/><path d="M177.2261,99.0344c-.2134-.416-.3682-.9336-.4644-1.5537-1.1206,1.249-2.5781,1.874-4.3716,1.874-1.6973,0-3.104-.4912-4.2197-1.4736-1.1157-.9814-1.6733-2.2197-1.6733-3.7148,0-1.8359,.6807-3.2451,2.042-4.2275,1.3608-.9824,3.3281-1.4785,5.9009-1.4893h2.1299v-.9932c0-.8008-.2056-1.4414-.6167-1.9219-.4111-.4795-1.0596-.7197-1.9458-.7197-.7793,0-1.3906,.1865-1.8335,.5605-.4429,.373-.6646,.8857-.6646,1.5371h-4.6279c0-1.0039,.3096-1.9326,.9287-2.7871,.6191-.8535,1.4946-1.5234,2.6265-2.0088,1.1313-.4863,2.4019-.7295,3.811-.7295,2.1353,0,3.8301,.5371,5.0845,1.6094,1.2544,1.0732,1.8818,2.5811,1.8818,4.5244v7.5098c.0103,1.6445,.2402,2.8887,.6885,3.7314v.2725h-4.6763Zm-3.8271-3.2188c.6831,0,1.313-.1523,1.8896-.4561,.5767-.3047,1.0034-.7129,1.2812-1.2256v-2.9785h-1.7295c-2.3169,0-3.5498,.8008-3.6992,2.4023l-.0161,.2725c0,.5762,.2026,1.0518,.6084,1.4248,.4058,.374,.9609,.5605,1.6655,.5605Z"/><path d="M189.0723,99.0344h-4.644v-24.5967h4.644v24.5967Z"/><path d="M197.9131,77.4475v4.2598h2.9624v3.3955h-2.9624v8.6475c0,.6406,.1226,1.0996,.3682,1.377s.7153,.416,1.4092,.416c.5127,0,.9663-.0371,1.3613-.1123v3.5078c-.9077,.2773-1.8418,.416-2.8027,.416-3.2451,0-4.8999-1.6387-4.9639-4.916v-9.3359h-2.5303v-3.3955h2.5303v-4.2598h4.6279Z"/><path d="M201.9722,90.2112c0-1.7188,.3306-3.251,.9927-4.5967,.6616-1.3447,1.6147-2.3857,2.8584-3.1221s2.6875-1.1055,4.3315-1.1055c2.3384,0,4.2461,.7158,5.7251,2.1465,1.4785,1.4307,2.3032,3.373,2.4741,5.8291l.0317,1.1846c0,2.6582-.7417,4.791-2.2256,6.3975s-3.4751,2.4102-5.9731,2.4102-4.4917-.8008-5.981-2.4023-2.2339-3.7793-2.2339-6.5332v-.208Zm4.6279,.3281c0,1.6465,.3091,2.9062,.9287,3.7773,.6191,.8711,1.5054,1.3066,2.6582,1.3066,1.1211,0,1.9961-.4297,2.626-1.291,.6299-.8604,.9448-2.2373,.9448-4.1299,0-1.6143-.3149-2.8652-.9448-3.7529-.6299-.8867-1.5156-1.3311-2.6582-1.3311-1.1313,0-2.0068,.4414-2.626,1.3232-.6196,.8818-.9287,2.248-.9287,4.0977Z"/><path d="M230.5396,86.0471c-.6299-.085-1.1851-.1279-1.665-.1279-1.751,0-2.8989,.5928-3.4434,1.7773v11.3379h-4.6279v-17.3271h4.3721l.1279,2.0664c.9287-1.5908,2.2153-2.3867,3.8594-2.3867,.5122,0,.9927,.0703,1.4414,.209l-.0645,4.4512Z"/><path d="M230.5,96.76c0-.7363,.2485-1.334,.7446-1.793,.4966-.459,1.1182-.6885,1.8657-.6885,.7578,0,1.3853,.2295,1.8818,.6885,.4961,.459,.7446,1.0566,.7446,1.793,0,.7266-.2461,1.3164-.7368,1.7695-.4912,.4541-1.1211,.6807-1.8896,.6807-.7583,0-1.3828-.2266-1.8735-.6807-.4912-.4531-.7368-1.043-.7368-1.7695Z"/><path d="M245.7056,95.6233c.854,0,1.5474-.2344,2.0815-.7041,.5337-.4697,.811-1.0947,.8325-1.874h4.3398c-.0107,1.1748-.3311,2.25-.9609,3.2266-.6299,.9775-1.4917,1.7354-2.5859,2.2744-1.0947,.5391-2.3037,.8086-3.627,.8086-2.4771,0-4.4307-.7871-5.8613-2.3623-1.4307-1.5742-2.1455-3.749-2.1455-6.5254v-.3037c0-2.6689,.7095-4.7988,2.1294-6.3896s3.3682-2.3867,5.8452-2.3867c2.167,0,3.9048,.6172,5.2124,1.8496,1.3076,1.2334,1.9722,2.875,1.9937,4.9248h-4.3398c-.0215-.9014-.2988-1.6338-.8325-2.1973-.5342-.5635-1.2388-.8457-2.1138-.8457-1.0786,0-1.8926,.3936-2.4419,1.1787-.5503,.7861-.8247,2.0615-.8247,3.8252v.4814c0,1.7852,.272,3.0684,.8164,3.8486,.5444,.7812,1.3716,1.1709,2.4824,1.1709Z"/><path d="M254.4488,90.2112c0-1.7188,.3306-3.251,.9927-4.5967,.6616-1.3447,1.6147-2.3857,2.8584-3.1221s2.6875-1.1055,4.3315-1.1055c2.3384,0,4.2461,.7158,5.7251,2.1465,1.4785,1.4307,2.3032,3.373,2.4741,5.8291l.0317,1.1846c0,2.6582-.7417,4.791-2.2256,6.3975s-3.4751,2.4102-5.9731,2.4102-4.4917-.8008-5.981-2.4023-2.2339-3.7793-2.2339-6.5332v-.208Zm4.6279,.3281c0,1.6465,.3091,2.9062,.9287,3.7773,.6191,.8711,1.5054,1.3066,2.6582,1.3066,1.1211,0,1.9961-.4297,2.626-1.291,.6299-.8604,.9448-2.2373,.9448-4.1299,0-1.6143-.3149-2.8652-.9448-3.7529-.6299-.8867-1.5156-1.3311-2.6582-1.3311-1.1313,0-2.0068,.4414-2.626,1.3232-.6196,.8818-.9287,2.248-.9287,4.0977Z"/><path d="M277.6197,81.7073l.144,1.9385c1.2275-1.5059,2.8877-2.2588,4.9805-2.2588,2.231,0,3.7632,.8809,4.5957,2.6426,1.2173-1.7617,2.9517-2.6426,5.2046-2.6426,1.8789,0,3.2778,.5479,4.1958,1.6416,.918,1.0947,1.377,2.7412,1.377,4.9404v11.0654h-4.644v-11.0498c0-.9814-.1919-1.6992-.5767-2.1533-.3843-.4541-1.062-.6807-2.0337-.6807-1.3877,0-2.3486,.6621-2.8823,1.9854l.0161,11.8984h-4.6279v-11.0332c0-1.0039-.1978-1.7295-.5928-2.1777s-1.0674-.6729-2.0176-.6729c-1.313,0-2.2632,.5439-2.8506,1.6338v12.25h-4.6279v-17.3271h4.3398Z"/></g><path d="M305.5313,81.3105c-.5466,.5491-1.2076,.8237-1.983,.8237s-1.4351-.2746-1.9791-.8237c-.5415-.5466-.8122-1.2088-.8122-1.9868,0-.7703,.2733-1.4287,.8199-1.9753,.544-.544,1.2012-.8161,1.9715-.8161,.7754,0,1.4364,.272,1.983,.8161s.8199,1.2025,.8199,1.9753c0,.7754-.2733,1.4376-.8199,1.9868Zm-3.6837-3.6875c-.4678,.4703-.7017,1.0385-.7017,1.7046,0,.6712,.2326,1.2432,.6978,1.716,.4678,.4729,1.036,.7093,1.7046,.7093s1.2368-.2364,1.7046-.7093,.7017-1.0449,.7017-1.716c0-.6661-.2339-1.2343-.7017-1.7046-.4703-.4729-1.0385-.7093-1.7046-.7093-.6635,0-1.2305,.2364-1.7008,.7093Zm1.6474,.1563c.3813,0,.661,.0369,.8389,.1106,.3178,.1325,.4767,.3921,.4767,.7789,0,.2749-.1001,.477-.3,.607-.1061,.0686-.2542,.1182-.4439,.1487,.2402,.0381,.416,.1386,.5272,.3009,.1115,.1627,.1672,.3213,.1672,.476v.225c0,.0709,.0025,.1471,.0076,.2285,.0051,.081,.014,.1344,.0267,.1598l.0191,.0381h-.5072l-.0076-.0305-.0076-.034-.0114-.0988v-.2434c0-.3546-.0966-.5892-.2898-.7033-.1144-.0658-.3152-.0988-.6025-.0988h-.4271v1.2088h-.5415v-3.0736h1.0754Zm.5847,.4843c-.1363-.0763-.355-.1144-.6559-.1144h-.4627v1.1135h.4894c.2294,0,.4017-.0229,.5164-.0686,.2116-.0839,.3175-.2441,.3175-.4805,0-.2237-.0683-.3737-.2047-.45Z"/><g><path class="b" d="M27.0012,59.957c-8.5353,0-15.1831-2.3792-19.9432-7.1377C2.3527,48.0608,0,41.3149,0,32.5817V0H16.25V32.0778c0,9.405,3.6385,14.1075,10.9154,14.1075,7.2222,0,10.8333-4.7025,10.8333-14.1075V0h16.0038V32.5817c0,8.7332-2.38,15.4791-7.1401,20.2376-4.7053,4.7586-11.3258,7.1377-19.8611,7.1377Z"/><path class="b" d="M89.2917,12.512c4.0489,0,7.7146,.9798,10.9975,2.9391,3.3372,1.9035,5.9635,4.6466,7.8788,8.2294,1.9697,3.5269,2.9545,7.6416,2.9545,12.3441s-.9848,8.8452-2.9545,12.4281c-1.9153,3.5269-4.5416,6.2701-7.8788,8.2294-3.2828,1.9035-6.9486,2.8551-10.9975,2.8551-5.1977,0-9.3287-1.5955-12.3927-4.7865v20.3216h-15.5934V13.2678h14.8548v4.5346c2.8999-3.5269,7.277-5.2903,13.1313-5.2903Zm-3.2828,34.3451c2.7357,0,4.979-.9516,6.7298-2.8551,1.7509-1.9593,2.6263-4.6185,2.6263-7.9775s-.8754-5.99-2.6263-7.8935c-1.7508-1.9593-3.9941-2.9391-6.7298-2.9391s-4.9789,.9798-6.7298,2.9391c-1.7508,1.9035-2.6263,4.5346-2.6263,7.8935s.8755,6.0182,2.6263,7.9775c1.7509,1.9035,3.9942,2.8551,6.7298,2.8551Z"/><path class="b" d="M171.7905,0V58.7814h-13.3775l-25.3598-31.3221v31.3221h-15.9217V0h13.3775l25.3598,31.3221V0h15.9217Z"/><path class="b" d="M225.0146,36.1085c0,.112-.0821,1.4275-.2462,3.9467h-32.3358c.6566,2.3513,1.9153,4.1708,3.7753,5.4583,1.9153,1.2317,4.2954,1.8474,7.1401,1.8474,2.1338,0,3.9671-.3079,5.4987-.9237,1.587-.6157,3.1731-1.6234,4.7601-3.023l8.2071,8.7332c-4.3221,4.9265-10.6415,7.3897-18.9583,7.3897-5.1981,0-9.7664-1.0077-13.7058-3.023s-7.0037-4.8144-9.1919-8.3973c-2.1338-3.5828-3.2008-7.6416-3.2008-12.1761,0-4.4785,1.0392-8.4813,3.1187-12.0082,2.1338-3.5828,5.0607-6.382,8.7816-8.3973s7.9065-3.023,12.5568-3.023c4.4318,0,8.4533,.9517,12.0644,2.8551,3.6111,1.8474,6.4559,4.5626,8.5354,8.1454,2.1338,3.5269,3.2008,7.7256,3.2008,12.596Zm-23.7184-12.2601c-2.4077,0-4.4318,.6998-6.0732,2.0993-1.587,1.3996-2.5986,3.303-3.0366,5.7102h18.2197c-.438-2.4072-1.4773-4.3106-3.1187-5.7102-1.587-1.3995-3.5834-2.0993-5.9912-2.0993Z"/><path class="b" d="M247.3834,59.5371c-3.7209,0-7.3864-.4199-10.9975-1.2596-3.6111-.8957-6.5113-2.0433-8.6995-3.4429l4.678-10.9165c2.0241,1.2876,4.4318,2.3233,7.2222,3.107,2.7904,.7278,5.5531,1.0917,8.2891,1.0917,2.5165,0,4.2954-.2519,5.3346-.7558,1.0946-.5598,1.6414-1.3436,1.6414-2.3513s-.6566-1.7074-1.9697-2.0993c-1.2588-.4478-3.2828-.8677-6.0732-1.2596-3.5567-.4478-6.5933-1.0356-9.1098-1.7634-2.4621-.7277-4.596-2.0713-6.4015-4.0307-1.8056-1.9593-2.7083-4.7025-2.7083-8.2294,0-2.911,.8484-5.4862,2.5442-7.7256,1.6958-2.2952,4.1579-4.0867,7.3864-5.3743,3.2828-1.3436,7.1945-2.0154,11.7361-2.0154,3.2284,0,6.4292,.3359,9.6023,1.0077,3.1731,.6718,5.827,1.6235,7.9608,2.8551l-4.678,10.8326c-3.9394-2.2393-8.2071-3.3589-12.803-3.3589-2.4621,0-4.2677,.308-5.4166,.9237-1.149,.5599-1.7235,1.3156-1.7235,2.2673,0,1.0637,.6289,1.8195,1.8876,2.2673,1.2587,.3919,3.3372,.8118,6.2374,1.2596,3.6655,.5599,6.7021,1.2037,9.1099,1.9314,2.4077,.7278,4.4862,2.0714,6.2374,4.0307,1.8055,1.9035,2.7083,4.5906,2.7083,8.0614,0,2.8551-.8484,5.4303-2.5442,7.7256-1.6958,2.2394-4.2133,4.0028-7.5505,5.2903-3.2828,1.2876-7.2499,1.9314-11.9002,1.9314Z"/><path class="b" d="M306.7927,56.9339c-1.3131,.8397-2.9278,1.4836-4.8422,1.9314-1.8609,.4479-3.8573,.6718-5.9912,.6718-5.8003,0-10.2588-1.4555-13.3775-4.3666-3.1187-2.911-4.678-7.2496-4.678-13.0159v-15.2832h-6.4836V14.9473h6.4836V3.107h15.5934V14.9473h10.1768v11.9242h-10.1768v15.1152c0,1.6235,.4104,2.9111,1.2311,3.8628,.8751,.8958,2.0241,1.3436,3.447,1.3436,1.8055,0,3.3916-.4758,4.7601-1.4275l3.8573,11.1685Z"/></g></svg>